{
.appVersion = "1075";
DisplayStrings = (
"/Eldescender-cy/EnLeftHook-cy/A-cy/Be-cy/Ve-cy/Ge-cy/Gje-cy/Gheupturn-cy/De-cy/Ie-cy/Iegrave-cy/Io-cy/Zhe-cy/Ze-cy/Ii-cy/Iishort-cy/Iigrave-cy/Iishorttail-cy/Ka-cy/Kje-cy/El-cy/Em-cy/En-cy/O-cy/Pe-cy/Er-cy/Es-cy/Te-cy/U-cy/Ushort-cy/Ef-cy/Ha-cy/Che-cy/Tse-cy/Sha-cy/Shcha-cy/Dzhe-cy/Softsign-cy/Hardsign-cy/Yeru-cy/Lje-cy/Nje-cy/Dze-cy/E-cy/Ereversed-cy/I-cy/Yi-cy/Je-cy/Tshe-cy/Iu-cy/Ia-cy/Dje-cy/Yat-cy/Yusbig-cy/Fita-cy/Izhitsa-cy/Ghestroke-cy/Ghemiddlehook-cy/Zhedescender-cy/Zedescender-cy/Kadescender-cy/Kaverticalstroke-cy/Kastroke-cy/Kabashkir-cy/Endescender-cy/Pedescender-cy/Haabkhasian-cy/Esdescender-cy/Tedescender-cy/Ustrait-cy/Ustraitstroke-cy/Hadescender-cy/Chedescender-cy/Cheverticalstroke-cy/Shha-cy/Shhadescender-cy/Cheabkhasian-cy/Chedescenderabkhasian-cy/Palochka-cy/Zhebreve-cy/Kahook-cy/Eltail-cy/Enhook-cy/Entail-cy/Chekhakassian-cy/Emtail-cy/Abreve-cy/Adieresis-cy/Iebreve-cy/Schwa-cy/Schwadieresis-cy/Zhedieresis-cy/Zedieresis-cy/Dzeabkhasian-cy/Imacron-cy/Idieresis-cy/Odieresis-cy/Obarred-cy/Obarreddieresis-cy/Edieresis-cy/Umacron-cy/Udieresis-cy/Uhungarumlaut-cy/Chedieresis-cy/Gedescender-cy/Yerudieresis-cy/Gestrokehook-cy/Hahook-cy/Hastroke-cy/Reversedze-cy/Elhook-cy/Qa-cy/We-cy/Semisoftsign-cy/Ertick-cy/Esdescender-cy.loclBSH/Esdescender-cy.loclCHU/Ghestroke-cy.loclBSH/I-cy.loclBSH/Zedescender-cy.loclBSH/Zedescender-cy.loclCHU",
"/Chedescender-cy/Tse-cy/En-cy/Entail-cy/En-cy O\012/__tail-cy \012/eltail-cy/tse-cy \012",
"/Qa-cy/We-cy  QW",
"/Hahook-cy/Hastroke-cy X",
"/Zhe-cy/Zhebreve-cy/Zhedieresis-cy",
"I/I-cy",
"/Ertick-cy P",
"/Esdescender-cy.loclBSH C",
"/a-cy a",
"/palochka-cy  l",
"/Dje-cy/tshe-cy  /dje-cy  /hbar",
"/kje-cy",
"/i-cy/yi-cy  /je-cy     i  j",
"/qa-cy",
"/ertick-cy  p"
);
classes = (
{
automatic = 1;

glyphs = (
{
glyphname = A;
lastChange = "2017-11-14 17:21:06 +0000";
layers = (
{
anchors = (
{
name = bottom;
position = "{359, 0}";
},
{
name = ogonek;
position = "{682, 10}";
},
{
name = top;
position = "{359, 705}";
}
);
background = {
anchors = (
{
name = bottom;
position = "{1159, 0}";
},
{
name = ogonek;
position = "{1482, 10}";
},
{
name = top;
position = "{1159, 705}";
}
);
paths = (
{
closed = 1;
nodes = (
"372 666 LINE",
"347 666 LINE",
"634 12 LINE SMOOTH",
"648 -20 OFFCURVE",
"695 -2 OFFCURVE",
"682 28 CURVE SMOOTH",
"389 691 LINE SMOOTH",
"379 716 OFFCURVE",
"340 718 OFFCURVE",
"329 691 CURVE SMOOTH",
"36 28 LINE SMOOTH",
"23 -2 OFFCURVE",
"71 -20 OFFCURVE",
"85 12 CURVE SMOOTH"
);
},
{
closed = 1;
nodes = (
"566 191 LINE",
"549 239 LINE",
"171 239 LINE",
"155 191 LINE"
);
}
);
};
layerId = "9E718F8A-2CEA-4931-B05D-987794BD97DA";
paths = (
{
closed = 1;
nodes = (
"372 669 LINE",
"346 669 LINE",
"633 0 LINE",
"689 0 LINE",
"384 705 LINE",
"334 705 LINE",
"29 0 LINE",
"85 0 LINE"
);
},
{
closed = 1;
nodes = (
"566 191 LINE",
"549 239 LINE",
"171 239 LINE",
"155 191 LINE"
);
}
);
width = 718;
}
);
leftKerningGroup = A;
rightKerningGroup = A;
unicode = 0041;
userData = {
anchors = (
);
b = {
};
com.typemytype.robofont.layerData = {
b = {
anchors = (
);
components = (
);
contours = (
{
points = (
{
segmentType = line;
smooth = 0;
x = 403;
y = 502;
},
{
segmentType = line;
smooth = 0;
x = 703;
y = 1275;
},
{
segmentType = line;
smooth = 0;
x = 705;
y = 1275;
},
{
segmentType = line;
smooth = 0;
x = 1004;
y = 502;
}
);
},
{
points = (
{
segmentType = curve;
smooth = 1;
x = 150;
y = 0;
},
{
smooth = 0;
x = 181;
y = 0;
},
{
smooth = 0;
x = 214;
y = 15;
},
{
segmentType = curve;
smooth = 1;
x = 229;
y = 53;
},
{
segmentType = line;
smooth = 0;
x = 356;
y = 373;
},
{
segmentType = line;
smooth = 0;
x = 1051;
y = 373;
},
{
segmentType = line;
smooth = 1;
x = 1179;
y = 53;
},
{
smooth = 0;
x = 1193;
y = 17;
},
{
smooth = 0;
x = 1228;
y = 0;
},
{
segmentType = curve;
smooth = 1;
x = 1260;
y = 0;
},
{
smooth = 0;
x = 1306;
y = 0;
},
{
smooth = 0;
x = 1354;
y = 31;
},
{
segmentType = curve;
smooth = 1;
x = 1354;
y = 80;
},
{
smooth = 0;
x = 1354;
y = 87;
},
{
smooth = 0;
x = 1352;
y = 97;
},
{
segmentType = curve;
smooth = 0;
x = 1349;
y = 108;
},
{
segmentType = line;
smooth = 1;
x = 871;
y = 1288;
},
{
smooth = 0;
x = 817;
y = 1420;
},
{
smooth = 0;
x = 777;
y = 1430;
},
{
segmentType = curve;
smooth = 1;
x = 710;
y = 1430;
},
{
smooth = 0;
x = 644;
y = 1430;
},
{
smooth = 0;
x = 596;
y = 1413;
},
{
segmentType = curve;
smooth = 1;
x = 542;
y = 1280;
},
{
segmentType = line;
smooth = 1;
x = 66;
y = 108;
},
{
smooth = 0;
x = 62;
y = 97;
},
{
smooth = 0;
x = 60;
y = 87;
},
{
segmentType = curve;
smooth = 1;
x = 60;
y = 78;
},
{
smooth = 0;
x = 60;
y = 32;
},
{
smooth = 0;
x = 106;
y = 0;
}
);
}
);
lib = {
};
name = A;
unicodes = (
);
width = 1414;
};
};
components = (
);
contours = {
};
lib = {
};
name = A;
points = {
};
segmentType = line;
unicodes = (
);
width = 1445;
x = 718;
y = 1232;
};
},
{
glyphname = Aogonek;
lastChange = "2017-11-14 17:21:06 +0000";
layers = (
{
background = {
paths = (
{
closed = 1;
nodes = (
"678 -191 OFFCURVE",
"701 -186 OFFCURVE",
"722 -174 CURVE SMOOTH",
"746 -160 OFFCURVE",
"737 -119 OFFCURVE",
"706 -135 CURVE SMOOTH",
"688 -144 OFFCURVE",
"670 -148 OFFCURVE",
"658 -148 CURVE SMOOTH",
"618 -148 OFFCURVE",
"590 -125 OFFCURVE",
"590 -82 CURVE SMOOTH",
"590 -41 OFFCURVE",
"616 -11 OFFCURVE",
"666 -3 CURVE SMOOTH",
"678 -1 OFFCURVE",
"689 12 OFFCURVE",
"682 28 CURVE SMOOTH",
"389 691 LINE",
"379 716 OFFCURVE",
"340 718 OFFCURVE",
"329 691 CURVE SMOOTH",
"36 28 LINE SMOOTH",
"23 -2 OFFCURVE",
"71 -20 OFFCURVE",
"85 12 CURVE SMOOTH",
"372 666 LINE",
"347 666 LINE",
"634 12 LINE SMOOTH",
"636 7 OFFCURVE",
"639 2 OFFCURVE",
"644 -1 CURVE",
"670 41 LINE",
"586 27 OFFCURVE",
"540 -24 OFFCURVE",
"540 -86 CURVE SMOOTH",
"540 -148 OFFCURVE",
"585 -191 OFFCURVE",
"653 -191 CURVE SMOOTH"
);
},
{
closed = 1;
nodes = (
"566 191 LINE",
"549 239 LINE",
"171 239 LINE",
"155 191 LINE"
);
}
);
};
layerId = "9E718F8A-2CEA-4931-B05D-987794BD97DA";
paths = (
{
closed = 1;
nodes = (
"566 191 LINE",
"549 239 LINE",
"171 239 LINE",
"155 191 LINE"
);
},
{
closed = 1;
nodes = (
"696 -142 OFFCURVE",
"674 -148 OFFCURVE",
"658 -148 CURVE SMOOTH",
"618 -148 OFFCURVE",
"590 -125 OFFCURVE",
"590 -82 CURVE SMOOTH",
"590 -38 OFFCURVE",
"618 0 OFFCURVE",
"682 0 CURVE SMOOTH",
"689 0 LINE",
"384 705 LINE",
"334 705 LINE",
"29 0 LINE",
"85 0 LINE",
"372 669 LINE",
"346 669 LINE",
"633 0 LINE",
"656 38 LINE",
"580 21 OFFCURVE",
"540 -28 OFFCURVE",
"540 -88 CURVE SMOOTH",
"540 -148 OFFCURVE",
"585 -191 OFFCURVE",
"653 -191 CURVE SMOOTH",
"686 -191 OFFCURVE",
"714 -181 OFFCURVE",
"733 -168 CURVE",
"717 -130 LINE"
);
}
);
width = 718;
}
);
leftKerningGroup = A;
rightKerningGroup = A;
unicode = 0104;
},
{
glyphname = Aring;
lastChange = "2017-11-14 17:21:06 +0000";
layers = (
{
background = {
paths = (
{
closed = 1;
nodes = (
"372 666 LINE",
"347 666 LINE",
"634 12 LINE SMOOTH",
"648 -20 OFFCURVE",
"695 -2 OFFCURVE",
"682 28 CURVE SMOOTH",
"389 691 LINE",
"329 691 LINE",
"36 28 LINE SMOOTH",
"23 -2 OFFCURVE",
"71 -20 OFFCURVE",
"85 12 CURVE SMOOTH"
);
},
{
closed = 1;
nodes = (
"566 191 LINE",
"549 239 LINE",
"171 239 LINE",
"155 191 LINE"
);
},
{
closed = 1;
nodes = (
"413 675 OFFCURVE",
"457 717 OFFCURVE",
"457 771 CURVE SMOOTH",
"457 825 OFFCURVE",
"413 867 OFFCURVE",
"359 867 CURVE SMOOTH",
"305 867 OFFCURVE",
"261 825 OFFCURVE",
"261 771 CURVE SMOOTH",
"261 717 OFFCURVE",
"305 675 OFFCURVE",
"359 675 CURVE SMOOTH"
);
},
{
closed = 1;
nodes = (
"330 719 OFFCURVE",
"309 742 OFFCURVE",
"309 771 CURVE SMOOTH",
"309 800 OFFCURVE",
"330 823 OFFCURVE",
"359 823 CURVE SMOOTH",
"388 823 OFFCURVE",
"409 800 OFFCURVE",
"409 771 CURVE SMOOTH",
"409 742 OFFCURVE",
"388 719 OFFCURVE",
"359 719 CURVE SMOOTH"
);
}
);
};
layerId = "9E718F8A-2CEA-4931-B05D-987794BD97DA";
paths = (
{
closed = 1;
nodes = (
"413 675 OFFCURVE",
"457 717 OFFCURVE",
"457 771 CURVE SMOOTH",
"457 825 OFFCURVE",
"413 867 OFFCURVE",
"359 867 CURVE SMOOTH",
"305 867 OFFCURVE",
"261 825 OFFCURVE",
"261 771 CURVE SMOOTH",
"261 717 OFFCURVE",
"305 675 OFFCURVE",
"359 675 CURVE SMOOTH"
);
},
{
closed = 1;
nodes = (
"330 719 OFFCURVE",
"309 742 OFFCURVE",
"309 771 CURVE SMOOTH",
"309 800 OFFCURVE",
"330 823 OFFCURVE",
"359 823 CURVE SMOOTH",
"388 823 OFFCURVE",
"409 800 OFFCURVE",
"409 771 CURVE SMOOTH",
"409 742 OFFCURVE",
"388 719 OFFCURVE",
"359 719 CURVE SMOOTH"
);
},
{
closed = 1;
nodes = (
"372 669 LINE",
"346 669 LINE",
"633 0 LINE",
"689 0 LINE",
"384 705 LINE",
"334 705 LINE",
"29 0 LINE",
"85 0 LINE"
);
},
{
closed = 1;
nodes = (
"566 191 LINE",
"549 239 LINE",
"171 239 LINE",
"155 191 LINE"
);
}
);
width = 718;
}
);
leftKerningGroup = A;
rightKerningGroup = A;
unicode = 00C5;
},
{
glyphname = Aringacute;
lastChange = "2017-11-14 17:21:06 +0000";
layers = (
{
background = {
paths = (
{
closed = 1;
nodes = (
"372 666 LINE",
"347 666 LINE",
"634 12 LINE SMOOTH",
"648 -20 OFFCURVE",
"695 -2 OFFCURVE",
"682 28 CURVE SMOOTH",
"389 691 LINE",
"329 691 LINE",
"36 28 LINE SMOOTH",
"23 -2 OFFCURVE",
"71 -20 OFFCURVE",
"85 12 CURVE SMOOTH"
);
},
{
closed = 1;
nodes = (
"566 191 LINE",
"549 239 LINE",
"171 239 LINE",
"155 191 LINE"
);
},
{
closed = 1;
nodes = (
"413 675 OFFCURVE",
"457 717 OFFCURVE",
"457 771 CURVE SMOOTH",
"457 825 OFFCURVE",
"413 867 OFFCURVE",
"359 867 CURVE SMOOTH",
"305 867 OFFCURVE",
"261 825 OFFCURVE",
"261 771 CURVE SMOOTH",
"261 717 OFFCURVE",
"305 675 OFFCURVE",
"359 675 CURVE SMOOTH"
);
},
{
closed = 1;
nodes = (
"330 719 OFFCURVE",
"309 742 OFFCURVE",
"309 771 CURVE SMOOTH",
"309 800 OFFCURVE",
"330 823 OFFCURVE",
"359 823 CURVE SMOOTH",
"388 823 OFFCURVE",
"409 800 OFFCURVE",
"409 771 CURVE SMOOTH",
"409 742 OFFCURVE",
"388 719 OFFCURVE",
"359 719 CURVE SMOOTH"
);
},
{
closed = 1;
nodes = (
"555 879 LINE SMOOTH",
"604 905 OFFCURVE",
"560 968 OFFCURVE",
"519 934 CURVE SMOOTH",
"401 836 LINE SMOOTH",
"384 822 OFFCURVE",
"401 799 OFFCURVE",
"420 809 CURVE SMOOTH"
);
}
);
};
layerId = "9E718F8A-2CEA-4931-B05D-987794BD97DA";
paths = (
{
closed = 1;
nodes = (
"85 0 LINE",
"372 669 LINE",
"346 669 LINE",
"633 0 LINE",
"689 0 LINE",
"384 705 LINE",
"334 705 LINE",
"29 0 LINE"
);
},
{
closed = 1;
nodes = (
"566 191 LINE",
"549 239 LINE",
"171 239 LINE",
"155 191 LINE"
);
},
{
closed = 1;
nodes = (
"413 675 OFFCURVE",
"457 717 OFFCURVE",
"457 771 CURVE SMOOTH",
"457 825 OFFCURVE",
"413 867 OFFCURVE",
"359 867 CURVE SMOOTH",
"305 867 OFFCURVE",
"261 825 OFFCURVE",
"261 771 CURVE SMOOTH",
"261 717 OFFCURVE",
"305 675 OFFCURVE",
"359 675 CURVE SMOOTH"
);
},
{
closed = 1;
nodes = (
"330 719 OFFCURVE",
"309 742 OFFCURVE",
"309 771 CURVE SMOOTH",
"309 800 OFFCURVE",
"330 823 OFFCURVE",
"359 823 CURVE SMOOTH",
"388 823 OFFCURVE",
"409 800 OFFCURVE",
"409 771 CURVE SMOOTH",
"409 742 OFFCURVE",
"388 719 OFFCURVE",
"359 719 CURVE SMOOTH"
);
},
{
closed = 1;
nodes = (
"572 939 LINE",
"499 939 LINE",
"398 835 LINE",
"431 818 LINE"
);
}
);
width = 718;
}
);
leftKerningGroup = A;
rightKerningGroup = A;
unicode = 01FA;
},
{
glyphname = AE;
lastChange = "2017-11-14 17:21:06 +0000";
layers = (
{
anchors = (
{
name = bottom;
position = "{497, 0}";
},
{
name = top;
position = "{496, 705}";
}
);
background = {
anchors = (
{
name = bottom;
position = "{497, 0}";
},
{
name = top;
position = "{496, 705}";
}
);
paths = (
{
closed = 1;
nodes = (
"915 0 LINE SMOOTH",
"929 0 OFFCURVE",
"939 9 OFFCURVE",
"939 24 CURVE SMOOTH",
"939 40 OFFCURVE",
"929 49 OFFCURVE",
"915 49 CURVE SMOOTH",
"618 49 LINE",
"483 682 LINE",
"475 656 LINE",
"915 656 LINE SMOOTH",
"929 656 OFFCURVE",
"939 665 OFFCURVE",
"939 681 CURVE SMOOTH",
"939 696 OFFCURVE",
"929 705 OFFCURVE",
"915 705 CURVE SMOOTH",
"455 705 LINE SMOOTH",
"443 705 OFFCURVE",
"431 703 OFFCURVE",
"423 691 CURVE SMOOTH",
"19 28 LINE SMOOTH",
"0 -3 OFFCURVE",
"47 -21 OFFCURVE",
"67 12 CURVE SMOOTH",
"461 665 LINE",
"437 665 LINE",
"571 30 LINE SMOOTH",
"575 14 OFFCURVE",
"584 0 OFFCURVE",
"601 0 CURVE SMOOTH"
);
},
{
closed = 1;
nodes = (
"559 191 LINE",
"540 239 LINE",
"162 239 LINE",
"146 191 LINE"
);
},
{
closed = 1;
nodes = (
"895 334 LINE SMOOTH",
"909 334 OFFCURVE",
"919 343 OFFCURVE",
"919 358 CURVE SMOOTH",
"919 373 OFFCURVE",
"909 382 OFFCURVE",
"895 382 CURVE SMOOTH",
"538 382 LINE",
"538 334 LINE"
);
}
);
};
layerId = "9E718F8A-2CEA-4931-B05D-987794BD97DA";
paths = (
{
closed = 1;
nodes = (
"934 0 LINE",
"934 49 LINE",
"618 49 LINE",
"483 682 LINE",
"475 656 LINE",
"934 656 LINE",
"934 705 LINE",
"432 705 LINE",
"9 0 LINE",
"67 0 LINE",
"461 665 LINE",
"437 665 LINE",
"577 0 LINE"
);
},
{
closed = 1;
nodes = (
"559 191 LINE",
"540 239 LINE",
"162 239 LINE",
"146 191 LINE"
);
},
{
closed = 1;
nodes = (
"914 334 LINE",
"914 382 LINE",
"538 382 LINE",
"538 334 LINE"
);
}
);
width = 988;
}
);
leftKerningGroup = A;
rightKerningGroup = E;
unicode = 00C6;
userData = {
com.typemytype.robofont.layerData = {
b = {
anchors = (
);
components = (
);
contours = (
);
lib = {
};
name = AE;
unicodes = (
);
width = 1976;
};
};
};
},
{
glyphname = B;
lastChange = "2017-11-14 17:21:06 +0000";
layers = (
{
anchors = (
{
name = bottom;
position = "{338, 0}";
},
{
name = top;
position = "{337, 705}";
}
);
background = {
anchors = (
{
name = bottom;
position = "{338, 0}";
},
{
name = top;
position = "{337, 705}";
}
);
paths = (
{
closed = 1;
nodes = (
"371 0 LINE SMOOTH",
"518 0 OFFCURVE",
"601 66 OFFCURVE",
"601 191 CURVE SMOOTH",
"601 285 OFFCURVE",
"548 348 OFFCURVE",
"459 364 CURVE",
"459 356 LINE",
"537 380 OFFCURVE",
"585 438 OFFCURVE",
"585 520 CURVE SMOOTH",
"585 640 OFFCURVE",
"503 705 OFFCURVE",
"360 705 CURVE SMOOTH",
"123 705 LINE SMOOTH",
"106 705 OFFCURVE",
"93 693 OFFCURVE",
"93 677 CURVE SMOOTH",
"93 28 LINE SMOOTH",
"93 13 OFFCURVE",
"106 0 OFFCURVE",
"123 0 CURVE SMOOTH"
);
},
{
closed = 1;
nodes = (
"147 334 LINE",
"368 334 LINE SMOOTH",
"487 334 OFFCURVE",
"546 284 OFFCURVE",
"546 188 CURVE SMOOTH",
"546 93 OFFCURVE",
"489 48 OFFCURVE",
"368 48 CURVE SMOOTH",
"147 48 LINE"
);
},
{
closed = 1;
nodes = (
"147 657 LINE",
"353 657 LINE SMOOTH",
"472 657 OFFCURVE",
"530 612 OFFCURVE",
"530 523 CURVE SMOOTH",
"530 432 OFFCURVE",
"469 382 OFFCURVE",
"353 382 CURVE SMOOTH",
"147 382 LINE"
);
}
);
};
layerId = "9E718F8A-2CEA-4931-B05D-987794BD97DA";
paths = (
{
closed = 1;
nodes = (
"371 0 LINE SMOOTH",
"518 0 OFFCURVE",
"601 66 OFFCURVE",
"601 191 CURVE SMOOTH",
"601 285 OFFCURVE",
"548 348 OFFCURVE",
"459 364 CURVE",
"459 356 LINE",
"537 380 OFFCURVE",
"585 438 OFFCURVE",
"585 520 CURVE SMOOTH",
"585 640 OFFCURVE",
"503 705 OFFCURVE",
"360 705 CURVE SMOOTH",
"93 705 LINE",
"93 0 LINE"
);
},
{
closed = 1;
nodes = (
"147 334 LINE",
"368 334 LINE SMOOTH",
"487 334 OFFCURVE",
"546 284 OFFCURVE",
"546 188 CURVE SMOOTH",
"546 93 OFFCURVE",
"489 48 OFFCURVE",
"368 48 CURVE SMOOTH",
"147 48 LINE"
);
},
{
closed = 1;
nodes = (
"147 657 LINE",
"353 657 LINE SMOOTH",
"472 657 OFFCURVE",
"530 612 OFFCURVE",
"530 523 CURVE SMOOTH",
"530 432 OFFCURVE",
"469 382 OFFCURVE",
"353 382 CURVE SMOOTH",
"147 382 LINE"
);
}
);
width = 668;
}
);
leftKerningGroup = H;
rightKerningGroup = B;
unicode = 0042;
userData = {
anchors = (
);
b = {
};
com.typemytype.robofont.layerData = {
b = {
anchors = (
);
components = (
);
contours = (
{
points = (
{
segmentType = curve;
smooth = 1;
x = 266;
y = 0;
},
{
segmentType = line;
smooth = 1;
x = 1035;
y = 0;
},
{
smooth = 0;
x = 1084;
y = 0;
},
{
smooth = 0;
x = 1108;
y = 36;
},
{
segmentType = curve;
smooth = 1;
x = 1108;
y = 73;
},
{
smooth = 0;
x = 1108;
y = 109;
},
{
smooth = 0;
x = 1084;
y = 145;
},
{
segmentType = curve;
smooth = 1;
x = 1035;
y = 145;
},
{
segmentType = line;
smooth = 0;
x = 353;
y = 145;
},
{
segmentType = line;
smooth = 0;
x = 353;
y = 662;
},
{
segmentType = line;
smooth = 1;
x = 975;
y = 662;
},
{
smooth = 0;
x = 1024;
y = 662;
},
{
smooth = 0;
x = 1049;
y = 698;
},
{
segmentType = curve;
smooth = 1;
x = 1049;
y = 734;
},
{
smooth = 0;
x = 1049;
y = 770;
},
{
smooth = 0;
x = 1026;
y = 806;
},
{
segmentType = curve;
smooth = 1;
x = 975;
y = 806;
},
{
segmentType = line;
smooth = 0;
x = 353;
y = 806;
},
{
segmentType = line;
smooth = 0;
x = 353;
y = 1281;
},
{
segmentType = line;
smooth = 1;
x = 1007;
y = 1281;
},
{
smooth = 0;
x = 1056;
y = 1281;
},
{
smooth = 0;
x = 1080;
y = 1317;
},
{
segmentType = curve;
smooth = 1;
x = 1080;
y = 1354;
},
{
smooth = 0;
x = 1080;
y = 1390;
},
{
smooth = 0;
x = 1056;
y = 1426;
},
{
segmentType = curve;
smooth = 1;
x = 1007;
y = 1426;
},
{
segmentType = line;
smooth = 1;
x = 261;
y = 1426;
},
{
smooth = 0;
x = 213;
y = 1426;
},
{
smooth = 0;
x = 178;
y = 1383;
},
{
segmentType = curve;
smooth = 1;
x = 178;
y = 1340;
},
{
segmentType = line;
smooth = 1;
x = 178;
y = 86;
},
{
smooth = 0;
x = 178;
y = 41;
},
{
smooth = 0;
x = 222;
y = 0;
}
);
}
);
lib = {
};
name = B;
unicodes = (
);
width = 1292;
};
};
components = (
);
contours = {
};
lib = {
};
name = B;
points = {
};
segmentType = curve;
unicodes = (
);
width = 1395;
x = 676;
y = 1260;
};
},
{
glyphname = C;
lastChange = "2017-11-14 17:21:06 +0000";
layers = (
{
anchors = (
{
name = bottom;
position = "{382, 0}";
},
{
name = top;
position = "{383, 705}";
}
);
background = {
paths = (
{
closed = 1;
nodes = (
"472 -8 OFFCURVE",
"558 24 OFFCURVE",
"614 80 CURVE SMOOTH",
"623 89 OFFCURVE",
"626 98 OFFCURVE",
"626 107 CURVE SMOOTH",
"626 121 OFFCURVE",
"618 131 OFFCURVE",
"608 131 CURVE SMOOTH",
"601 131 OFFCURVE",
"595 128 OFFCURVE",
"587 122 CURVE SMOOTH",
"513 61 OFFCURVE",
"461 41 OFFCURVE",
"382 41 CURVE SMOOTH",
"217 41 OFFCURVE",
"123 155 OFFCURVE",
"123 353 CURVE SMOOTH",
"123 550 OFFCURVE",
"218 664 OFFCURVE",
"382 664 CURVE SMOOTH",
"461 664 OFFCURVE",
"513 644 OFFCURVE",
"587 583 CURVE SMOOTH",
"596 575 OFFCURVE",
"602 574 OFFCURVE",
"608 574 CURVE SMOOTH",
"618 574 OFFCURVE",
"626 585 OFFCURVE",
"626 598 CURVE SMOOTH",
"626 607 OFFCURVE",
"623 616 OFFCURVE",
"614 625 CURVE SMOOTH",
"558 681 OFFCURVE",
"472 713 OFFCURVE",
"383 713 CURVE SMOOTH",
"186 713 OFFCURVE",
"65 576 OFFCURVE",
"65 353 CURVE SMOOTH",
"65 129 OFFCURVE",
"186 -8 OFFCURVE",
"383 -8 CURVE SMOOTH"
);
}
);
};
layerId = "9E718F8A-2CEA-4931-B05D-987794BD97DA";
paths = (
{
closed = 1;
nodes = (
"480 -8 OFFCURVE",
"562 23 OFFCURVE",
"623 85 CURVE",
"599 129 LINE",
"530 66 OFFCURVE",
"466 42 OFFCURVE",
"383 42 CURVE SMOOTH",
"217 42 OFFCURVE",
"122 155 OFFCURVE",
"122 353 CURVE SMOOTH",
"122 550 OFFCURVE",
"218 663 OFFCURVE",
"383 663 CURVE SMOOTH",
"466 663 OFFCURVE",
"530 639 OFFCURVE",
"599 576 CURVE",
"623 620 LINE",
"562 682 OFFCURVE",
"480 713 OFFCURVE",
"383 713 CURVE SMOOTH",
"187 713 OFFCURVE",
"65 578 OFFCURVE",
"65 353 CURVE SMOOTH",
"65 128 OFFCURVE",
"187 -8 OFFCURVE",
"383 -8 CURVE SMOOTH"
);
}
);
width = 677;
}
);
leftKerningGroup = O;
rightKerningGroup = C;
unicode = 0043;
userData = {
anchors = (
);
b = {
};
com.typemytype.robofont.layerData = {
b = {
anchors = (
);
components = (
);
contours = (
);
lib = {
};
name = C;
unicodes = (
);
width = 1353.89001;
};
};
components = (
);
contours = (
);
lib = {
};
name = C;
unicodes = (
);
width = 1354;
};
},
{
glyphname = D;
lastChange = "2017-11-14 17:21:06 +0000";
layers = (
{
anchors = (
{
name = bottom;
position = "{365, 0}";
},
{
name = center;
position = "{365, 353}";
},
{
name = top;
position = "{364, 705}";
}
);
background = {
anchors = (
{
name = bottom;
position = "{365, 0}";
},
{
name = center;
position = "{365, 353}";
},
{
name = top;
position = "{364, 705}";
}
);
paths = (
{
closed = 1;
nodes = (
"316 0 LINE SMOOTH",
"537 0 OFFCURVE",
"664 126 OFFCURVE",
"664 353 CURVE SMOOTH",
"664 581 OFFCURVE",
"537 705 OFFCURVE",
"316 705 CURVE SMOOTH",
"123 705 LINE SMOOTH",
"106 705 OFFCURVE",
"93 693 OFFCURVE",
"93 677 CURVE SMOOTH",
"93 28 LINE SMOOTH",
"93 13 OFFCURVE",
"106 0 OFFCURVE",
"123 0 CURVE SMOOTH"
);
},
{
closed = 1;
nodes = (
"147 657 LINE",
"314 657 LINE SMOOTH",
"518 657 OFFCURVE",
"607 546 OFFCURVE",
"607 353 CURVE SMOOTH",
"607 160 OFFCURVE",
"518 48 OFFCURVE",
"314 48 CURVE SMOOTH",
"147 48 LINE"
);
}
);
};
layerId = "9E718F8A-2CEA-4931-B05D-987794BD97DA";
paths = (
{
closed = 1;
nodes = (
"316 0 LINE SMOOTH",
"538 0 OFFCURVE",
"664 127 OFFCURVE",
"664 353 CURVE SMOOTH",
"664 579 OFFCURVE",
"539 705 OFFCURVE",
"316 705 CURVE SMOOTH",
"93 705 LINE",
"93 0 LINE"
);
},
{
closed = 1;
nodes = (
"147 657 LINE",
"314 657 LINE SMOOTH",
"509 657 OFFCURVE",
"607 555 OFFCURVE",
"607 353 CURVE SMOOTH",
"607 151 OFFCURVE",
"508 48 OFFCURVE",
"314 48 CURVE SMOOTH",
"147 48 LINE"
);
}
);
width = 729;
}
);
leftKerningGroup = H;
rightKerningGroup = O;
unicode = 0044;
userData = {
anchors = (
);
b = {
};
com.typemytype.robofont.layerData = {
b = {
anchors = (
);
components = (
);
contours = (
{
points = (
{
segmentType = curve;
smooth = 1;
x = 266;
y = 0;
},
{
segmentType = line;
smooth = 1;
x = 1035;
y = 0;
},
{
smooth = 0;
x = 1084;
y = 0;
},
{
smooth = 0;
x = 1108;
y = 34;
},
{
segmentType = curve;
smooth = 1;
x = 1108;
y = 71;
},
{
smooth = 0;
x = 1108;
y = 107;
},
{
smooth = 0;
x = 1084;
y = 141;
},
{
segmentType = curve;
smooth = 1;
x = 1035;
y = 141;
},
{
segmentType = line;
smooth = 0;
x = 356;
y = 141;
},
{
segmentType = line;
smooth = 0;
x = 356;
y = 665;
},
{
segmentType = line;
smooth = 1;
x = 975;
y = 665;
},
{
smooth = 0;
x = 1024;
y = 665;
},
{
smooth = 0;
x = 1049;
y = 698;
},
{
segmentType = curve;
smooth = 1;
x = 1049;
y = 734;
},
{
smooth = 0;
x = 1049;
y = 770;
},
{
smooth = 0;
x = 1026;
y = 803;
},
{
segmentType = curve;
smooth = 1;
x = 975;
y = 803;
},
{
segmentType = line;
smooth = 0;
x = 356;
y = 803;
},
{
segmentType = line;
smooth = 0;
x = 356;
y = 1285;
},
{
segmentType = line;
smooth = 1;
x = 1007;
y = 1285;
},
{
smooth = 0;
x = 1056;
y = 1285;
},
{
smooth = 0;
x = 1080;
y = 1319;
},
{
segmentType = curve;
smooth = 1;
x = 1080;
y = 1356;
},
{
smooth = 0;
x = 1080;
y = 1392;
},
{
smooth = 0;
x = 1056;
y = 1426;
},
{
segmentType = curve;
smooth = 1;
x = 1007;
y = 1426;
},
{
segmentType = line;
smooth = 1;
x = 261;
y = 1426;
},
{
smooth = 0;
x = 213;
y = 1426;
},
{
smooth = 0;
x = 178;
y = 1383;
},
{
segmentType = curve;
smooth = 1;
x = 178;
y = 1340;
},
{
segmentType = line;
smooth = 1;
x = 178;
y = 86;
},
{
smooth = 0;
x = 178;
y = 41;
},
{
smooth = 0;
x = 222;
y = 0;
}
);
}
);
lib = {
};
name = D;
unicodes = (
);
width = 1499;
};
};
components = (
);
contours = (
);
lib = {
};
name = D;
unicodes = (
);
width = 1535;
};
},
{
glyphname = Eth;
lastChange = "2017-11-14 17:21:06 +0000";
layers = (
{
background = {
paths = (
{
closed = 1;
nodes = (
"323 0 LINE SMOOTH",
"544 0 OFFCURVE",
"671 126 OFFCURVE",
"671 353 CURVE SMOOTH",
"671 581 OFFCURVE",
"544 705 OFFCURVE",
"323 705 CURVE SMOOTH",
"130 705 LINE SMOOTH",
"113 705 OFFCURVE",
"100 693 OFFCURVE",
"100 677 CURVE SMOOTH",
"100 28 LINE SMOOTH",
"100 13 OFFCURVE",
"113 0 OFFCURVE",
"130 0 CURVE SMOOTH"
);
},
{
closed = 1;
nodes = (
"331 335 LINE SMOOTH",
"345 335 OFFCURVE",
"354 343 OFFCURVE",
"354 358 CURVE SMOOTH",
"354 373 OFFCURVE",
"345 381 OFFCURVE",
"331 381 CURVE SMOOTH",
"25 381 LINE SMOOTH",
"11 381 OFFCURVE",
"0 373 OFFCURVE",
"0 358 CURVE SMOOTH",
"0 343 OFFCURVE",
"11 335 OFFCURVE",
"25 335 CURVE SMOOTH"
);
},
{
closed = 1;
nodes = (
"154 657 LINE",
"321 657 LINE SMOOTH",
"525 657 OFFCURVE",
"614 546 OFFCURVE",
"614 353 CURVE SMOOTH",
"614 160 OFFCURVE",
"525 48 OFFCURVE",
"321 48 CURVE SMOOTH",
"154 48 LINE"
);
}
);
};
layerId = "9E718F8A-2CEA-4931-B05D-987794BD97DA";
paths = (
{
closed = 1;
nodes = (
"349 335 LINE",
"349 381 LINE",
"5 381 LINE",
"5 335 LINE"
);
},
{
closed = 1;
nodes = (
"323 0 LINE SMOOTH",
"545 0 OFFCURVE",
"671 127 OFFCURVE",
"671 353 CURVE SMOOTH",
"671 579 OFFCURVE",
"546 705 OFFCURVE",
"323 705 CURVE SMOOTH",
"100 705 LINE",
"100 0 LINE"
);
},
{
closed = 1;
nodes = (
"154 657 LINE",
"321 657 LINE SMOOTH",
"516 657 OFFCURVE",
"614 555 OFFCURVE",
"614 353 CURVE SMOOTH",
"614 151 OFFCURVE",
"515 48 OFFCURVE",
"321 48 CURVE SMOOTH",
"154 48 LINE"
);
}
);
width = 736;
}
);
leftKerningGroup = H;
rightKerningGroup = O;
unicode = 00D0;
},
{
glyphname = E;
lastChange = "2017-11-14 17:21:06 +0000";
layers = (
{
anchors = (
{
name = bottom;
position = "{321, 0}";
},
{
name = ogonek;
position = "{505, 10}";
},
{
name = top;
position = "{321, 705}";
},
{
name = topleft;
position = "{26, 705}";
}
);
background = {
anchors = (
{
name = bottom;
position = "{321, 0}";
},
{
name = ogonek;
position = "{505, 10}";
},
{
name = top;
position = "{321, 705}";
},
{
name = topleft;
position = "{26, 705}";
}
);
paths = (
{
closed = 1;
nodes = (
"505 0 LINE SMOOTH",
"519 0 OFFCURVE",
"529 9 OFFCURVE",
"529 24 CURVE SMOOTH",
"529 40 OFFCURVE",
"519 48 OFFCURVE",
"505 48 CURVE SMOOTH",
"147 48 LINE",
"147 334 LINE",
"485 334 LINE SMOOTH",
"499 334 OFFCURVE",
"509 343 OFFCURVE",
"509 358 CURVE SMOOTH",
"509 373 OFFCURVE",
"499 382 OFFCURVE",
"485 382 CURVE SMOOTH",
"147 382 LINE",
"147 657 LINE",
"505 657 LINE SMOOTH",
"519 657 OFFCURVE",
"529 666 OFFCURVE",
"529 681 CURVE SMOOTH",
"529 696 OFFCURVE",
"519 705 OFFCURVE",
"505 705 CURVE SMOOTH",
"123 705 LINE SMOOTH",
"106 705 OFFCURVE",
"93 693 OFFCURVE",
"93 677 CURVE SMOOTH",
"93 28 LINE SMOOTH",
"93 13 OFFCURVE",
"106 0 OFFCURVE",
"123 0 CURVE SMOOTH"
);
}
);
};
guideLines = (
{
angle = 90;
position = "{529, 247}";
}
);
layerId = "9E718F8A-2CEA-4931-B05D-987794BD97DA";
paths = (
{
closed = 1;
nodes = (
"524 0 LINE",
"524 48 LINE",
"147 48 LINE",
"147 334 LINE",
"504 334 LINE",
"504 382 LINE",
"147 382 LINE",
"147 657 LINE",
"524 657 LINE",
"524 705 LINE",
"93 705 LINE",
"93 0 LINE"
);
}
);
width = 578;
}
);
leftKerningGroup = H;
rightKerningGroup = E;
unicode = 0045;
userData = {
anchors = (
);
b = {
};
com.typemytype.robofont.layerData = {
b = {
anchors = (
);
components = (
);
contours = (
);
lib = {
};
name = E;
unicodes = (
);
width = 1234;
};
};
components = (
);
contours = (
);
lib = {
};
name = E;
unicodes = (
);
width = 1258;
};
},
{
glyphname = Eogonek;
lastChange = "2017-11-14 17:21:06 +0000";
layers = (
{
anchors = (
{
name = top;
position = "{321, 705}";
}
);
background = {
anchors = (
{
name = top;
position = "{321, 705}";
}
);
paths = (
{
closed = 1;
nodes = (
"501 -191 OFFCURVE",
"524 -186 OFFCURVE",
"545 -174 CURVE SMOOTH",
"569 -160 OFFCURVE",
"560 -119 OFFCURVE",
"529 -135 CURVE SMOOTH",
"511 -144 OFFCURVE",
"493 -148 OFFCURVE",
"481 -148 CURVE SMOOTH",
"441 -148 OFFCURVE",
"413 -125 OFFCURVE",
"413 -82 CURVE SMOOTH",
"413 -38 OFFCURVE",
"441 -4 OFFCURVE",
"505 0 CURVE SMOOTH",
"520 1 OFFCURVE",
"529 9 OFFCURVE",
"529 24 CURVE SMOOTH",
"529 40 OFFCURVE",
"519 48 OFFCURVE",
"505 48 CURVE SMOOTH",
"147 48 LINE",
"147 334 LINE",
"485 334 LINE SMOOTH",
"499 334 OFFCURVE",
"509 343 OFFCURVE",
"509 358 CURVE SMOOTH",
"509 373 OFFCURVE",
"499 382 OFFCURVE",
"485 382 CURVE SMOOTH",
"147 382 LINE",
"147 657 LINE",
"505 657 LINE SMOOTH",
"519 657 OFFCURVE",
"529 665 OFFCURVE",
"529 681 CURVE SMOOTH",
"529 696 OFFCURVE",
"519 705 OFFCURVE",
"505 705 CURVE SMOOTH",
"123 705 LINE SMOOTH",
"106 705 OFFCURVE",
"93 693 OFFCURVE",
"93 677 CURVE SMOOTH",
"93 28 LINE SMOOTH",
"93 13 OFFCURVE",
"106 0 OFFCURVE",
"123 0 CURVE SMOOTH",
"446 0 LINE",
"431 19 LINE",
"386 -4 OFFCURVE",
"363 -44 OFFCURVE",
"363 -88 CURVE SMOOTH",
"363 -148 OFFCURVE",
"408 -191 OFFCURVE",
"476 -191 CURVE SMOOTH"
);
}
);
};
layerId = "9E718F8A-2CEA-4931-B05D-987794BD97DA";
paths = (
{
closed = 1;
nodes = (
"519 -142 OFFCURVE",
"497 -148 OFFCURVE",
"481 -148 CURVE SMOOTH",
"441 -148 OFFCURVE",
"413 -125 OFFCURVE",
"413 -82 CURVE SMOOTH",
"413 -36 OFFCURVE",
"445 0 OFFCURVE",
"511 0 CURVE SMOOTH",
"524 0 LINE",
"524 48 LINE",
"147 48 LINE",
"147 334 LINE",
"504 334 LINE",
"504 382 LINE",
"147 382 LINE",
"147 657 LINE",
"524 657 LINE",
"524 705 LINE",
"93 705 LINE",
"93 0 LINE",
"448 0 LINE",
"432 19 LINE",
"387 -5 OFFCURVE",
"363 -42 OFFCURVE",
"363 -88 CURVE SMOOTH",
"363 -148 OFFCURVE",
"408 -191 OFFCURVE",
"476 -191 CURVE SMOOTH",
"509 -191 OFFCURVE",
"537 -181 OFFCURVE",
"556 -168 CURVE",
"540 -130 LINE"
);
}
);
width = 578;
}
);
leftKerningGroup = H;
rightKerningGroup = E;
unicode = 0118;
userData = {
com.typemytype.robofont.layerData = {
b = {
anchors = (
);
components = (
);
contours = (
);
lib = {
};
name = Eogonek;
unicodes = (
);
width = 1234;
};
};
};
},
{
glyphname = F;
lastChange = "2017-11-14 17:21:06 +0000";
layers = (
{
anchors = (
{
name = bottom;
position = "{306, 0}";
},
{
name = top;
position = "{285, 705}";
}
);
background = {
anchors = (
{
name = bottom;
position = "{306, 0}";
},
{
name = top;
position = "{285, 705}";
}
);
paths = (
{
closed = 1;
nodes = (
"139 -5 OFFCURVE",
"147 7 OFFCURVE",
"147 24 CURVE SMOOTH",
"147 334 LINE",
"475 334 LINE SMOOTH",
"489 334 OFFCURVE",
"499 343 OFFCURVE",
"499 358 CURVE SMOOTH",
"499 373 OFFCURVE",
"489 382 OFFCURVE",
"475 382 CURVE SMOOTH",
"147 382 LINE",
"147 657 LINE",
"495 657 LINE SMOOTH",
"509 657 OFFCURVE",
"519 666 OFFCURVE",
"519 681 CURVE SMOOTH",
"519 696 OFFCURVE",
"509 705 OFFCURVE",
"495 705 CURVE SMOOTH",
"123 705 LINE SMOOTH",
"106 705 OFFCURVE",
"93 693 OFFCURVE",
"93 677 CURVE SMOOTH",
"93 24 LINE SMOOTH",
"93 7 OFFCURVE",
"104 -5 OFFCURVE",
"120 -5 CURVE SMOOTH"
);
}
);
};
layerId = "9E718F8A-2CEA-4931-B05D-987794BD97DA";
paths = (
{
closed = 1;
nodes = (
"147 0 LINE",
"147 334 LINE",
"494 334 LINE",
"494 382 LINE",
"147 382 LINE",
"147 657 LINE",
"514 657 LINE",
"514 705 LINE",
"93 705 LINE",
"93 0 LINE"
);
}
);
width = 551;
}
);
leftKerningGroup = H;
rightKerningGroup = F;
unicode = 0046;
userData = {
anchors = (
);
b = {
};
com.typemytype.robofont.layerData = {
b = {
anchors = (
);
components = (
);
contours = (
{
points = (
{
segmentType = curve;
smooth = 1;
x = 266;
y = 0;
},
{
segmentType = line;
smooth = 1;
x = 1035;
y = 0;
},
{
smooth = 0;
x = 1084;
y = 0;
},
{
smooth = 0;
x = 1108;
y = 34;
},
{
segmentType = curve;
smooth = 1;
x = 1108;
y = 71;
},
{
smooth = 0;
x = 1108;
y = 107;
},
{
smooth = 0;
x = 1084;
y = 141;
},
{
segmentType = curve;
smooth = 1;
x = 1035;
y = 141;
},
{
segmentType = line;
smooth = 0;
x = 353;
y = 141;
},
{
segmentType = line;
smooth = 0;
x = 353;
y = 665;
},
{
segmentType = line;
smooth = 1;
x = 975;
y = 665;
},
{
smooth = 0;
x = 1024;
y = 665;
},
{
smooth = 0;
x = 1049;
y = 698;
},
{
segmentType = curve;
smooth = 1;
x = 1049;
y = 734;
},
{
smooth = 0;
x = 1049;
y = 770;
},
{
smooth = 0;
x = 1026;
y = 803;
},
{
segmentType = curve;
smooth = 1;
x = 975;
y = 803;
},
{
segmentType = line;
smooth = 0;
x = 353;
y = 803;
},
{
segmentType = line;
smooth = 0;
x = 353;
y = 1285;
},
{
segmentType = line;
smooth = 1;
x = 1007;
y = 1285;
},
{
smooth = 0;
x = 1056;
y = 1285;
},
{
smooth = 0;
x = 1080;
y = 1319;
},
{
segmentType = curve;
smooth = 1;
x = 1080;
y = 1356;
},
{
smooth = 0;
x = 1080;
y = 1392;
},
{
smooth = 0;
x = 1056;
y = 1426;
},
{
segmentType = curve;
smooth = 1;
x = 1007;
y = 1426;
},
{
segmentType = line;
smooth = 1;
x = 261;
y = 1426;
},
{
smooth = 0;
x = 213;
y = 1426;
},
{
smooth = 0;
x = 178;
y = 1383;
},
{
segmentType = curve;
smooth = 1;
x = 178;
y = 1340;
},
{
segmentType = line;
smooth = 1;
x = 178;
y = 86;
},
{
smooth = 0;
x = 178;
y = 41;
},
{
smooth = 0;
x = 222;
y = 0;
}
);
}
);
lib = {
};
name = F;
unicodes = (
);
width = 1142;
};
};
components = (
);
contours = (
);
lib = {
};
name = F;
unicodes = (
);
width = 1175;
};
},
{
glyphname = G;
lastChange = "2017-11-14 17:21:06 +0000";
layers = (
{
anchors = (
{
name = bottom;
position = "{393, 0}";
},
{
name = top;
position = "{386, 705}";
}
);
background = {
anchors = (
{
name = bottom;
position = "{393, 0}";
},
{
name = top;
position = "{386, 705}";
}
);
paths = (
{
closed = 1;
nodes = (
"475 -8 OFFCURVE",
"560 8 OFFCURVE",
"614 34 CURVE SMOOTH",
"627 40 OFFCURVE",
"633 50 OFFCURVE",
"633 64 CURVE SMOOTH",
"633 334 LINE SMOOTH",
"633 349 OFFCURVE",
"623 359 OFFCURVE",
"609 359 CURVE SMOOTH",
"416 359 LINE SMOOTH",
"399 359 OFFCURVE",
"389 349 OFFCURVE",
"389 335 CURVE SMOOTH",
"389 322 OFFCURVE",
"399 311 OFFCURVE",
"416 311 CURVE SMOOTH",
"583 311 LINE",
"583 43 LINE",
"597 82 LINE",
"544 56 OFFCURVE",
"469 42 OFFCURVE",
"393 42 CURVE SMOOTH",
"218 42 OFFCURVE",
"123 151 OFFCURVE",
"123 353 CURVE SMOOTH",
"123 551 OFFCURVE",
"218 664 OFFCURVE",
"386 664 CURVE SMOOTH",
"465 664 OFFCURVE",
"517 644 OFFCURVE",
"591 583 CURVE SMOOTH",
"601 575 OFFCURVE",
"606 574 OFFCURVE",
"611 574 CURVE SMOOTH",
"622 574 OFFCURVE",
"630 585 OFFCURVE",
"630 598 CURVE SMOOTH",
"630 607 OFFCURVE",
"626 616 OFFCURVE",
"618 625 CURVE SMOOTH",
"565 681 OFFCURVE",
"479 713 OFFCURVE",
"386 713 CURVE SMOOTH",
"187 713 OFFCURVE",
"65 577 OFFCURVE",
"65 353 CURVE SMOOTH",
"65 125 OFFCURVE",
"187 -8 OFFCURVE",
"393 -8 CURVE SMOOTH"
);
}
);
};
layerId = "9E718F8A-2CEA-4931-B05D-987794BD97DA";
paths = (
{
closed = 1;
nodes = (
"484 -8 OFFCURVE",
"582 12 OFFCURVE",
"633 40 CURVE",
"633 359 LINE",
"394 359 LINE",
"394 311 LINE",
"583 311 LINE",
"583 41 LINE",
"597 80 LINE",
"544 56 OFFCURVE",
"469 41 OFFCURVE",
"393 41 CURVE SMOOTH",
"218 41 OFFCURVE",
"122 151 OFFCURVE",
"122 353 CURVE SMOOTH",
"122 551 OFFCURVE",
"218 663 OFFCURVE",
"386 663 CURVE SMOOTH",
"470 663 OFFCURVE",
"534 639 OFFCURVE",
"603 576 CURVE",
"627 620 LINE",
"566 682 OFFCURVE",
"484 713 OFFCURVE",
"388 713 CURVE SMOOTH",
"188 713 OFFCURVE",
"65 580 OFFCURVE",
"65 353 CURVE SMOOTH",
"65 126 OFFCURVE",
"187 -8 OFFCURVE",
"393 -8 CURVE SMOOTH"
);
}
);
width = 718;
}
);
leftKerningGroup = O;
rightKerningGroup = G;
unicode = 0047;
userData = {
anchors = (
);
b = {
};
com.typemytype.robofont.layerData = {
b = {
anchors = (
);
components = (
);
contours = (
{
points = (
{
segmentType = curve;
smooth = 1;
x = 783;
y = "-22";
},
{
smooth = 0;
x = 965;
y = "-22";
},
{
smooth = 0;
x = 1086;
y = 34;
},
{
segmentType = curve;
smooth = 1;
x = 1166;
y = 86;
},
{
smooth = 0;
x = 1270;
y = 154;
},
{
smooth = 0;
x = 1186;
y = 258;
},
{
segmentType = curve;
smooth = 1;
x = 1112;
y = 214;
},
{
smooth = 0;
x = 1024;
y = 162;
},
{
smooth = 0;
x = 939;
y = 120;
},
{
segmentType = curve;
smooth = 1;
x = 806;
y = 120;
},
{
smooth = 0;
x = 446;
y = 120;
},
{
smooth = 0;
x = 316;
y = 406;
},
{
segmentType = curve;
smooth = 1;
x = 316;
y = 706;
},
{
smooth = 0;
x = 316;
y = 1005;
},
{
smooth = 0;
x = 450;
y = 1296;
},
{
segmentType = curve;
smooth = 1;
x = 801;
y = 1296;
},
{
smooth = 0;
x = 980;
y = 1296;
},
{
smooth = 0;
x = 1053;
y = 1246;
},
{
segmentType = curve;
smooth = 1;
x = 1094;
y = 1225;
},
{
smooth = 0;
x = 1174;
y = 1184;
},
{
smooth = 0;
x = 1231;
y = 1300;
},
{
segmentType = curve;
smooth = 1;
x = 1156;
y = 1343;
},
{
smooth = 0;
x = 1106;
y = 1372;
},
{
smooth = 0;
x = 995;
y = 1438;
},
{
segmentType = curve;
smooth = 1;
x = 797;
y = 1438;
},
{
smooth = 0;
x = 359;
y = 1438;
},
{
smooth = 0;
x = 128;
y = 1093;
},
{
segmentType = curve;
smooth = 1;
x = 128;
y = 704;
},
{
smooth = 0;
x = 128;
y = 307;
},
{
smooth = 0;
x = 350;
y = "-22";
}
);
}
);
lib = {
};
name = G;
unicodes = (
);
width = 1448;
};
};
components = (
);
contours = (
);
lib = {
};
name = G;
unicodes = (
);
width = 1538;
};
},
{
glyphname = H;
lastChange = "2017-11-14 17:21:06 +0000";
layers = (
{
anchors = (
{
name = bottom;
position = "{377, 0}";
},
{
name = center;
position = "{377, 358}";
},
{
name = top;
position = "{376, 705}";
},
{
name = topleft;
position = "{26, 705}";
}
);
background = {
paths = (
{
closed = 1;
nodes = (
"650 -5 OFFCURVE",
"660 7 OFFCURVE",
"660 24 CURVE SMOOTH",
"660 681 LINE SMOOTH",
"660 698 OFFCURVE",
"650 710 OFFCURVE",
"633 710 CURVE SMOOTH",
"616 710 OFFCURVE",
"606 698 OFFCURVE",
"606 681 CURVE SMOOTH",
"606 24 LINE SMOOTH",
"606 7 OFFCURVE",
"616 -5 OFFCURVE",
"633 -5 CURVE SMOOTH"
);
},
{
closed = 1;
nodes = (
"137 -5 OFFCURVE",
"147 7 OFFCURVE",
"147 24 CURVE SMOOTH",
"147 681 LINE SMOOTH",
"147 698 OFFCURVE",
"137 710 OFFCURVE",
"120 710 CURVE SMOOTH",
"103 710 OFFCURVE",
"93 698 OFFCURVE",
"93 681 CURVE SMOOTH",
"93 24 LINE SMOOTH",
"93 7 OFFCURVE",
"103 -5 OFFCURVE",
"120 -5 CURVE SMOOTH"
);
},
{
closed = 1;
nodes = (
"615 334 LINE",
"615 382 LINE",
"127 382 LINE",
"127 334 LINE"
);
}
);
};
layerId = "9E718F8A-2CEA-4931-B05D-987794BD97DA";
paths = (
{
closed = 1;
nodes = (
"660 0 LINE",
"660 705 LINE",
"606 705 LINE",
"606 0 LINE"
);
},
{
closed = 1;
nodes = (
"147 0 LINE",
"147 705 LINE",
"93 705 LINE",
"93 0 LINE"
);
},
{
closed = 1;
nodes = (
"635 334 LINE",
"635 382 LINE",
"127 382 LINE",
"127 334 LINE"
);
}
);
width = 753;
}
);
leftKerningGroup = H;
rightKerningGroup = H;
unicode = 0048;
userData = {
anchors = (
);
b = {
};
com.typemytype.robofont.layerData = {
b = {
anchors = (
);
components = (
);
contours = (
);
lib = {
};
name = H;
unicodes = (
);
width = 1464;
};
};
components = (
);
contours = (
);
lib = {
};
name = H;
unicodes = (
);
width = 1524;
};
},
{
glyphname = Hbar;
lastChange = "2017-11-14 17:21:06 +0000";
layers = (
{
background = {
paths = (
{
closed = 1;
nodes = (
"657 -5 OFFCURVE",
"667 7 OFFCURVE",
"667 24 CURVE SMOOTH",
"667 681 LINE SMOOTH",
"667 698 OFFCURVE",
"657 710 OFFCURVE",
"640 710 CURVE SMOOTH",
"623 710 OFFCURVE",
"613 698 OFFCURVE",
"613 681 CURVE SMOOTH",
"613 24 LINE SMOOTH",
"613 7 OFFCURVE",
"623 -5 OFFCURVE",
"640 -5 CURVE SMOOTH"
);
},
{
closed = 1;
nodes = (
"144 -5 OFFCURVE",
"154 7 OFFCURVE",
"154 24 CURVE SMOOTH",
"154 681 LINE SMOOTH",
"154 698 OFFCURVE",
"144 710 OFFCURVE",
"127 710 CURVE SMOOTH",
"110 710 OFFCURVE",
"100 698 OFFCURVE",
"100 681 CURVE SMOOTH",
"100 24 LINE SMOOTH",
"100 7 OFFCURVE",
"110 -5 OFFCURVE",
"127 -5 CURVE SMOOTH"
);
},
{
closed = 1;
nodes = (
"622 334 LINE",
"622 382 LINE",
"134 382 LINE",
"134 334 LINE"
);
},
{
closed = 1;
nodes = (
"744 525 LINE SMOOTH",
"758 525 OFFCURVE",
"767 533 OFFCURVE",
"767 548 CURVE SMOOTH",
"767 563 OFFCURVE",
"758 571 OFFCURVE",
"744 571 CURVE SMOOTH",
"25 571 LINE SMOOTH",
"11 571 OFFCURVE",
"0 563 OFFCURVE",
"0 548 CURVE SMOOTH",
"0 533 OFFCURVE",
"11 525 OFFCURVE",
"25 525 CURVE SMOOTH"
);
}
);
};
layerId = "9E718F8A-2CEA-4931-B05D-987794BD97DA";
paths = (
{
closed = 1;
nodes = (
"762 525 LINE",
"762 571 LINE",
"5 571 LINE",
"5 525 LINE"
);
},
{
closed = 1;
nodes = (
"667 0 LINE",
"667 705 LINE",
"613 705 LINE",
"613 0 LINE"
);
},
{
closed = 1;
nodes = (
"154 0 LINE",
"154 705 LINE",
"100 705 LINE",
"100 0 LINE"
);
},
{
closed = 1;
nodes = (
"623 334 LINE",
"623 382 LINE",
"135 382 LINE",
"135 334 LINE"
);
}
);
width = 767;
}
);
leftKerningGroup = H;
rightKerningGroup = H;
unicode = 0126;
userData = {
com.typemytype.robofont.layerData = {
b = {
anchors = (
);
components = (
);
contours = (
);
lib = {
};
name = Hbar;
unicodes = (
);
width = 1464;
};
};
};
},
{
glyphname = I;
lastChange = "2017-11-14 17:21:06 +0000";
layers = (
{
anchors = (
{
name = bottom;
position = "{120, 0}";
},
{
name = ogonek;
position = "{144, 10}";
},
{
name = top;
position = "{120, 705}";
},
{
name = topleft;
position = "{26, 705}";
}
);
background = {
anchors = (
{
name = bottom;
position = "{120, 0}";
},
{
name = ogonek;
position = "{144, 10}";
},
{
name = top;
position = "{120, 705}";
},
{
name = topleft;
position = "{26, 705}";
}
);
paths = (
{
closed = 1;
nodes = (
"137 -5 OFFCURVE",
"147 7 OFFCURVE",
"147 24 CURVE SMOOTH",
"147 681 LINE SMOOTH",
"147 698 OFFCURVE",
"137 710 OFFCURVE",
"120 710 CURVE SMOOTH",
"103 710 OFFCURVE",
"93 698 OFFCURVE",
"93 681 CURVE SMOOTH",
"93 24 LINE SMOOTH",
"93 7 OFFCURVE",
"103 -5 OFFCURVE",
"120 -5 CURVE SMOOTH"
);
}
);
};
layerId = "9E718F8A-2CEA-4931-B05D-987794BD97DA";
paths = (
{
closed = 1;
nodes = (
"147 0 LINE",
"147 705 LINE",
"93 705 LINE",
"93 0 LINE"
);
}
);
width = 240;
}
);
leftKerningGroup = H;
rightKerningGroup = H;
unicode = 0049;
userData = {
anchors = (
);
b = {
};
com.typemytype.robofont.layerData = {
b = {
anchors = (
);
components = (
);
contours = (
);
lib = {
};
name = I;
unicodes = (
);
width = 592;
};
};
components = (
);
contours = (
);
lib = {
};
name = I;
unicodes = (
);
width = 637;
};
},
{
glyphname = Iogonek;
lastChange = "2017-11-14 17:21:06 +0000";
layers = (
{
background = {
paths = (
{
closed = 1;
nodes = (
"139 -191 OFFCURVE",
"162 -186 OFFCURVE",
"183 -174 CURVE SMOOTH",
"207 -160 OFFCURVE",
"198 -119 OFFCURVE",
"167 -135 CURVE SMOOTH",
"149 -144 OFFCURVE",
"131 -148 OFFCURVE",
"119 -148 CURVE SMOOTH",
"79 -148 OFFCURVE",
"51 -125 OFFCURVE",
"51 -82 CURVE SMOOTH",
"51 -41 OFFCURVE",
"77 -10 OFFCURVE",
"127 -2 CURVE SMOOTH",
"139 0 OFFCURVE",
"147 10 OFFCURVE",
"147 24 CURVE",
"147 681 LINE",
"147 698 OFFCURVE",
"137 710 OFFCURVE",
"120 710 CURVE SMOOTH",
"103 710 OFFCURVE",
"93 698 OFFCURVE",
"93 681 CURVE",
"93 24 LINE",
"93 12 OFFCURVE",
"99 5 OFFCURVE",
"103 2 CURVE",
"130 38 LINE",
"46 24 OFFCURVE",
"1 -27 OFFCURVE",
"1 -88 CURVE SMOOTH",
"1 -148 OFFCURVE",
"46 -191 OFFCURVE",
"114 -191 CURVE SMOOTH"
);
}
);
};
layerId = "9E718F8A-2CEA-4931-B05D-987794BD97DA";
paths = (
{
closed = 1;
nodes = (
"147 -191 OFFCURVE",
"175 -181 OFFCURVE",
"194 -168 CURVE",
"178 -130 LINE",
"157 -142 OFFCURVE",
"135 -148 OFFCURVE",
"119 -148 CURVE SMOOTH",
"79 -148 OFFCURVE",
"51 -125 OFFCURVE",
"51 -82 CURVE SMOOTH",
"51 -38 OFFCURVE",
"84 0 OFFCURVE",
"143 0 CURVE SMOOTH",
"147 0 LINE",
"147 705 LINE",
"93 705 LINE",
"93 0 LINE",
"110 0 LINE",
"130 38 LINE",
"46 24 OFFCURVE",
"1 -27 OFFCURVE",
"1 -88 CURVE SMOOTH",
"1 -148 OFFCURVE",
"46 -191 OFFCURVE",
"114 -191 CURVE SMOOTH"
);
}
);
width = 240;
}
);
leftKerningGroup = H;
rightKerningGroup = H;
unicode = 012E;
},
{
glyphname = J;
lastChange = "2017-11-14 17:21:06 +0000";
layers = (
{
anchors = (
{
name = bottom;
position = "{186, 0}";
},
{
name = top;
position = "{186, 705}";
}
);
background = {
anchors = (
{
name = bottom;
position = "{186, 0}";
},
{
name = top;
position = "{186, 705}";
}
);
paths = (
{
closed = 1;
nodes = (
"55 -3 LINE SMOOTH",
"160 4 OFFCURVE",
"213 58 OFFCURVE",
"213 180 CURVE SMOOTH",
"213 681 LINE SMOOTH",
"213 698 OFFCURVE",
"204 710 OFFCURVE",
"186 710 CURVE SMOOTH",
"172 710 OFFCURVE",
"159 698 OFFCURVE",
"159 681 CURVE SMOOTH",
"159 182 LINE SMOOTH",
"159 83 OFFCURVE",
"121 49 OFFCURVE",
"47 44 CURVE SMOOTH",
"18 42 LINE SMOOTH",
"-1 41 OFFCURVE",
"-9 31 OFFCURVE",
"-9 18 CURVE SMOOTH",
"-9 4 OFFCURVE",
"2 -7 OFFCURVE",
"25 -5 CURVE SMOOTH"
);
}
);
};
layerId = "9E718F8A-2CEA-4931-B05D-987794BD97DA";
paths = (
{
closed = 1;
nodes = (
"50 -2 LINE SMOOTH",
"155 5 OFFCURVE",
"213 70 OFFCURVE",
"213 180 CURVE SMOOTH",
"213 705 LINE",
"159 705 LINE",
"159 182 LINE SMOOTH",
"159 102 OFFCURVE",
"117 51 OFFCURVE",
"44 45 CURVE SMOOTH",
"-9 41 LINE",
"-5 -6 LINE"
);
}
);
width = 306;
}
);
leftKerningGroup = J;
rightKerningGroup = J;
unicode = 004A;
userData = {
anchors = (
);
b = {
};
com.typemytype.robofont.layerData = {
b = {
anchors = (
);
components = (
);
contours = (
);
lib = {
};
name = J;
unicodes = (
);
width = 1003;
};
};
components = (
);
contours = (
);
lib = {
};
name = J;
unicodes = (
);
width = 1126;
};
},
{
glyphname = K;
lastChange = "2017-11-14 17:21:06 +0000";
layers = (
{
anchors = (
{
name = bottom;
position = "{306, 0}";
},
{
name = top;
position = "{305, 705}";
}
);
background = {
anchors = (
{
name = bottom;
position = "{306, 0}";
},
{
name = top;
position = "{305, 705}";
}
);
paths = (
{
closed = 1;
nodes = (
"570 -19 OFFCURVE",
"604 17 OFFCURVE",
"576 41 CURVE SMOOTH",
"177 379 LINE",
"177 339 LINE",
"557 665 LINE SMOOTH",
"583 688 OFFCURVE",
"550 724 OFFCURVE",
"525 702 CURVE SMOOTH",
"125 357 LINE",
"546 2 LINE SMOOTH"
);
},
{
closed = 1;
nodes = (
"137 -5 OFFCURVE",
"147 7 OFFCURVE",
"147 24 CURVE SMOOTH",
"147 681 LINE SMOOTH",
"147 698 OFFCURVE",
"137 710 OFFCURVE",
"120 710 CURVE SMOOTH",
"103 710 OFFCURVE",
"93 698 OFFCURVE",
"93 681 CURVE SMOOTH",
"93 24 LINE SMOOTH",
"93 7 OFFCURVE",
"103 -5 OFFCURVE",
"120 -5 CURVE SMOOTH"
);
}
);
};
layerId = "9E718F8A-2CEA-4931-B05D-987794BD97DA";
paths = (
{
closed = 1;
nodes = (
"607 0 LINE",
"179 379 LINE",
"177 339 LINE",
"585 705 LINE",
"512 705 LINE",
"125 357 LINE",
"532 0 LINE"
);
},
{
closed = 1;
nodes = (
"147 0 LINE",
"147 705 LINE",
"93 705 LINE",
"93 0 LINE"
);
}
);
width = 608;
}
);
leftKerningGroup = H;
rightKerningGroup = K;
unicode = 004B;
userData = {
anchors = (
);
b = {
};
com.typemytype.robofont.layerData = {
b = {
anchors = (
);
components = (
);
contours = (
);
lib = {
};
name = K;
unicodes = (
);
width = 1210;
};
};
components = (
);
contours = (
);
lib = {
};
name = K;
unicodes = (
);
width = 1329;
};
},
{
glyphname = L;
lastChange = "2017-11-14 17:21:06 +0000";
layers = (
{
anchors = (
{
name = bottom;
position = "{307, 0}";
},
{
name = center;
position = "{334, 353}";
},
{
name = top;
position = "{120, 705}";
},
{
name = topright;
position = "{237, 705}";
}
);
background = {
anchors = (
{
name = bottom;
position = "{307, 0}";
},
{
name = center;
position = "{334, 353}";
},
{
name = top;
position = "{120, 705}";
},
{
name = topright;
position = "{237, 705}";
}
);
paths = (
{
closed = 1;
nodes = (
"496 0 LINE SMOOTH",
"510 0 OFFCURVE",
"520 9 OFFCURVE",
"520 24 CURVE SMOOTH",
"520 39 OFFCURVE",
"510 48 OFFCURVE",
"496 48 CURVE SMOOTH",
"147 48 LINE",
"147 681 LINE SMOOTH",
"147 698 OFFCURVE",
"138 710 OFFCURVE",
"120 710 CURVE SMOOTH",
"103 710 OFFCURVE",
"93 698 OFFCURVE",
"93 681 CURVE SMOOTH",
"93 25 LINE SMOOTH",
"93 11 OFFCURVE",
"107 0 OFFCURVE",
"121 0 CURVE SMOOTH"
);
}
);
};
layerId = "9E718F8A-2CEA-4931-B05D-987794BD97DA";
paths = (
{
closed = 1;
nodes = (
"515 0 LINE",
"515 48 LINE",
"147 48 LINE",
"147 705 LINE",
"93 705 LINE",
"93 0 LINE"
);
}
);
width = 531;
}
);
leftKerningGroup = H;
rightKerningGroup = L;
unicode = 004C;
userData = {
anchors = (
);
b = {
};
com.typemytype.robofont.layerData = {
b = {
anchors = (
);
components = (
);
contours = (
{
points = (
{
segmentType = curve;
smooth = 1;
x = 266;
y = 0;
},
{
segmentType = line;
smooth = 1;
x = 1035;
y = 0;
},
{
smooth = 0;
x = 1084;
y = 0;
},
{
smooth = 0;
x = 1108;
y = 34;
},
{
segmentType = curve;
smooth = 1;
x = 1108;
y = 71;
},
{
smooth = 0;
x = 1108;
y = 107;
},
{
smooth = 0;
x = 1084;
y = 141;
},
{
segmentType = curve;
smooth = 1;
x = 1035;
y = 141;
},
{
segmentType = line;
smooth = 0;
x = 356;
y = 141;
},
{
segmentType = line;
smooth = 0;
x = 356;
y = 665;
},
{
segmentType = line;
smooth = 1;
x = 975;
y = 665;
},
{
smooth = 0;
x = 1024;
y = 665;
},
{
smooth = 0;
x = 1049;
y = 698;
},
{
segmentType = curve;
smooth = 1;
x = 1049;
y = 734;
},
{
smooth = 0;
x = 1049;
y = 770;
},
{
smooth = 0;
x = 1026;
y = 803;
},
{
segmentType = curve;
smooth = 1;
x = 975;
y = 803;
},
{
segmentType = line;
smooth = 0;
x = 356;
y = 803;
},
{
segmentType = line;
smooth = 0;
x = 356;
y = 1285;
},
{
segmentType = line;
smooth = 1;
x = 1007;
y = 1285;
},
{
smooth = 0;
x = 1056;
y = 1285;
},
{
smooth = 0;
x = 1080;
y = 1319;
},
{
segmentType = curve;
smooth = 1;
x = 1080;
y = 1356;
},
{
smooth = 0;
x = 1080;
y = 1392;
},
{
smooth = 0;
x = 1056;
y = 1426;
},
{
segmentType = curve;
smooth = 1;
x = 1007;
y = 1426;
},
{
segmentType = line;
smooth = 1;
x = 261;
y = 1426;
},
{
smooth = 0;
x = 213;
y = 1426;
},
{
smooth = 0;
x = 178;
y = 1383;
},
{
segmentType = curve;
smooth = 1;
x = 178;
y = 1340;
},
{
segmentType = line;
smooth = 1;
x = 178;
y = 86;
},
{
smooth = 0;
x = 178;
y = 41;
},
{
smooth = 0;
x = 222;
y = 0;
}
);
}
);
lib = {
};
name = L;
unicodes = (
);
width = 1095;
};
};
components = (
);
contours = (
);
lib = {
};
name = L;
unicodes = (
);
width = 1169;
};
},
{
glyphname = LJ;
lastChange = "2017-11-14 17:21:06 +0000";
layers = (
{
background = {
paths = (
{
closed = 1;
nodes = (
"466 0 LINE SMOOTH",
"480 0 OFFCURVE",
"490 9 OFFCURVE",
"490 24 CURVE SMOOTH",
"490 39 OFFCURVE",
"480 48 OFFCURVE",
"466 48 CURVE SMOOTH",
"147 48 LINE",
"147 681 LINE SMOOTH",
"147 698 OFFCURVE",
"138 710 OFFCURVE",
"120 710 CURVE SMOOTH",
"103 710 OFFCURVE",
"93 698 OFFCURVE",
"93 681 CURVE SMOOTH",
"93 25 LINE SMOOTH",
"93 11 OFFCURVE",
"107 0 OFFCURVE",
"121 0 CURVE SMOOTH"
);
},
{
closed = 1;
nodes = (
"584 -3 LINE SMOOTH",
"689 4 OFFCURVE",
"742 58 OFFCURVE",
"742 180 CURVE SMOOTH",
"742 681 LINE SMOOTH",
"742 698 OFFCURVE",
"733 710 OFFCURVE",
"715 710 CURVE SMOOTH",
"701 710 OFFCURVE",
"688 698 OFFCURVE",
"688 681 CURVE SMOOTH",
"688 182 LINE SMOOTH",
"688 83 OFFCURVE",
"650 49 OFFCURVE",
"576 44 CURVE SMOOTH",
"547 42 LINE SMOOTH",
"528 41 OFFCURVE",
"520 30 OFFCURVE",
"520 18 CURVE SMOOTH",
"520 4 OFFCURVE",
"531 -7 OFFCURVE",
"554 -5 CURVE SMOOTH"
);
}
);
};
layerId = "9E718F8A-2CEA-4931-B05D-987794BD97DA";
paths = (
{
closed = 1;
nodes = (
"485 0 LINE",
"485 48 LINE",
"147 48 LINE",
"147 705 LINE",
"93 705 LINE",
"93 0 LINE"
);
},
{
closed = 1;
nodes = (
"579 -2 LINE SMOOTH",
"687 5 OFFCURVE",
"742 64 OFFCURVE",
"742 171 CURVE SMOOTH",
"742 705 LINE",
"688 705 LINE",
"688 167 LINE SMOOTH",
"688 91 OFFCURVE",
"650 51 OFFCURVE",
"573 45 CURVE SMOOTH",
"520 41 LINE",
"524 -6 LINE"
);
}
);
width = 835;
}
);
leftKerningGroup = H;
rightKerningGroup = J;
unicode = 01C7;
},
{
glyphname = Lslash;
lastChange = "2017-11-14 17:21:06 +0000";
layers = (
{
background = {
paths = (
{
closed = 1;
nodes = (
"503 0 LINE SMOOTH",
"517 0 OFFCURVE",
"527 9 OFFCURVE",
"527 24 CURVE SMOOTH",
"527 39 OFFCURVE",
"517 48 OFFCURVE",
"503 48 CURVE SMOOTH",
"154 48 LINE",
"154 681 LINE SMOOTH",
"154 698 OFFCURVE",
"145 710 OFFCURVE",
"127 710 CURVE SMOOTH",
"110 710 OFFCURVE",
"100 698 OFFCURVE",
"100 681 CURVE SMOOTH",
"100 25 LINE SMOOTH",
"100 11 OFFCURVE",
"114 0 OFFCURVE",
"128 0 CURVE SMOOTH"
);
},
{
closed = 1;
nodes = (
"338 452 LINE SMOOTH",
"365 468 OFFCURVE",
"341 507 OFFCURVE",
"314 492 CURVE SMOOTH",
"13 319 LINE SMOOTH",
"-16 302 OFFCURVE",
"7 261 OFFCURVE",
"37 278 CURVE SMOOTH"
);
}
);
};
guideLines = (
{
position = "{384, 358}";
},
{
angle = 90;
position = "{0, 125}";
},
{
angle = 90;
position = "{254, 125}";
},
{
angle = 90;
position = "{354, 125}";
}
);
layerId = "9E718F8A-2CEA-4931-B05D-987794BD97DA";
paths = (
{
closed = 1;
nodes = (
"355 461 LINE",
"331 502 LINE",
"-4 309 LINE",
"20 268 LINE"
);
},
{
closed = 1;
nodes = (
"522 0 LINE",
"522 48 LINE",
"154 48 LINE",
"154 705 LINE",
"100 705 LINE",
"100 0 LINE"
);
}
);
width = 538;
}
);
leftKerningGroup = L;
rightKerningGroup = L;
unicode = 0141;
},
{
glyphname = M;
lastChange = "2017-11-14 17:21:06 +0000";
layers = (
{
anchors = (
{
name = bottom;
position = "{420, 0}";
},
{
name = top;
position = "{420, 705}";
}
);
background = {
anchors = (
{
name = bottom;
position = "{420, 0}";
},
{
name = top;
position = "{420, 705}";
}
);
paths = (
{
closed = 1;
nodes = (
"137 -5 OFFCURVE",
"144 7 OFFCURVE",
"144 24 CURVE SMOOTH",
"144 646 LINE",
"116 644 LINE",
"391 122 LINE SMOOTH",
"398 108 OFFCURVE",
"408 101 OFFCURVE",
"421 101 CURVE SMOOTH",
"433 101 OFFCURVE",
"444 108 OFFCURVE",
"451 122 CURVE SMOOTH",
"721 643 LINE",
"696 646 LINE",
"696 24 LINE SMOOTH",
"696 7 OFFCURVE",
"703 -5 OFFCURVE",
"720 -5 CURVE SMOOTH",
"738 -5 OFFCURVE",
"747 7 OFFCURVE",
"747 24 CURVE SMOOTH",
"747 681 LINE SMOOTH",
"747 698 OFFCURVE",
"737 710 OFFCURVE",
"719 710 CURVE SMOOTH",
"708 710 OFFCURVE",
"700 705 OFFCURVE",
"692 689 CURVE SMOOTH",
"409 139 LINE",
"435 139 LINE",
"148 689 LINE SMOOTH",
"140 705 OFFCURVE",
"132 710 OFFCURVE",
"121 710 CURVE SMOOTH",
"103 710 OFFCURVE",
"93 698 OFFCURVE",
"93 681 CURVE SMOOTH",
"93 24 LINE SMOOTH",
"93 7 OFFCURVE",
"101 -5 OFFCURVE",
"119 -5 CURVE SMOOTH"
);
}
);
};
layerId = "9E718F8A-2CEA-4931-B05D-987794BD97DA";
paths = (
{
closed = 1;
nodes = (
"145 0 LINE",
"144 646 LINE",
"116 644 LINE",
"400 111 LINE",
"442 111 LINE",
"721 643 LINE",
"696 646 LINE",
"695 0 LINE",
"747 0 LINE",
"747 705 LINE",
"701 705 LINE",
"409 139 LINE",
"435 139 LINE",
"139 705 LINE",
"93 705 LINE",
"93 0 LINE"
);
}
);
width = 840;
}
);
leftKerningGroup = H;
rightKerningGroup = H;
unicode = 004D;
userData = {
anchors = (
);
b = {
};
com.typemytype.robofont.layerData = {
b = {
anchors = (
);
components = (
);
contours = (
);
lib = {
};
name = M;
unicodes = (
);
width = 1899;
};
};
components = (
);
contours = (
);
lib = {
};
name = M;
unicodes = (
);
width = 1984;
};
},
{
glyphname = N;
lastChange = "2017-11-14 17:21:06 +0000";
layers = (
{
anchors = (
{
name = bottom;
position = "{367, 0}";
},
{
name = top;
position = "{367, 705}";
}
);
background = {
anchors = (
{
name = bottom;
position = "{367, 0}";
},
{
name = top;
position = "{367, 705}";
}
);
paths = (
{
closed = 1;
nodes = (
"134 -5 OFFCURVE",
"144 7 OFFCURVE",
"144 24 CURVE SMOOTH",
"144 644 LINE",
"122 643 LINE",
"590 9 LINE SMOOTH",
"597 0 OFFCURVE",
"603 -5 OFFCURVE",
"614 -5 CURVE SMOOTH",
"631 -5 OFFCURVE",
"641 7 OFFCURVE",
"641 24 CURVE SMOOTH",
"641 681 LINE SMOOTH",
"641 698 OFFCURVE",
"633 710 OFFCURVE",
"616 710 CURVE SMOOTH",
"600 710 OFFCURVE",
"590 698 OFFCURVE",
"590 681 CURVE SMOOTH",
"590 61 LINE",
"613 62 LINE",
"145 696 LINE SMOOTH",
"138 705 OFFCURVE",
"132 710 OFFCURVE",
"121 710 CURVE SMOOTH",
"103 710 OFFCURVE",
"93 698 OFFCURVE",
"93 681 CURVE SMOOTH",
"93 24 LINE SMOOTH",
"93 7 OFFCURVE",
"100 -5 OFFCURVE",
"118 -5 CURVE SMOOTH"
);
}
);
};
layerId = "9E718F8A-2CEA-4931-B05D-987794BD97DA";
paths = (
{
closed = 1;
nodes = (
"144 0 LINE",
"144 644 LINE",
"122 643 LINE",
"598 0 LINE",
"641 0 LINE",
"641 705 LINE",
"590 705 LINE",
"590 61 LINE",
"613 62 LINE",
"137 705 LINE",
"93 705 LINE",
"93 0 LINE"
);
}
);
width = 734;
}
);
leftKerningGroup = H;
rightKerningGroup = H;
unicode = 004E;
userData = {
anchors = (
);
b = {
};
com.typemytype.robofont.layerData = {
b = {
anchors = (
);
components = (
);
contours = (
);
lib = {
};
name = N;
unicodes = (
);
width = 1499;
};
};
components = (
);
contours = (
);
lib = {
};
name = N;
unicodes = (
);
width = 1557;
};
},
{
glyphname = Eng;
lastChange = "2017-11-14 17:21:06 +0000";
layers = (
{
background = {
paths = (
{
closed = 1;
nodes = (
"483 -183 LINE SMOOTH",
"588 -176 OFFCURVE",
"641 -122 OFFCURVE",
"641 0 CURVE SMOOTH",
"641 681 LINE SMOOTH",
"641 698 OFFCURVE",
"633 710 OFFCURVE",
"616 710 CURVE SMOOTH",
"600 710 OFFCURVE",
"590 698 OFFCURVE",
"590 681 CURVE SMOOTH",
"590 61 LINE",
"613 62 LINE",
"145 696 LINE SMOOTH",
"139 705 OFFCURVE",
"132 710 OFFCURVE",
"121 710 CURVE SMOOTH",
"103 710 OFFCURVE",
"93 698 OFFCURVE",
"93 681 CURVE SMOOTH",
"93 24 LINE SMOOTH",
"93 7 OFFCURVE",
"100 -5 OFFCURVE",
"118 -5 CURVE SMOOTH",
"134 -5 OFFCURVE",
"144 7 OFFCURVE",
"144 24 CURVE SMOOTH",
"144 644 LINE",
"122 643 LINE",
"615 -24 LINE",
"590 37 LINE",
"590 2 LINE SMOOTH",
"590 -97 OFFCURVE",
"549 -131 OFFCURVE",
"475 -136 CURVE SMOOTH",
"446 -138 LINE SMOOTH",
"427 -139 OFFCURVE",
"419 -150 OFFCURVE",
"419 -162 CURVE SMOOTH",
"419 -176 OFFCURVE",
"430 -187 OFFCURVE",
"453 -185 CURVE SMOOTH"
);
}
);
};
layerId = "9E718F8A-2CEA-4931-B05D-987794BD97DA";
paths = (
{
closed = 1;
nodes = (
"590 61 LINE",
"613 62 LINE",
"137 705 LINE",
"93 705 LINE",
"93 0 LINE",
"144 0 LINE",
"144 644 LINE",
"122 643 LINE",
"598 0 LINE",
"590 38 LINE",
"590 -13 LINE SMOOTH",
"590 -90 OFFCURVE",
"548 -129 OFFCURVE",
"472 -135 CURVE SMOOTH",
"419 -139 LINE",
"423 -186 LINE",
"478 -182 LINE SMOOTH",
"594 -174 OFFCURVE",
"641 -108 OFFCURVE",
"641 -9 CURVE SMOOTH",
"641 705 LINE",
"590 705 LINE"
);
}
);
width = 734;
}
);
leftKerningGroup = H;
rightKerningGroup = H;
unicode = 014A;
userData = {
com.typemytype.robofont.layerData = {
b = {
anchors = (
);
components = (
);
contours = (
);
lib = {
};
name = Eng;
unicodes = (
);
width = 1495;
};
};
};
},
{
glyphname = O;
lastChange = "2017-11-14 17:21:06 +0000";
layers = (
{
anchors = (
{
name = bottom;
position = "{377, 0}";
},
{
name = center;
position = "{378, 353}";
},
{
name = ogonek;
position = "{482, 10}";
},
{
name = top;
position = "{377, 705}";
},
{
name = topleft;
position = "{26, 705}";
},
{
name = topright;
position = "{407, 705}";
}
);
background = {
anchors = (
{
name = bottom;
position = "{377, 0}";
},
{
name = center;
position = "{378, 353}";
},
{
name = ogonek;
position = "{482, 10}";
},
{
name = top;
position = "{377, 705}";
},
{
name = topleft;
position = "{26, 705}";
},
{
name = topright;
position = "{407, 705}";
}
);
paths = (
{
closed = 1;
nodes = (
"570 -8 OFFCURVE",
"690 130 OFFCURVE",
"690 353 CURVE SMOOTH",
"690 576 OFFCURVE",
"571 713 OFFCURVE",
"377 713 CURVE SMOOTH",
"183 713 OFFCURVE",
"65 576 OFFCURVE",
"65 352 CURVE SMOOTH",
"65 130 OFFCURVE",
"185 -8 OFFCURVE",
"377 -8 CURVE SMOOTH"
);
},
{
closed = 1;
nodes = (
"216 42 OFFCURVE",
"122 156 OFFCURVE",
"122 353 CURVE SMOOTH",
"122 550 OFFCURVE",
"216 663 OFFCURVE",
"377 663 CURVE SMOOTH",
"540 663 OFFCURVE",
"633 551 OFFCURVE",
"633 353 CURVE SMOOTH",
"633 155 OFFCURVE",
"539 42 OFFCURVE",
"377 42 CURVE SMOOTH"
);
}
);
};
layerId = "9E718F8A-2CEA-4931-B05D-987794BD97DA";
paths = (
{
closed = 1;
nodes = (
"570 -8 OFFCURVE",
"690 130 OFFCURVE",
"690 353 CURVE SMOOTH",
"690 576 OFFCURVE",
"571 713 OFFCURVE",
"377 713 CURVE SMOOTH",
"183 713 OFFCURVE",
"65 576 OFFCURVE",
"65 352 CURVE SMOOTH",
"65 130 OFFCURVE",
"185 -8 OFFCURVE",
"377 -8 CURVE SMOOTH"
);
},
{
closed = 1;
nodes = (
"216 42 OFFCURVE",
"122 156 OFFCURVE",
"122 353 CURVE SMOOTH",
"122 550 OFFCURVE",
"216 663 OFFCURVE",
"377 663 CURVE SMOOTH",
"540 663 OFFCURVE",
"633 551 OFFCURVE",
"633 353 CURVE SMOOTH",
"633 155 OFFCURVE",
"539 42 OFFCURVE",
"377 42 CURVE SMOOTH"
);
}
);
width = 755;
}
);
leftKerningGroup = O;
rightKerningGroup = O;
unicode = 004F;
userData = {
anchors = (
);
b = {
};
com.typemytype.robofont.guides = (
);
com.typemytype.robofont.layerData = {
b = {
anchors = (
);
components = (
);
contours = (
);
lib = {
};
name = O;
unicodes = (
);
width = 1597;
};
};
components = (
);
contours = (
);
lib = {
};
name = O;
unicodes = (
);
width = 1604;
};
},
{
glyphname = Ohorn;
lastChange = "2017-11-14 17:21:06 +0000";
layers = (
{
anchors = (
{
name = bottom;
position = "{378, 0}";
},
{
name = top;
position = "{377, 705}";
}
);
background = {
anchors = (
{
name = bottom;
position = "{378, 0}";
},
{
name = top;
position = "{377, 705}";
}
);
paths = (
{
closed = 1;
nodes = (
"570 -8 OFFCURVE",
"690 130 OFFCURVE",
"690 353 CURVE SMOOTH",
"690 508 OFFCURVE",
"633 621 OFFCURVE",
"529 676 CURVE",
"535 663 LINE",
"633 663 OFFCURVE",
"690 717 OFFCURVE",
"690 808 CURVE SMOOTH",
"690 834 OFFCURVE",
"682 846 OFFCURVE",
"665 846 CURVE SMOOTH",
"649 846 OFFCURVE",
"640 834 OFFCURVE",
"639 813 CURVE SMOOTH",
"635 729 OFFCURVE",
"609 705 OFFCURVE",
"522 705 CURVE SMOOTH",
"482 705 OFFCURVE",
"430 713 OFFCURVE",
"381 713 CURVE SMOOTH",
"183 713 OFFCURVE",
"65 576 OFFCURVE",
"65 352 CURVE SMOOTH",
"65 130 OFFCURVE",
"185 -8 OFFCURVE",
"377 -8 CURVE SMOOTH"
);
},
{
closed = 1;
nodes = (
"216 42 OFFCURVE",
"122 156 OFFCURVE",
"122 353 CURVE SMOOTH",
"122 550 OFFCURVE",
"216 663 OFFCURVE",
"377 663 CURVE SMOOTH",
"540 663 OFFCURVE",
"633 551 OFFCURVE",
"633 353 CURVE SMOOTH",
"633 155 OFFCURVE",
"539 42 OFFCURVE",
"377 42 CURVE SMOOTH"
);
}
);
};
guideLines = (
{
angle = 90;
position = "{690, 464}";
}
);
layerId = "9E718F8A-2CEA-4931-B05D-987794BD97DA";
paths = (
{
closed = 1;
nodes = (
"569 -8 OFFCURVE",
"690 130 OFFCURVE",
"690 353 CURVE SMOOTH",
"690 508 OFFCURVE",
"633 621 OFFCURVE",
"529 676 CURVE",
"535 663 LINE",
"633 663 OFFCURVE",
"690 717 OFFCURVE",
"690 809 CURVE SMOOTH",
"690 831 LINE",
"640 831 LINE",
"640 818 LINE SMOOTH",
"640 737 OFFCURVE",
"608 706 OFFCURVE",
"522 705 CURVE SMOOTH",
"482 705 OFFCURVE",
"429 713 OFFCURVE",
"381 713 CURVE SMOOTH",
"183 713 OFFCURVE",
"65 576 OFFCURVE",
"65 352 CURVE SMOOTH",
"65 130 OFFCURVE",
"186 -8 OFFCURVE",
"377 -8 CURVE SMOOTH"
);
},
{
closed = 1;
nodes = (
"216 42 OFFCURVE",
"122 156 OFFCURVE",
"122 353 CURVE SMOOTH",
"122 550 OFFCURVE",
"216 663 OFFCURVE",
"377 663 CURVE SMOOTH",
"540 663 OFFCURVE",
"633 551 OFFCURVE",
"633 353 CURVE SMOOTH",
"633 155 OFFCURVE",
"539 42 OFFCURVE",
"377 42 CURVE SMOOTH"
);
}
);
width = 755;
}
);
leftKerningGroup = O;
rightKerningGroup = O;
unicode = 01A0;
},
{
glyphname = Oogonek;
lastChange = "2017-11-14 17:21:06 +0000";
layers = (
{
anchors = (
{
name = top;
position = "{377, 705}";
}
);
background = {
anchors = (
{
name = top;
position = "{377, 705}";
}
);
paths = (
{
closed = 1;
nodes = (
"478 -191 OFFCURVE",
"501 -185 OFFCURVE",
"522 -174 CURVE SMOOTH",
"549 -158 OFFCURVE",
"534 -121 OFFCURVE",
"506 -135 CURVE SMOOTH",
"490 -143 OFFCURVE",
"472 -148 OFFCURVE",
"458 -148 CURVE SMOOTH",
"416 -148 OFFCURVE",
"390 -123 OFFCURVE",
"390 -82 CURVE SMOOTH",
"390 -40 OFFCURVE",
"416 -11 OFFCURVE",
"470 4 CURVE SMOOTH",
"609 43 OFFCURVE",
"690 168 OFFCURVE",
"690 353 CURVE SMOOTH",
"690 576 OFFCURVE",
"571 713 OFFCURVE",
"377 713 CURVE SMOOTH",
"183 713 OFFCURVE",
"65 576 OFFCURVE",
"65 352 CURVE SMOOTH",
"65 119 OFFCURVE",
"198 -21 OFFCURVE",
"404 -7 CURVE",
"396 11 LINE",
"361 -11 OFFCURVE",
"340 -48 OFFCURVE",
"340 -88 CURVE SMOOTH",
"340 -149 OFFCURVE",
"386 -191 OFFCURVE",
"453 -191 CURVE SMOOTH"
);
},
{
closed = 1;
nodes = (
"216 42 OFFCURVE",
"122 156 OFFCURVE",
"122 353 CURVE SMOOTH",
"122 550 OFFCURVE",
"216 663 OFFCURVE",
"377 663 CURVE SMOOTH",
"540 663 OFFCURVE",
"633 551 OFFCURVE",
"633 353 CURVE SMOOTH",
"633 155 OFFCURVE",
"539 42 OFFCURVE",
"377 42 CURVE SMOOTH"
);
}
);
};
layerId = "9E718F8A-2CEA-4931-B05D-987794BD97DA";
paths = (
{
closed = 1;
nodes = (
"609 43 OFFCURVE",
"690 168 OFFCURVE",
"690 353 CURVE SMOOTH",
"690 576 OFFCURVE",
"570 713 OFFCURVE",
"377 713 CURVE SMOOTH",
"184 713 OFFCURVE",
"65 576 OFFCURVE",
"65 352 CURVE SMOOTH",
"65 119 OFFCURVE",
"198 -21 OFFCURVE",
"404 -7 CURVE",
"396 11 LINE",
"361 -11 OFFCURVE",
"340 -48 OFFCURVE",
"340 -88 CURVE SMOOTH",
"340 -149 OFFCURVE",
"386 -191 OFFCURVE",
"453 -191 CURVE SMOOTH",
"484 -191 OFFCURVE",
"512 -183 OFFCURVE",
"533 -168 CURVE",
"517 -130 LINE",
"496 -141 OFFCURVE",
"475 -148 OFFCURVE",
"458 -148 CURVE SMOOTH",
"416 -148 OFFCURVE",
"390 -123 OFFCURVE",
"390 -82 CURVE SMOOTH",
"390 -40 OFFCURVE",
"416 -11 OFFCURVE",
"466 3 CURVE SMOOTH"
);
},
{
closed = 1;
nodes = (
"122 550 OFFCURVE",
"216 663 OFFCURVE",
"377 663 CURVE SMOOTH",
"540 663 OFFCURVE",
"633 551 OFFCURVE",
"633 353 CURVE SMOOTH",
"633 155 OFFCURVE",
"539 42 OFFCURVE",
"377 42 CURVE SMOOTH",
"216 42 OFFCURVE",
"122 156 OFFCURVE",
"122 353 CURVE SMOOTH"
);
}
);
width = 755;
}
);
leftKerningGroup = O;
rightKerningGroup = O;
unicode = 01EA;
},
{
glyphname = Oslash;
lastChange = "2017-11-14 17:21:06 +0000";
layers = (
{
anchors = (
{
name = bottom;
position = "{377, 0}";
},
{
name = top;
position = "{377, 705}";
}
);
background = {
anchors = (
{
name = bottom;
position = "{377, 0}";
},
{
name = top;
position = "{377, 705}";
}
);
paths = (
{
closed = 1;
nodes = (
"570 -8 OFFCURVE",
"690 130 OFFCURVE",
"690 353 CURVE SMOOTH",
"690 576 OFFCURVE",
"571 713 OFFCURVE",
"377 713 CURVE SMOOTH",
"183 713 OFFCURVE",
"65 576 OFFCURVE",
"65 352 CURVE SMOOTH",
"65 130 OFFCURVE",
"185 -8 OFFCURVE",
"377 -8 CURVE SMOOTH"
);
},
{
closed = 1;
nodes = (
"609 703 LINE SMOOTH",
"625 730 OFFCURVE",
"585 753 OFFCURVE",
"569 726 CURVE SMOOTH",
"147 3 LINE SMOOTH",
"130 -27 OFFCURVE",
"171 -48 OFFCURVE",
"187 -20 CURVE SMOOTH"
);
},
{
closed = 1;
nodes = (
"216 42 OFFCURVE",
"122 156 OFFCURVE",
"122 353 CURVE SMOOTH",
"122 550 OFFCURVE",
"216 663 OFFCURVE",
"377 663 CURVE SMOOTH",
"540 663 OFFCURVE",
"633 551 OFFCURVE",
"633 353 CURVE SMOOTH",
"633 155 OFFCURVE",
"539 42 OFFCURVE",
"377 42 CURVE SMOOTH"
);
}
);
};
layerId = "9E718F8A-2CEA-4931-B05D-987794BD97DA";
paths = (
{
closed = 1;
nodes = (
"570 -8 OFFCURVE",
"690 130 OFFCURVE",
"690 353 CURVE SMOOTH",
"690 576 OFFCURVE",
"571 713 OFFCURVE",
"377 713 CURVE SMOOTH",
"183 713 OFFCURVE",
"65 576 OFFCURVE",
"65 352 CURVE SMOOTH",
"65 130 OFFCURVE",
"185 -8 OFFCURVE",
"377 -8 CURVE SMOOTH"
);
},
{
closed = 1;
nodes = (
"619 721 LINE",
"579 744 LINE",
"136 -16 LINE",
"176 -39 LINE"
);
},
{
closed = 1;
nodes = (
"216 42 OFFCURVE",
"122 156 OFFCURVE",
"122 353 CURVE SMOOTH",
"122 550 OFFCURVE",
"216 663 OFFCURVE",
"377 663 CURVE SMOOTH",
"540 663 OFFCURVE",
"633 551 OFFCURVE",
"633 353 CURVE SMOOTH",
"633 155 OFFCURVE",
"539 42 OFFCURVE",
"377 42 CURVE SMOOTH"
);
}
);
width = 755;
}
);
leftKerningGroup = O;
rightKerningGroup = O;
unicode = 00D8;
userData = {
com.typemytype.robofont.layerData = {
b = {
anchors = (
);
components = (
);
contours = (
);
lib = {
};
name = Oslash;
unicodes = (
);
width = 1597;
};
};
};
},
{
glyphname = OE;
lastChange = "2017-11-14 17:21:06 +0000";
layers = (
{
anchors = (
{
name = bottom;
position = "{532, 0}";
},
{
name = top;
position = "{531, 705}";
}
);
background = {
anchors = (
{
name = bottom;
position = "{532, 0}";
},
{
name = top;
position = "{531, 705}";
}
);
paths = (
{
closed = 1;
nodes = (
"973 0 LINE SMOOTH",
"987 0 OFFCURVE",
"997 9 OFFCURVE",
"997 24 CURVE SMOOTH",
"997 40 OFFCURVE",
"987 48 OFFCURVE",
"973 48 CURVE SMOOTH",
"614 48 LINE",
"614 334 LINE",
"953 334 LINE SMOOTH",
"967 334 OFFCURVE",
"977 343 OFFCURVE",
"977 358 CURVE SMOOTH",
"977 373 OFFCURVE",
"967 382 OFFCURVE",
"953 382 CURVE SMOOTH",
"614 382 LINE",
"614 657 LINE",
"973 657 LINE SMOOTH",
"987 657 OFFCURVE",
"997 665 OFFCURVE",
"997 681 CURVE SMOOTH",
"997 696 OFFCURVE",
"987 705 OFFCURVE",
"972 705 CURVE SMOOTH",
"412 705 LINE SMOOTH",
"191 705 OFFCURVE",
"65 581 OFFCURVE",
"65 353 CURVE SMOOTH",
"65 126 OFFCURVE",
"191 0 OFFCURVE",
"412 0 CURVE SMOOTH"
);
},
{
closed = 1;
nodes = (
"211 48 OFFCURVE",
"122 162 OFFCURVE",
"122 353 CURVE SMOOTH",
"122 545 OFFCURVE",
"211 657 OFFCURVE",
"415 657 CURVE SMOOTH",
"561 657 LINE",
"561 48 LINE",
"415 48 LINE SMOOTH"
);
}
);
};
layerId = "9E718F8A-2CEA-4931-B05D-987794BD97DA";
paths = (
{
closed = 1;
nodes = (
"992 0 LINE",
"992 48 LINE",
"614 48 LINE",
"614 334 LINE",
"972 334 LINE",
"972 382 LINE",
"614 382 LINE",
"614 657 LINE",
"992 657 LINE",
"992 705 LINE",
"412 705 LINE SMOOTH",
"189 705 OFFCURVE",
"65 579 OFFCURVE",
"65 353 CURVE SMOOTH",
"65 127 OFFCURVE",
"190 0 OFFCURVE",
"412 0 CURVE SMOOTH"
);
},
{
closed = 1;
nodes = (
"221 48 OFFCURVE",
"122 151 OFFCURVE",
"122 353 CURVE SMOOTH",
"122 555 OFFCURVE",
"220 657 OFFCURVE",
"415 657 CURVE SMOOTH",
"561 657 LINE",
"561 48 LINE",
"415 48 LINE SMOOTH"
);
}
);
width = 1046;
}
);
leftKerningGroup = O;
rightKerningGroup = E;
unicode = 0152;
},
{
glyphname = P;
lastChange = "2017-11-14 17:21:06 +0000";
layers = (
{
anchors = (
{
name = bottom;
position = "{318, 0}";
},
{
name = top;
position = "{318, 705}";
}
);
background = {
anchors = (
{
name = bottom;
position = "{318, 0}";
},
{
name = top;
position = "{318, 705}";
}
);
paths = (
{
closed = 1;
nodes = (
"137 -5 OFFCURVE",
"147 6 OFFCURVE",
"147 24 CURVE SMOOTH",
"147 299 LINE",
"355 299 LINE SMOOTH",
"500 299 OFFCURVE",
"585 373 OFFCURVE",
"585 503 CURVE SMOOTH",
"585 633 OFFCURVE",
"501 705 OFFCURVE",
"355 705 CURVE SMOOTH",
"123 705 LINE SMOOTH",
"106 705 OFFCURVE",
"93 693 OFFCURVE",
"93 677 CURVE SMOOTH",
"93 24 LINE SMOOTH",
"93 6 OFFCURVE",
"104 -5 OFFCURVE",
"120 -5 CURVE SMOOTH"
);
},
{
closed = 1;
nodes = (
"148 657 LINE",
"352 657 LINE SMOOTH",
"471 657 OFFCURVE",
"530 605 OFFCURVE",
"530 503 CURVE SMOOTH",
"530 401 OFFCURVE",
"471 347 OFFCURVE",
"352 347 CURVE SMOOTH",
"148 347 LINE"
);
}
);
};
layerId = "9E718F8A-2CEA-4931-B05D-987794BD97DA";
paths = (
{
closed = 1;
nodes = (
"147 0 LINE",
"147 299 LINE",
"355 299 LINE SMOOTH",
"500 299 OFFCURVE",
"585 373 OFFCURVE",
"585 503 CURVE SMOOTH",
"585 633 OFFCURVE",
"501 705 OFFCURVE",
"355 705 CURVE",
"93 705 LINE",
"93 0 LINE"
);
},
{
closed = 1;
nodes = (
"147 657 LINE",
"352 657 LINE SMOOTH",
"471 657 OFFCURVE",
"530 605 OFFCURVE",
"530 503 CURVE SMOOTH",
"530 401 OFFCURVE",
"471 347 OFFCURVE",
"352 347 CURVE SMOOTH",
"147 347 LINE"
);
}
);
width = 636;
}
);
leftKerningGroup = H;
rightKerningGroup = P;
unicode = 0050;
userData = {
anchors = (
);
b = {
};
com.typemytype.robofont.layerData = {
b = {
anchors = (
);
components = (
);
contours = (
{
points = (
{
segmentType = curve;
smooth = 1;
x = 266;
y = 0;
},
{
segmentType = line;
smooth = 1;
x = 1035;
y = 0;
},
{
smooth = 0;
x = 1084;
y = 0;
},
{
smooth = 0;
x = 1108;
y = 34;
},
{
segmentType = curve;
smooth = 1;
x = 1108;
y = 71;
},
{
smooth = 0;
x = 1108;
y = 107;
},
{
smooth = 0;
x = 1084;
y = 141;
},
{
segmentType = curve;
smooth = 1;
x = 1035;
y = 141;
},
{
segmentType = line;
smooth = 0;
x = 356;
y = 141;
},
{
segmentType = line;
smooth = 0;
x = 356;
y = 665;
},
{
segmentType = line;
smooth = 1;
x = 975;
y = 665;
},
{
smooth = 0;
x = 1024;
y = 665;
},
{
smooth = 0;
x = 1049;
y = 698;
},
{
segmentType = curve;
smooth = 1;
x = 1049;
y = 734;
},
{
smooth = 0;
x = 1049;
y = 770;
},
{
smooth = 0;
x = 1026;
y = 803;
},
{
segmentType = curve;
smooth = 1;
x = 975;
y = 803;
},
{
segmentType = line;
smooth = 0;
x = 356;
y = 803;
},
{
segmentType = line;
smooth = 0;
x = 356;
y = 1285;
},
{
segmentType = line;
smooth = 1;
x = 1007;
y = 1285;
},
{
smooth = 0;
x = 1056;
y = 1285;
},
{
smooth = 0;
x = 1080;
y = 1319;
},
{
segmentType = curve;
smooth = 1;
x = 1080;
y = 1356;
},
{
smooth = 0;
x = 1080;
y = 1392;
},
{
smooth = 0;
x = 1056;
y = 1426;
},
{
segmentType = curve;
smooth = 1;
x = 1007;
y = 1426;
},
{
segmentType = line;
smooth = 1;
x = 261;
y = 1426;
},
{
smooth = 0;
x = 213;
y = 1426;
},
{
smooth = 0;
x = 178;
y = 1383;
},
{
segmentType = curve;
smooth = 1;
x = 178;
y = 1340;
},
{
segmentType = line;
smooth = 1;
x = 178;
y = 86;
},
{
smooth = 0;
x = 178;
y = 41;
},
{
smooth = 0;
x = 222;
y = 0;
}
);
}
);
lib = {
};
name = P;
unicodes = (
);
width = 1201;
};
};
components = (
);
contours = (
);
lib = {
};
name = P;
unicodes = (
);
width = 1319;
};
},
{
glyphname = Thorn;
lastChange = "2017-11-14 17:21:06 +0000";
layers = (
{
anchors = (
{
name = bottom;
position = "{318, 0}";
},
{
name = top;
position = "{318, 705}";
}
);
background = {
anchors = (
{
name = bottom;
position = "{318, 0}";
},
{
name = top;
position = "{318, 705}";
}
);
paths = (
{
closed = 1;
nodes = (
"365 172 LINE SMOOTH",
"504 172 OFFCURVE",
"585 241 OFFCURVE",
"585 360 CURVE SMOOTH",
"585 478 OFFCURVE",
"506 545 OFFCURVE",
"365 545 CURVE SMOOTH",
"136 545 LINE",
"136 497 LINE",
"362 497 LINE SMOOTH",
"476 497 OFFCURVE",
"530 453 OFFCURVE",
"530 360 CURVE SMOOTH",
"530 266 OFFCURVE",
"475 220 OFFCURVE",
"362 220 CURVE SMOOTH",
"136 220 LINE",
"136 172 LINE"
);
},
{
closed = 1;
nodes = (
"136 -5 OFFCURVE",
"147 6 OFFCURVE",
"147 24 CURVE SMOOTH",
"147 681 LINE SMOOTH",
"147 699 OFFCURVE",
"136 710 OFFCURVE",
"120 710 CURVE SMOOTH",
"104 710 OFFCURVE",
"93 699 OFFCURVE",
"93 681 CURVE SMOOTH",
"93 24 LINE SMOOTH",
"93 6 OFFCURVE",
"104 -5 OFFCURVE",
"120 -5 CURVE SMOOTH"
);
}
);
};
layerId = "9E718F8A-2CEA-4931-B05D-987794BD97DA";
paths = (
{
closed = 1;
nodes = (
"365 172 LINE SMOOTH",
"504 172 OFFCURVE",
"585 241 OFFCURVE",
"585 360 CURVE SMOOTH",
"585 478 OFFCURVE",
"506 545 OFFCURVE",
"365 545 CURVE SMOOTH",
"136 545 LINE",
"136 497 LINE",
"362 497 LINE SMOOTH",
"476 497 OFFCURVE",
"530 453 OFFCURVE",
"530 360 CURVE SMOOTH",
"530 266 OFFCURVE",
"475 220 OFFCURVE",
"362 220 CURVE SMOOTH",
"136 220 LINE",
"136 172 LINE"
);
},
{
closed = 1;
nodes = (
"147 0 LINE",
"147 705 LINE",
"93 705 LINE",
"93 0 LINE"
);
}
);
width = 636;
}
);
leftKerningGroup = H;
rightKerningGroup = THORN;
unicode = 00DE;
},
{
glyphname = Q;
lastChange = "2017-11-14 17:21:06 +0000";
layers = (
{
anchors = (
{
name = bottom;
position = "{377, 0}";
},
{
name = top;
position = "{377, 705}";
}
);
background = {
paths = (
{
closed = 1;
nodes = (
"580 -202 OFFCURVE",
"626 -181 OFFCURVE",
"607 -149 CURVE SMOOTH",
"555 -64 LINE SMOOTH",
"518 -3 OFFCURVE",
"489 15 OFFCURVE",
"426 15 CURVE",
"454 0 LINE",
"602 32 OFFCURVE",
"690 163 OFFCURVE",
"690 353 CURVE SMOOTH",
"690 576 OFFCURVE",
"570 713 OFFCURVE",
"377 713 CURVE SMOOTH",
"184 713 OFFCURVE",
"65 576 OFFCURVE",
"65 352 CURVE SMOOTH",
"65 130 OFFCURVE",
"186 -8 OFFCURVE",
"377 -8 CURVE SMOOTH",
"431 -8 OFFCURVE",
"474 -30 OFFCURVE",
"499 -71 CURVE SMOOTH",
"556 -163 LINE SMOOTH"
);
},
{
closed = 1;
nodes = (
"216 42 OFFCURVE",
"122 156 OFFCURVE",
"122 353 CURVE SMOOTH",
"122 550 OFFCURVE",
"216 663 OFFCURVE",
"377 663 CURVE SMOOTH",
"540 663 OFFCURVE",
"633 551 OFFCURVE",
"633 353 CURVE SMOOTH",
"633 155 OFFCURVE",
"539 42 OFFCURVE",
"377 42 CURVE SMOOTH"
);
}
);
};
layerId = "9E718F8A-2CEA-4931-B05D-987794BD97DA";
paths = (
{
closed = 1;
nodes = (
"618 -167 LINE",
"555 -64 LINE SMOOTH",
"518 -3 OFFCURVE",
"489 15 OFFCURVE",
"426 15 CURVE",
"454 0 LINE",
"602 32 OFFCURVE",
"690 163 OFFCURVE",
"690 353 CURVE SMOOTH",
"690 576 OFFCURVE",
"570 713 OFFCURVE",
"377 713 CURVE SMOOTH",
"184 713 OFFCURVE",
"65 576 OFFCURVE",
"65 352 CURVE SMOOTH",
"65 130 OFFCURVE",
"186 -8 OFFCURVE",
"377 -8 CURVE SMOOTH",
"432 -8 OFFCURVE",
"474 -30 OFFCURVE",
"499 -71 CURVE SMOOTH",
"574 -193 LINE"
);
},
{
closed = 1;
nodes = (
"216 42 OFFCURVE",
"122 156 OFFCURVE",
"122 353 CURVE SMOOTH",
"122 550 OFFCURVE",
"216 663 OFFCURVE",
"377 663 CURVE SMOOTH",
"540 663 OFFCURVE",
"633 551 OFFCURVE",
"633 353 CURVE SMOOTH",
"633 155 OFFCURVE",
"539 42 OFFCURVE",
"377 42 CURVE SMOOTH"
);
}
);
width = 755;
}
);
leftKerningGroup = O;
rightKerningGroup = O;
unicode = 0051;
userData = {
anchors = (
);
b = {
};
com.typemytype.robofont.layerData = {
b = {
anchors = (
);
components = (
);
contours = (
);
lib = {
};
name = Q;
unicodes = (
);
width = 1597;
};
};
components = (
);
contours = (
);
lib = {
};
name = Q;
unicodes = (
);
width = 1604;
};
},
{
glyphname = R;
lastChange = "2017-11-14 17:21:06 +0000";
layers = (
{
anchors = (
{
name = bottom;
position = "{336, 0}";
},
{
name = top;
position = "{336, 705}";
}
);
background = {
anchors = (
{
name = bottom;
position = "{336, 0}";
},
{
name = top;
position = "{336, 705}";
}
);
paths = (
{
closed = 1;
nodes = (
"136 -5 OFFCURVE",
"147 6 OFFCURVE",
"147 24 CURVE SMOOTH",
"147 308 LINE",
"289 308 LINE SMOOTH",
"363 308 OFFCURVE",
"398 289 OFFCURVE",
"437 226 CURVE SMOOTH",
"573 8 LINE SMOOTH",
"592 -22 OFFCURVE",
"635 2 OFFCURVE",
"616 32 CURVE SMOOTH",
"488 238 LINE SMOOTH",
"449 301 OFFCURVE",
"413 323 OFFCURVE",
"352 323 CURVE",
"370 314 LINE",
"516 314 OFFCURVE",
"601 384 OFFCURVE",
"601 508 CURVE SMOOTH",
"601 638 OFFCURVE",
"517 705 OFFCURVE",
"371 705 CURVE SMOOTH",
"123 705 LINE SMOOTH",
"106 705 OFFCURVE",
"93 693 OFFCURVE",
"93 677 CURVE SMOOTH",
"93 24 LINE SMOOTH",
"93 6 OFFCURVE",
"104 -5 OFFCURVE",
"120 -5 CURVE SMOOTH"
);
},
{
closed = 1;
nodes = (
"147 657 LINE",
"369 657 LINE SMOOTH",
"489 657 OFFCURVE",
"546 609 OFFCURVE",
"546 509 CURVE SMOOTH",
"546 407 OFFCURVE",
"487 356 OFFCURVE",
"369 356 CURVE SMOOTH",
"147 356 LINE"
);
}
);
};
layerId = "9E718F8A-2CEA-4931-B05D-987794BD97DA";
paths = (
{
closed = 1;
nodes = (
"147 0 LINE",
"147 308 LINE",
"300 308 LINE SMOOTH",
"374 308 OFFCURVE",
"414 291 OFFCURVE",
"448 226 CURVE SMOOTH",
"567 0 LINE",
"627 0 LINE",
"500 238 LINE SMOOTH",
"468 298 OFFCURVE",
"431 323 OFFCURVE",
"369 323 CURVE",
"370 314 LINE",
"516 314 OFFCURVE",
"601 384 OFFCURVE",
"601 508 CURVE SMOOTH",
"601 638 OFFCURVE",
"517 705 OFFCURVE",
"371 705 CURVE SMOOTH",
"93 705 LINE",
"93 0 LINE"
);
},
{
closed = 1;
nodes = (
"147 657 LINE",
"369 657 LINE SMOOTH",
"489 657 OFFCURVE",
"546 609 OFFCURVE",
"546 509 CURVE SMOOTH",
"546 407 OFFCURVE",
"487 356 OFFCURVE",
"369 356 CURVE SMOOTH",
"147 356 LINE"
);
}
);
width = 680;
}
);
leftKerningGroup = H;
rightKerningGroup = R;
unicode = 0052;
userData = {
anchors = (
);
b = {
};
com.typemytype.robofont.guides = (
);
com.typemytype.robofont.layerData = {
b = {
anchors = (
);
components = (
);
contours = (
{
points = (
{
segmentType = curve;
smooth = 1;
x = 267;
y = 0;
},
{
smooth = 0;
x = 311;
y = 0;
},
{
smooth = 0;
x = 356;
y = 27;
},
{
segmentType = curve;
smooth = 1;
x = 356;
y = 84;
},
{
segmentType = line;
smooth = 0;
x = 356;
y = 628;
},
{
segmentType = line;
smooth = 1;
x = 669;
y = 628;
},
{
smooth = 0;
x = 962;
y = 628;
},
{
smooth = 0;
x = 1182;
y = 722;
},
{
segmentType = curve;
smooth = 1;
x = 1182;
y = 1026;
},
{
smooth = 0;
x = 1182;
y = 1324;
},
{
smooth = 0;
x = 993;
y = 1426;
},
{
segmentType = curve;
smooth = 1;
x = 684;
y = 1426;
},
{
segmentType = line;
smooth = 1;
x = 268;
y = 1426;
},
{
smooth = 0;
x = 217;
y = 1426;
},
{
smooth = 0;
x = 178;
y = 1387;
},
{
segmentType = curve;
smooth = 1;
x = 178;
y = 1339;
},
{
segmentType = line;
smooth = 1;
x = 178;
y = 84;
},
{
smooth = 0;
x = 178;
y = 28;
},
{
smooth = 0;
x = 222;
y = 0;
}
);
},
{
points = (
{
segmentType = line;
smooth = 0;
x = 356;
y = 764;
},
{
segmentType = line;
smooth = 0;
x = 356;
y = 1285;
},
{
segmentType = line;
smooth = 1;
x = 684;
y = 1285;
},
{
smooth = 0;
x = 914;
y = 1285;
},
{
smooth = 0;
x = 1008;
y = 1210;
},
{
segmentType = curve;
smooth = 1;
x = 1008;
y = 1026;
},
{
smooth = 0;
x = 1008;
y = 838;
},
{
smooth = 0;
x = 901;
y = 764;
},
{
segmentType = curve;
smooth = 1;
x = 670;
y = 764;
}
);
}
);
lib = {
};
name = R;
unicodes = (
);
width = 1363;
};
};
components = (
);
contours = (
);
lib = {
};
name = R;
unicodes = (
);
width = 1408;
};
},
{
glyphname = S;
lastChange = "2017-11-14 17:21:06 +0000";
layers = (
{
anchors = (
{
name = bottom;
position = "{307, 0}";
},
{
name = top;
position = "{302, 705}";
}
);
background = {
anchors = (
{
name = bottom;
position = "{307, 0}";
},
{
name = top;
position = "{302, 705}";
}
);
paths = (
{
closed = 1;
nodes = (
"455 -8 OFFCURVE",
"556 70 OFFCURVE",
"556 185 CURVE SMOOTH",
"556 325 OFFCURVE",
"412 345 OFFCURVE",
"289 375 CURVE SMOOTH",
"197 398 OFFCURVE",
"117 426 OFFCURVE",
"117 515 CURVE SMOOTH",
"117 609 OFFCURVE",
"188 663 OFFCURVE",
"310 663 CURVE SMOOTH",
"389 663 OFFCURVE",
"439 644 OFFCURVE",
"513 583 CURVE SMOOTH",
"521 576 OFFCURVE",
"528 574 OFFCURVE",
"534 574 CURVE SMOOTH",
"544 574 OFFCURVE",
"553 585 OFFCURVE",
"553 598 CURVE SMOOTH",
"553 608 OFFCURVE",
"549 616 OFFCURVE",
"541 625 CURVE SMOOTH",
"488 681 OFFCURVE",
"402 713 OFFCURVE",
"310 713 CURVE SMOOTH",
"162 713 OFFCURVE",
"62 634 OFFCURVE",
"62 515 CURVE SMOOTH",
"62 374 OFFCURVE",
"195 345 OFFCURVE",
"314 317 CURVE SMOOTH",
"412 294 OFFCURVE",
"501 271 OFFCURVE",
"501 186 CURVE SMOOTH",
"501 93 OFFCURVE",
"431 42 OFFCURVE",
"307 42 CURVE SMOOTH",
"224 42 OFFCURVE",
"150 68 OFFCURVE",
"85 122 CURVE SMOOTH",
"77 128 OFFCURVE",
"70 131 OFFCURVE",
"64 131 CURVE SMOOTH",
"54 131 OFFCURVE",
"46 121 OFFCURVE",
"46 107 CURVE SMOOTH",
"46 97 OFFCURVE",
"50 87 OFFCURVE",
"57 80 CURVE SMOOTH",
"110 26 OFFCURVE",
"209 -8 OFFCURVE",
"307 -8 CURVE SMOOTH"
);
}
);
};
layerId = "9E718F8A-2CEA-4931-B05D-987794BD97DA";
paths = (
{
closed = 1;
nodes = (
"459 -8 OFFCURVE",
"556 70 OFFCURVE",
"556 185 CURVE SMOOTH",
"556 325 OFFCURVE",
"412 345 OFFCURVE",
"289 375 CURVE SMOOTH",
"197 397 OFFCURVE",
"117 426 OFFCURVE",
"117 515 CURVE SMOOTH",
"117 608 OFFCURVE",
"188 663 OFFCURVE",
"310 663 CURVE SMOOTH",
"393 663 OFFCURVE",
"458 637 OFFCURVE",
"525 576 CURVE",
"549 620 LINE",
"489 681 OFFCURVE",
"406 713 OFFCURVE",
"310 713 CURVE SMOOTH",
"158 713 OFFCURVE",
"62 634 OFFCURVE",
"62 515 CURVE SMOOTH",
"62 374 OFFCURVE",
"195 345 OFFCURVE",
"314 317 CURVE SMOOTH",
"412 294 OFFCURVE",
"501 271 OFFCURVE",
"501 186 CURVE SMOOTH",
"501 94 OFFCURVE",
"431 42 OFFCURVE",
"309 42 CURVE SMOOTH",
"209 42 OFFCURVE",
"145 65 OFFCURVE",
"74 129 CURVE",
"50 85 LINE",
"117 21 OFFCURVE",
"199 -8 OFFCURVE",
"309 -8 CURVE SMOOTH"
);
}
);
width = 604;
}
);
leftKerningGroup = S;
rightKerningGroup = S;
unicode = 0053;
userData = {
anchors = (
);
b = {
};
com.typemytype.robofont.layerData = {
b = {
anchors = (
);
components = (
);
contours = (
);
lib = {
};
name = S;
unicodes = (
);
width = 1274;
};
};
components = (
);
contours = (
);
lib = {
};
name = S;
unicodes = (
);
width = 1317;
};
},
{
glyphname = Germandbls;
lastChange = "2017-11-14 17:21:06 +0000";
layers = (
{
background = {
paths = (
{
closed = 1;
nodes = (
"136 -6 OFFCURVE",
"147 5 OFFCURVE",
"147 23 CURVE SMOOTH",
"147 455 LINE SMOOTH",
"147 597 OFFCURVE",
"210 662 OFFCURVE",
"346 662 CURVE SMOOTH",
"450 662 OFFCURVE",
"512 612 OFFCURVE",
"512 526 CURVE SMOOTH",
"512 435 OFFCURVE",
"450 383 OFFCURVE",
"343 383 CURVE SMOOTH",
"264 383 LINE SMOOTH",
"227 383 OFFCURVE",
"227 333 OFFCURVE",
"264 333 CURVE SMOOTH",
"378 333 LINE SMOOTH",
"496 333 OFFCURVE",
"558 285 OFFCURVE",
"558 193 CURVE SMOOTH",
"558 98 OFFCURVE",
"497 43 OFFCURVE",
"395 43 CURVE SMOOTH",
"349 43 OFFCURVE",
"309 55 OFFCURVE",
"264 87 CURVE SMOOTH",
"251 96 OFFCURVE",
"241 103 OFFCURVE",
"233 103 CURVE SMOOTH",
"222 103 OFFCURVE",
"213 93 OFFCURVE",
"213 81 CURVE SMOOTH",
"213 67 OFFCURVE",
"220 58 OFFCURVE",
"247 38 CURVE SMOOTH",
"285 9 OFFCURVE",
"341 -5 OFFCURVE",
"398 -5 CURVE SMOOTH",
"527 -5 OFFCURVE",
"613 73 OFFCURVE",
"613 193 CURVE SMOOTH",
"613 290 OFFCURVE",
"554 354 OFFCURVE",
"450 370 CURVE",
"441 359 LINE",
"519 379 OFFCURVE",
"567 440 OFFCURVE",
"567 526 CURVE SMOOTH",
"567 641 OFFCURVE",
"482 712 OFFCURVE",
"346 712 CURVE SMOOTH",
"177 712 OFFCURVE",
"93 629 OFFCURVE",
"93 462 CURVE SMOOTH",
"93 23 LINE SMOOTH",
"93 5 OFFCURVE",
"104 -6 OFFCURVE",
"120 -6 CURVE SMOOTH"
);
}
);
};
layerId = "9E718F8A-2CEA-4931-B05D-987794BD97DA";
paths = (
{
closed = 1;
nodes = (
"147 0 LINE",
"147 455 LINE SMOOTH",
"147 597 OFFCURVE",
"210 662 OFFCURVE",
"346 662 CURVE SMOOTH",
"450 662 OFFCURVE",
"512 611 OFFCURVE",
"512 526 CURVE SMOOTH",
"512 434 OFFCURVE",
"450 382 OFFCURVE",
"343 382 CURVE SMOOTH",
"241 382 LINE",
"241 334 LINE",
"378 334 LINE SMOOTH",
"495 334 OFFCURVE",
"558 286 OFFCURVE",
"558 193 CURVE SMOOTH",
"558 101 OFFCURVE",
"497 45 OFFCURVE",
"395 43 CURVE SMOOTH",
"342 42 OFFCURVE",
"295 60 OFFCURVE",
"240 105 CURVE",
"217 59 LINE",
"265 16 OFFCURVE",
"331 -7 OFFCURVE",
"398 -7 CURVE SMOOTH",
"527 -7 OFFCURVE",
"613 73 OFFCURVE",
"613 192 CURVE SMOOTH",
"613 290 OFFCURVE",
"554 354 OFFCURVE",
"447 370 CURVE",
"438 359 LINE",
"520 378 OFFCURVE",
"567 440 OFFCURVE",
"567 527 CURVE SMOOTH",
"567 641 OFFCURVE",
"482 712 OFFCURVE",
"346 712 CURVE SMOOTH",
"177 712 OFFCURVE",
"93 629 OFFCURVE",
"93 462 CURVE SMOOTH",
"93 0 LINE"
);
}
);
width = 680;
}
);
leftKerningGroup = H;
rightKerningGroup = Germandbls;
unicode = 1E9E;
},
{
glyphname = Schwa;
lastChange = "2017-11-14 17:21:06 +0000";
layers = (
{
anchors = (
{
name = bottom;
position = "{366, 0}";
},
{
name = top;
position = "{366, 705}";
}
);
background = {
anchors = (
{
name = bottom;
position = "{366, 0}";
},
{
name = top;
position = "{366, 705}";
}
);
paths = (
{
closed = 1;
nodes = (
"551 -8 OFFCURVE",
"667 130 OFFCURVE",
"667 353 CURVE SMOOTH",
"667 577 OFFCURVE",
"545 713 OFFCURVE",
"345 713 CURVE SMOOTH",
"252 713 OFFCURVE",
"167 683 OFFCURVE",
"104 625 CURVE SMOOTH",
"96 618 OFFCURVE",
"92 609 OFFCURVE",
"92 598 CURVE SMOOTH",
"92 585 OFFCURVE",
"100 574 OFFCURVE",
"110 574 CURVE SMOOTH",
"116 574 OFFCURVE",
"121 575 OFFCURVE",
"131 583 CURVE SMOOTH",
"213 646 OFFCURVE",
"263 664 OFFCURVE",
"346 664 CURVE SMOOTH",
"514 664 OFFCURVE",
"611 551 OFFCURVE",
"611 353 CURVE SMOOTH",
"611 156 OFFCURVE",
"521 42 OFFCURVE",
"366 42 CURVE SMOOTH",
"212 42 OFFCURVE",
"121 157 OFFCURVE",
"121 353 CURVE",
"106 333 LINE",
"642 333 LINE",
"642 383 LINE",
"103 383 LINE SMOOTH",
"79 383 OFFCURVE",
"65 370 OFFCURVE",
"65 345 CURVE SMOOTH",
"65 129 OFFCURVE",
"182 -8 OFFCURVE",
"366 -8 CURVE SMOOTH"
);
}
);
};
layerId = "9E718F8A-2CEA-4931-B05D-987794BD97DA";
paths = (
{
closed = 1;
nodes = (
"551 -8 OFFCURVE",
"667 130 OFFCURVE",
"667 353 CURVE SMOOTH",
"667 577 OFFCURVE",
"544 713 OFFCURVE",
"344 713 CURVE SMOOTH",
"246 713 OFFCURVE",
"153 679 OFFCURVE",
"94 620 CURVE",
"118 576 LINE",
"183 636 OFFCURVE",
"257 664 OFFCURVE",
"345 664 CURVE SMOOTH",
"514 664 OFFCURVE",
"611 551 OFFCURVE",
"611 353 CURVE SMOOTH",
"611 156 OFFCURVE",
"521 42 OFFCURVE",
"366 42 CURVE SMOOTH",
"212 42 OFFCURVE",
"121 157 OFFCURVE",
"121 353 CURVE",
"106 333 LINE",
"642 333 LINE",
"642 383 LINE",
"65 383 LINE",
"65 349 LINE SMOOTH",
"65 129 OFFCURVE",
"181 -8 OFFCURVE",
"366 -8 CURVE SMOOTH"
);
}
);
width = 732;
}
);
leftKerningGroup = O;
rightKerningGroup = O;
unicode = 018F;
},
{
glyphname = T;
lastChange = "2017-11-14 17:21:06 +0000";
layers = (
{
anchors = (
{
name = bottom;
position = "{294, 0}";
},
{
name = center;
position = "{294, 353}";
},
{
name = top;
position = "{294, 705}";
}
);
background = {
anchors = (
{
name = bottom;
position = "{294, 0}";
},
{
name = center;
position = "{294, 353}";
},
{
name = top;
position = "{294, 705}";
}
);
paths = (
{
closed = 1;
nodes = (
"311 -5 OFFCURVE",
"321 7 OFFCURVE",
"321 24 CURVE SMOOTH",
"321 657 LINE",
"556 657 LINE SMOOTH",
"570 657 OFFCURVE",
"581 666 OFFCURVE",
"581 681 CURVE SMOOTH",
"581 696 OFFCURVE",
"570 705 OFFCURVE",
"556 705 CURVE SMOOTH",
"31 705 LINE SMOOTH",
"17 705 OFFCURVE",
"7 696 OFFCURVE",
"7 681 CURVE SMOOTH",
"7 666 OFFCURVE",
"17 657 OFFCURVE",
"31 657 CURVE SMOOTH",
"267 657 LINE",
"267 24 LINE SMOOTH",
"267 7 OFFCURVE",
"277 -5 OFFCURVE",
"294 -5 CURVE SMOOTH"
);
}
);
};
layerId = "9E718F8A-2CEA-4931-B05D-987794BD97DA";
paths = (
{
closed = 1;
nodes = (
"321 0 LINE",
"321 657 LINE",
"576 657 LINE",
"576 705 LINE",
"12 705 LINE",
"12 657 LINE",
"267 657 LINE",
"267 0 LINE"
);
}
);
width = 588;
}
);
leftKerningGroup = T;
rightKerningGroup = T;
unicode = 0054;
userData = {
anchors = (
);
b = {
};
com.typemytype.robofont.layerData = {
b = {
anchors = (
);
components = (
);
contours = (
{
points = (
{
segmentType = curve;
smooth = 1;
x = 581;
y = 0;
},
{
segmentType = line;
smooth = 1;
x = 1350;
y = 0;
},
{
smooth = 0;
x = 1399;
y = 0;
},
{
smooth = 0;
x = 1423;
y = 34;
},
{
segmentType = curve;
smooth = 1;
x = 1423;
y = 71;
},
{
smooth = 0;
x = 1423;
y = 107;
},
{
smooth = 0;
x = 1399;
y = 141;
},
{
segmentType = curve;
smooth = 1;
x = 1350;
y = 141;
},
{
segmentType = line;
smooth = 0;
x = 671;
y = 141;
},
{
segmentType = line;
smooth = 0;
x = 671;
y = 665;
},
{
segmentType = line;
smooth = 1;
x = 1290;
y = 665;
},
{
smooth = 0;
x = 1339;
y = 665;
},
{
smooth = 0;
x = 1364;
y = 698;
},
{
segmentType = curve;
smooth = 1;
x = 1364;
y = 734;
},
{
smooth = 0;
x = 1364;
y = 770;
},
{
smooth = 0;
x = 1341;
y = 803;
},
{
segmentType = curve;
smooth = 1;
x = 1290;
y = 803;
},
{
segmentType = line;
smooth = 0;
x = 671;
y = 803;
},
{
segmentType = line;
smooth = 0;
x = 671;
y = 1285;
},
{
segmentType = line;
smooth = 1;
x = 1322;
y = 1285;
},
{
smooth = 0;
x = 1371;
y = 1285;
},
{
smooth = 0;
x = 1395;
y = 1319;
},
{
segmentType = curve;
smooth = 1;
x = 1395;
y = 1356;
},
{
smooth = 0;
x = 1395;
y = 1392;
},
{
smooth = 0;
x = 1371;
y = 1426;
},
{
segmentType = curve;
smooth = 1;
x = 1322;
y = 1426;
},
{
segmentType = line;
smooth = 1;
x = 576;
y = 1426;
},
{
smooth = 0;
x = 528;
y = 1426;
},
{
smooth = 0;
x = 493;
y = 1383;
},
{
segmentType = curve;
smooth = 1;
x = 493;
y = 1340;
},
{
segmentType = line;
smooth = 1;
x = 493;
y = 86;
},
{
smooth = 0;
x = 493;
y = 41;
},
{
smooth = 0;
x = 537;
y = 0;
}
);
}
);
lib = {
};
name = T;
unicodes = (
);
width = 1158;
};
};
components = (
);
contours = (
);
lib = {
};
name = T;
unicodes = (
);
width = 1199;
};
},
{
glyphname = Tbar;
lastChange = "2017-11-14 17:21:06 +0000";
layers = (
{
background = {
paths = (
{
closed = 1;
nodes = (
"311 -5 OFFCURVE",
"321 7 OFFCURVE",
"321 24 CURVE SMOOTH",
"321 657 LINE",
"556 657 LINE SMOOTH",
"570 657 OFFCURVE",
"581 666 OFFCURVE",
"581 681 CURVE SMOOTH",
"581 696 OFFCURVE",
"570 705 OFFCURVE",
"556 705 CURVE SMOOTH",
"31 705 LINE SMOOTH",
"17 705 OFFCURVE",
"7 696 OFFCURVE",
"7 681 CURVE SMOOTH",
"7 666 OFFCURVE",
"17 657 OFFCURVE",
"31 657 CURVE SMOOTH",
"267 657 LINE",
"267 24 LINE SMOOTH",
"267 7 OFFCURVE",
"277 -5 OFFCURVE",
"294 -5 CURVE SMOOTH"
);
},
{
closed = 1;
nodes = (
"448 335 LINE SMOOTH",
"462 335 OFFCURVE",
"471 343 OFFCURVE",
"471 358 CURVE SMOOTH",
"471 373 OFFCURVE",
"462 381 OFFCURVE",
"448 381 CURVE SMOOTH",
"142 381 LINE SMOOTH",
"128 381 OFFCURVE",
"117 373 OFFCURVE",
"117 358 CURVE SMOOTH",
"117 343 OFFCURVE",
"128 335 OFFCURVE",
"142 335 CURVE SMOOTH"
);
}
);
};
layerId = "9E718F8A-2CEA-4931-B05D-987794BD97DA";
paths = (
{
closed = 1;
nodes = (
"466 335 LINE",
"466 381 LINE",
"122 381 LINE",
"122 335 LINE"
);
},
{
closed = 1;
nodes = (
"321 0 LINE",
"321 657 LINE",
"576 657 LINE",
"576 705 LINE",
"12 705 LINE",
"12 657 LINE",
"267 657 LINE",
"267 0 LINE"
);
}
);
width = 588;
}
);
leftKerningGroup = T;
rightKerningGroup = T;
unicode = 0166;
userData = {
com.typemytype.robofont.layerData = {
b = {
anchors = (
);
components = (
);
contours = (
);
lib = {
};
name = Tbar;
unicodes = (
);
width = 1158;
};
};
};
},
{
glyphname = U;
lastChange = "2017-11-14 17:21:06 +0000";
layers = (
{
anchors = (
{
name = bottom;
position = "{359, 0}";
},
{
name = ogonek;
position = "{471, 10}";
},
{
name = top;
position = "{359, 705}";
},
{
name = topright;
position = "{603, 705}";
}
);
background = {
anchors = (
{
name = bottom;
position = "{359, 0}";
},
{
name = ogonek;
position = "{471, 10}";
},
{
name = top;
position = "{359, 705}";
},
{
name = topright;
position = "{603, 705}";
}
);
paths = (
{
closed = 1;
nodes = (
"537 -8 OFFCURVE",
"630 87 OFFCURVE",
"630 270 CURVE SMOOTH",
"630 681 LINE SMOOTH",
"630 699 OFFCURVE",
"619 710 OFFCURVE",
"603 710 CURVE SMOOTH",
"588 710 OFFCURVE",
"576 698 OFFCURVE",
"576 681 CURVE SMOOTH",
"576 263 LINE SMOOTH",
"576 116 OFFCURVE",
"502 42 OFFCURVE",
"359 42 CURVE SMOOTH",
"215 42 OFFCURVE",
"142 116 OFFCURVE",
"142 263 CURVE SMOOTH",
"142 681 LINE SMOOTH",
"142 699 OFFCURVE",
"131 710 OFFCURVE",
"115 710 CURVE SMOOTH",
"99 710 OFFCURVE",
"88 699 OFFCURVE",
"88 681 CURVE SMOOTH",
"88 270 LINE SMOOTH",
"88 87 OFFCURVE",
"181 -8 OFFCURVE",
"359 -8 CURVE SMOOTH"
);
}
);
};
layerId = "9E718F8A-2CEA-4931-B05D-987794BD97DA";
paths = (
{
closed = 1;
nodes = (
"537 -8 OFFCURVE",
"630 87 OFFCURVE",
"630 270 CURVE SMOOTH",
"630 705 LINE",
"576 705 LINE",
"576 263 LINE SMOOTH",
"576 116 OFFCURVE",
"502 42 OFFCURVE",
"359 42 CURVE SMOOTH",
"215 42 OFFCURVE",
"142 116 OFFCURVE",
"142 263 CURVE SMOOTH",
"142 705 LINE",
"88 705 LINE",
"88 270 LINE SMOOTH",
"88 87 OFFCURVE",
"181 -8 OFFCURVE",
"359 -8 CURVE SMOOTH"
);
}
);
width = 718;
}
);
leftKerningGroup = U;
rightKerningGroup = U;
unicode = 0055;
userData = {
anchors = (
);
b = {
};
com.typemytype.robofont.layerData = {
b = {
anchors = (
);
components = (
);
contours = (
);
lib = {
};
name = U;
unicodes = (
);
width = 1490;
};
};
components = (
);
contours = (
);
lib = {
};
name = U;
unicodes = (
);
width = 1513;
};
},
{
glyphname = Uhorn;
lastChange = "2017-11-14 17:21:06 +0000";
layers = (
{
anchors = (
{
name = bottom;
position = "{359, 0}";
},
{
name = top;
position = "{359, 705}";
}
);
background = {
anchors = (
{
name = bottom;
position = "{359, 0}";
},
{
name = top;
position = "{359, 705}";
}
);
paths = (
{
closed = 1;
nodes = (
"537 -8 OFFCURVE",
"630 87 OFFCURVE",
"630 270 CURVE SMOOTH",
"630 682 LINE",
"621 668 LINE",
"698 668 OFFCURVE",
"749 722 OFFCURVE",
"749 803 CURVE SMOOTH",
"749 825 OFFCURVE",
"741 835 OFFCURVE",
"724 835 CURVE SMOOTH",
"708 835 OFFCURVE",
"699 826 OFFCURVE",
"698 808 CURVE SMOOTH",
"694 736 OFFCURVE",
"669 710 OFFCURVE",
"603 710 CURVE SMOOTH",
"588 710 OFFCURVE",
"576 698 OFFCURVE",
"576 681 CURVE SMOOTH",
"576 263 LINE SMOOTH",
"576 116 OFFCURVE",
"502 42 OFFCURVE",
"359 42 CURVE SMOOTH",
"215 42 OFFCURVE",
"142 116 OFFCURVE",
"142 263 CURVE SMOOTH",
"142 681 LINE SMOOTH",
"142 699 OFFCURVE",
"131 710 OFFCURVE",
"115 710 CURVE SMOOTH",
"99 710 OFFCURVE",
"88 699 OFFCURVE",
"88 681 CURVE SMOOTH",
"88 270 LINE SMOOTH",
"88 87 OFFCURVE",
"181 -8 OFFCURVE",
"359 -8 CURVE SMOOTH"
);
}
);
};
layerId = "9E718F8A-2CEA-4931-B05D-987794BD97DA";
paths = (
{
closed = 1;
nodes = (
"699 818 LINE SMOOTH",
"699 738 OFFCURVE",
"668 706 OFFCURVE",
"592 705 CURVE SMOOTH",
"576 705 LINE",
"576 263 LINE SMOOTH",
"576 116 OFFCURVE",
"502 42 OFFCURVE",
"359 42 CURVE SMOOTH",
"215 42 OFFCURVE",
"142 116 OFFCURVE",
"142 263 CURVE SMOOTH",
"142 705 LINE",
"88 705 LINE",
"88 270 LINE SMOOTH",
"88 87 OFFCURVE",
"181 -8 OFFCURVE",
"359 -8 CURVE SMOOTH",
"537 -8 OFFCURVE",
"630 87 OFFCURVE",
"630 270 CURVE SMOOTH",
"630 691 LINE",
"594 663 LINE",
"693 664 OFFCURVE",
"749 716 OFFCURVE",
"749 809 CURVE SMOOTH",
"749 831 LINE",
"699 831 LINE"
);
}
);
width = 718;
}
);
leftKerningGroup = U;
rightKerningGroup = Uhorn;
unicode = 01AF;
},
{
glyphname = Uogonek;
lastChange = "2017-11-14 17:21:06 +0000";
layers = (
{
background = {
paths = (
{
closed = 1;
nodes = (
"467 -191 OFFCURVE",
"490 -185 OFFCURVE",
"511 -174 CURVE SMOOTH",
"538 -158 OFFCURVE",
"523 -121 OFFCURVE",
"495 -135 CURVE SMOOTH",
"479 -143 OFFCURVE",
"461 -148 OFFCURVE",
"447 -148 CURVE SMOOTH",
"405 -148 OFFCURVE",
"379 -123 OFFCURVE",
"379 -82 CURVE SMOOTH",
"379 -40 OFFCURVE",
"407 -12 OFFCURVE",
"468 7 CURVE SMOOTH",
"576 41 OFFCURVE",
"630 127 OFFCURVE",
"630 270 CURVE SMOOTH",
"630 681 LINE SMOOTH",
"630 699 OFFCURVE",
"619 710 OFFCURVE",
"603 710 CURVE SMOOTH",
"588 710 OFFCURVE",
"576 698 OFFCURVE",
"576 681 CURVE SMOOTH",
"576 263 LINE SMOOTH",
"576 116 OFFCURVE",
"502 42 OFFCURVE",
"359 42 CURVE SMOOTH",
"215 42 OFFCURVE",
"142 116 OFFCURVE",
"142 263 CURVE SMOOTH",
"142 681 LINE SMOOTH",
"142 699 OFFCURVE",
"131 710 OFFCURVE",
"115 710 CURVE SMOOTH",
"99 710 OFFCURVE",
"88 699 OFFCURVE",
"88 681 CURVE SMOOTH",
"88 270 LINE SMOOTH",
"88 87 OFFCURVE",
"181 -8 OFFCURVE",
"359 -8 CURVE SMOOTH",
"381 -8 LINE",
"399 11 LINE",
"352 -9 OFFCURVE",
"329 -42 OFFCURVE",
"329 -88 CURVE SMOOTH",
"329 -149 OFFCURVE",
"375 -191 OFFCURVE",
"442 -191 CURVE SMOOTH"
);
}
);
};
layerId = "9E718F8A-2CEA-4931-B05D-987794BD97DA";
paths = (
{
closed = 1;
nodes = (
"576 263 LINE SMOOTH",
"576 116 OFFCURVE",
"502 42 OFFCURVE",
"359 42 CURVE SMOOTH",
"215 42 OFFCURVE",
"142 116 OFFCURVE",
"142 263 CURVE SMOOTH",
"142 705 LINE",
"88 705 LINE",
"88 270 LINE SMOOTH",
"88 87 OFFCURVE",
"181 -8 OFFCURVE",
"359 -8 CURVE SMOOTH",
"412 -8 LINE",
"400 11 LINE",
"353 -9 OFFCURVE",
"329 -42 OFFCURVE",
"329 -88 CURVE SMOOTH",
"329 -149 OFFCURVE",
"375 -191 OFFCURVE",
"442 -191 CURVE SMOOTH",
"473 -191 OFFCURVE",
"501 -183 OFFCURVE",
"522 -168 CURVE",
"506 -130 LINE",
"485 -141 OFFCURVE",
"464 -148 OFFCURVE",
"447 -148 CURVE SMOOTH",
"405 -148 OFFCURVE",
"379 -123 OFFCURVE",
"379 -82 CURVE SMOOTH",
"379 -40 OFFCURVE",
"405 -13 OFFCURVE",
"466 6 CURVE SMOOTH",
"574 40 OFFCURVE",
"630 128 OFFCURVE",
"630 270 CURVE SMOOTH",
"630 705 LINE",
"576 705 LINE"
);
}
);
width = 718;
}
);
leftKerningGroup = U;
rightKerningGroup = U;
unicode = 0172;
},
{
glyphname = V;
lastChange = "2017-11-14 17:21:06 +0000";
layers = (
{
anchors = (
{
name = bottom;
position = "{339, 0}";
},
{
name = top;
position = "{338, 705}";
}
);
background = {
anchors = (
{
name = bottom;
position = "{339, 0}";
},
{
name = top;
position = "{338, 705}";
}
);
paths = (
{
closed = 1;
nodes = (
"320 -12 OFFCURVE",
"358 -10 OFFCURVE",
"368 15 CURVE SMOOTH",
"661 678 LINE SMOOTH",
"674 708 OFFCURVE",
"626 726 OFFCURVE",
"613 696 CURVE SMOOTH",
"325 40 LINE",
"352 40 LINE",
"64 696 LINE SMOOTH",
"51 726 OFFCURVE",
"3 708 OFFCURVE",
"16 678 CURVE SMOOTH",
"308 15 LINE SMOOTH"
);
}
);
};
layerId = "9E718F8A-2CEA-4931-B05D-987794BD97DA";
paths = (
{
closed = 1;
nodes = (
"363 0 LINE",
"668 705 LINE",
"612 705 LINE",
"325 37 LINE",
"352 37 LINE",
"65 705 LINE",
"9 705 LINE",
"313 0 LINE"
);
}
);
width = 676;
}
);
leftKerningGroup = V;
rightKerningGroup = V;
unicode = 0056;
userData = {
anchors = (
);
b = {
};
com.typemytype.robofont.guides = (
);
com.typemytype.robofont.layerData = {
b = {
anchors = (
);
components = (
);
contours = (
{
points = (
{
segmentType = curve;
smooth = 1;
x = 644;
y = "-5";
},
{
smooth = 0;
x = 712;
y = "-5";
},
{
smooth = 0;
x = 764;
y = 38;
},
{
segmentType = curve;
smooth = 1;
x = 793;
y = 117;
},
{
segmentType = line;
smooth = 1;
x = 1243;
y = 1324;
},
{
smooth = 0;
x = 1247;
y = 1335;
},
{
smooth = 0;
x = 1248;
y = 1342;
},
{
segmentType = curve;
smooth = 1;
x = 1248;
y = 1351;
},
{
smooth = 0;
x = 1248;
y = 1395;
},
{
smooth = 0;
x = 1203;
y = 1427;
},
{
segmentType = curve;
smooth = 1;
x = 1160;
y = 1427;
},
{
smooth = 0;
x = 1125;
y = 1427;
},
{
smooth = 0;
x = 1090;
y = 1408;
},
{
segmentType = curve;
smooth = 1;
x = 1076;
y = 1369;
},
{
segmentType = line;
smooth = 0;
x = 651;
y = 192;
},
{
segmentType = line;
smooth = 0;
x = 650;
y = 190;
},
{
segmentType = line;
smooth = 1;
x = 214;
y = 1370;
},
{
smooth = 0;
x = 200;
y = 1407;
},
{
smooth = 0;
x = 170;
y = 1427;
},
{
segmentType = curve;
smooth = 1;
x = 135;
y = 1427;
},
{
smooth = 0;
x = 90;
y = 1427;
},
{
smooth = 0;
x = 43;
y = 1392;
},
{
segmentType = curve;
smooth = 1;
x = 43;
y = 1344;
},
{
smooth = 0;
x = 43;
y = 1336;
},
{
smooth = 0;
x = 44;
y = 1326;
},
{
segmentType = curve;
smooth = 0;
x = 48;
y = 1318;
},
{
segmentType = line;
smooth = 1;
x = 501;
y = 117;
},
{
smooth = 0;
x = 532;
y = 35;
},
{
smooth = 0;
x = 581;
y = "-5";
}
);
}
);
lib = {
};
name = V;
unicodes = (
);
width = 1289;
};
};
components = (
);
contours = (
);
lib = {
};
name = V;
unicodes = (
);
width = 1365;
};
},
{
glyphname = W;
lastChange = "2017-11-14 17:21:06 +0000";
layers = (
{
anchors = (
{
name = bottom;
position = "{548, 0}";
},
{
name = top;
position = "{547, 705}";
}
);
background = {
anchors = (
{
name = bottom;
position = "{548, 0}";
},
{
name = top;
position = "{547, 705}";
}
);
paths = (
{
closed = 1;
nodes = (
"285 -13 OFFCURVE",
"324 -11 OFFCURVE",
"333 15 CURVE SMOOTH",
"559 651 LINE",
"537 651 LINE",
"762 15 LINE SMOOTH",
"772 -13 OFFCURVE",
"811 -11 OFFCURVE",
"820 15 CURVE SMOOTH",
"1054 678 LINE SMOOTH",
"1065 708 OFFCURVE",
"1016 725 OFFCURVE",
"1005 694 CURVE SMOOTH",
"776 36 LINE",
"805 36 LINE",
"577 685 LINE SMOOTH",
"566 715 OFFCURVE",
"529 715 OFFCURVE",
"519 686 CURVE SMOOTH",
"290 36 LINE",
"319 36 LINE",
"90 694 LINE SMOOTH",
"79 725 OFFCURVE",
"30 708 OFFCURVE",
"41 678 CURVE SMOOTH",
"275 15 LINE SMOOTH"
);
}
);
};
layerId = "9E718F8A-2CEA-4931-B05D-987794BD97DA";
paths = (
{
closed = 1;
nodes = (
"332 0 LINE",
"558 649 LINE",
"537 649 LINE",
"763 0 LINE",
"811 0 LINE",
"1056 705 LINE",
"1002 705 LINE",
"771 35 LINE",
"801 35 LINE",
"570 704 LINE",
"526 705 LINE",
"294 35 LINE",
"323 35 LINE",
"93 705 LINE",
"39 705 LINE",
"284 0 LINE"
);
}
);
width = 1095;
}
);
leftKerningGroup = V;
rightKerningGroup = V;
unicode = 0057;
userData = {
anchors = (
);
b = {
};
com.typemytype.robofont.layerData = {
b = {
anchors = (
);
components = (
);
contours = (
);
lib = {
};
name = W;
unicodes = (
);
width = 2126;
};
};
components = (
);
contours = (
);
lib = {
};
name = W;
unicodes = (
);
width = 2070;
};
},
{
glyphname = X;
lastChange = "2017-11-14 17:21:06 +0000";
layers = (
{
anchors = (
{
name = bottom;
position = "{318, 0}";
},
{
name = top;
position = "{318, 705}";
}
);
background = {
anchors = (
{
name = bottom;
position = "{318, 0}";
},
{
name = top;
position = "{318, 705}";
}
);
paths = (
{
closed = 1;
nodes = (
"317 321 LINE",
"349 361 LINE",
"588 667 LINE SMOOTH",
"610 694 OFFCURVE",
"570 727 OFFCURVE",
"548 698 CURVE SMOOTH",
"317 401 LINE",
"286 361 LINE",
"33 38 LINE SMOOTH",
"11 11 OFFCURVE",
"51 -21 OFFCURVE",
"73 7 CURVE SMOOTH"
);
},
{
closed = 1;
nodes = (
"584 -21 OFFCURVE",
"623 11 OFFCURVE",
"601 38 CURVE SMOOTH",
"349 361 LINE",
"317 401 LINE",
"86 698 LINE SMOOTH",
"64 727 OFFCURVE",
"25 694 OFFCURVE",
"47 667 CURVE SMOOTH",
"286 361 LINE",
"317 321 LINE",
"561 7 LINE SMOOTH"
);
}
);
};
layerId = "9E718F8A-2CEA-4931-B05D-987794BD97DA";
paths = (
{
closed = 1;
nodes = (
"318 320 LINE",
"349 361 LINE",
"602 705 LINE",
"539 705 LINE",
"319 403 LINE",
"287 362 LINE",
"19 0 LINE",
"84 0 LINE"
);
},
{
closed = 1;
nodes = (
"616 0 LINE",
"349 361 LINE",
"319 403 LINE",
"98 705 LINE",
"34 705 LINE",
"287 362 LINE",
"318 320 LINE",
"552 0 LINE"
);
}
);
width = 635;
}
);
leftKerningGroup = X;
rightKerningGroup = X;
unicode = 0058;
userData = {
anchors = (
);
b = {
};
com.typemytype.robofont.layerData = {
b = {
anchors = (
);
components = (
);
contours = (
{
points = (
{
segmentType = curve;
smooth = 1;
x = 151;
y = 0;
},
{
smooth = 0;
x = 176;
y = 0;
},
{
smooth = 0;
x = 201;
y = 12;
},
{
segmentType = curve;
smooth = 1;
x = 222;
y = 41;
},
{
segmentType = line;
smooth = 0;
x = 641;
y = 616;
},
{
segmentType = line;
smooth = 0;
x = 746;
y = 734;
},
{
segmentType = line;
smooth = 1;
x = 1175;
y = 1310;
},
{
smooth = 0;
x = 1186;
y = 1325;
},
{
smooth = 0;
x = 1190;
y = 1338;
},
{
segmentType = curve;
smooth = 1;
x = 1190;
y = 1353;
},
{
smooth = 0;
x = 1190;
y = 1393;
},
{
smooth = 0;
x = 1153;
y = 1426;
},
{
segmentType = curve;
smooth = 1;
x = 1110;
y = 1426;
},
{
smooth = 0;
x = 1083;
y = 1426;
},
{
smooth = 0;
x = 1058;
y = 1414;
},
{
segmentType = curve;
smooth = 1;
x = 1037;
y = 1385;
},
{
segmentType = line;
smooth = 0;
x = 648;
y = 844;
},
{
segmentType = line;
smooth = 0;
x = 542;
y = 732;
},
{
segmentType = line;
smooth = 1;
x = 84;
y = 121;
},
{
smooth = 0;
x = 73;
y = 106;
},
{
smooth = 0;
x = 68;
y = 91;
},
{
segmentType = curve;
smooth = 1;
x = 68;
y = 76;
},
{
smooth = 0;
x = 68;
y = 35;
},
{
smooth = 0;
x = 108;
y = 0;
}
);
},
{
points = (
{
segmentType = curve;
smooth = 1;
x = 1104;
y = 0;
},
{
smooth = 0;
x = 1151;
y = 0;
},
{
smooth = 0;
x = 1200;
y = 40;
},
{
segmentType = curve;
smooth = 1;
x = 1200;
y = 85;
},
{
smooth = 0;
x = 1200;
y = 98;
},
{
smooth = 0;
x = 1195;
y = 113;
},
{
segmentType = curve;
smooth = 0;
x = 1186;
y = 126;
},
{
segmentType = line;
smooth = 0;
x = 272;
y = 1385;
},
{
smooth = 0;
x = 252;
y = 1414;
},
{
smooth = 0;
x = 225;
y = 1426;
},
{
segmentType = curve;
smooth = 1;
x = 197;
y = 1426;
},
{
smooth = 0;
x = 149;
y = 1426;
},
{
smooth = 0;
x = 100;
y = 1388;
},
{
segmentType = curve;
smooth = 1;
x = 100;
y = 1343;
},
{
smooth = 0;
x = 100;
y = 1328;
},
{
smooth = 0;
x = 105;
y = 1315;
},
{
segmentType = curve;
smooth = 0;
x = 114;
y = 1303;
},
{
segmentType = line;
smooth = 0;
x = 1033;
y = 40;
},
{
smooth = 0;
x = 1052;
y = 13;
},
{
smooth = 0;
x = 1076;
y = 0;
}
);
}
);
lib = {
};
name = X;
unicodes = (
);
width = 1274;
};
};
components = (
);
contours = (
);
lib = {
};
name = X;
unicodes = (
);
width = 1322;
};
},
{
glyphname = Y;
lastChange = "2017-11-14 17:21:06 +0000";
layers = (
{
anchors = (
{
name = bottom;
position = "{293, 0}";
},
{
name = top;
position = "{293, 705}";
},
{
name = topleft;
position = "{19, 705}";
}
);
background = {
anchors = (
{
name = bottom;
position = "{293, 0}";
},
{
name = top;
position = "{293, 705}";
},
{
name = topleft;
position = "{19, 705}";
}
);
paths = (
{
closed = 1;
nodes = (
"310 -5 OFFCURVE",
"320 7 OFFCURVE",
"320 24 CURVE SMOOTH",
"320 370 LINE",
"308 325 LINE",
"572 667 LINE SMOOTH",
"593 694 OFFCURVE",
"557 727 OFFCURVE",
"535 698 CURVE SMOOTH",
"288 377 LINE",
"300 377 LINE",
"52 698 LINE SMOOTH",
"30 727 OFFCURVE",
"-6 694 OFFCURVE",
"14 667 CURVE SMOOTH",
"279 325 LINE",
"266 370 LINE",
"266 24 LINE SMOOTH",
"266 7 OFFCURVE",
"276 -5 OFFCURVE",
"293 -5 CURVE SMOOTH"
);
}
);
};
layerId = "9E718F8A-2CEA-4931-B05D-987794BD97DA";
paths = (
{
closed = 1;
nodes = (
"320 0 LINE",
"320 367 LINE",
"308 322 LINE",
"591 705 LINE",
"530 705 LINE",
"286 374 LINE",
"303 374 LINE",
"58 705 LINE",
"-5 705 LINE",
"279 322 LINE",
"266 367 LINE",
"266 0 LINE"
);
}
);
width = 587;
}
);
leftKerningGroup = Y;
rightKerningGroup = Y;
unicode = 0059;
userData = {
anchors = (
);
b = {
};
com.typemytype.robofont.guides = (
);
com.typemytype.robofont.layerData = {
b = {
anchors = (
);
components = (
);
contours = (
{
points = (
{
segmentType = curve;
smooth = 1;
x = 641;
y = 0;
},
{
smooth = 0;
x = 685;
y = 0;
},
{
smooth = 0;
x = 730;
y = 29;
},
{
segmentType = curve;
smooth = 1;
x = 730;
y = 85;
},
{
segmentType = line;
smooth = 0;
x = 730;
y = 1285;
},
{
segmentType = line;
smooth = 1;
x = 1115;
y = 1285;
},
{
smooth = 0;
x = 1164;
y = 1285;
},
{
smooth = 0;
x = 1190;
y = 1319;
},
{
segmentType = curve;
smooth = 1;
x = 1190;
y = 1355;
},
{
smooth = 0;
x = 1190;
y = 1392;
},
{
smooth = 0;
x = 1166;
y = 1426;
},
{
segmentType = curve;
smooth = 1;
x = 1115;
y = 1426;
},
{
segmentType = line;
smooth = 1;
x = 160;
y = 1426;
},
{
smooth = 0;
x = 111;
y = 1426;
},
{
smooth = 0;
x = 86;
y = 1392;
},
{
segmentType = curve;
smooth = 1;
x = 86;
y = 1355;
},
{
smooth = 0;
x = 86;
y = 1319;
},
{
smooth = 0;
x = 111;
y = 1285;
},
{
segmentType = curve;
smooth = 1;
x = 160;
y = 1285;
},
{
segmentType = line;
smooth = 0;
x = 552;
y = 1285;
},
{
segmentType = line;
smooth = 1;
x = 552;
y = 85;
},
{
smooth = 0;
x = 552;
y = 29;
},
{
smooth = 0;
x = 596;
y = 0;
}
);
}
);
lib = {
};
name = Y;
unicodes = (
);
width = 1278;
};
};
components = (
);
contours = (
);
lib = {
};
name = Y;
unicodes = (
);
width = 1321;
};
},
{
glyphname = Z;
lastChange = "2017-11-14 17:21:06 +0000";
layers = (
{
anchors = (
{
name = bottom;
position = "{298, 0}";
},
{
name = top;
position = "{290, 705}";
}
);
background = {
anchors = (
{
name = bottom;
position = "{298, 0}";
},
{
name = top;
position = "{290, 705}";
}
);
paths = (
{
closed = 1;
nodes = (
"525 0 LINE SMOOTH",
"540 0 OFFCURVE",
"550 9 OFFCURVE",
"550 24 CURVE SMOOTH",
"550 39 OFFCURVE",
"540 48 OFFCURVE",
"525 48 CURVE SMOOTH",
"81 48 LINE",
"79 7 LINE",
"533 661 LINE SMOOTH",
"548 682 OFFCURVE",
"539 705 OFFCURVE",
"513 705 CURVE SMOOTH",
"63 705 LINE SMOOTH",
"49 705 OFFCURVE",
"39 696 OFFCURVE",
"39 681 CURVE SMOOTH",
"39 666 OFFCURVE",
"49 657 OFFCURVE",
"63 657 CURVE SMOOTH",
"497 657 LINE",
"499 698 LINE",
"46 45 LINE SMOOTH",
"31 23 OFFCURVE",
"39 0 OFFCURVE",
"65 0 CURVE SMOOTH"
);
}
);
};
layerId = "9E718F8A-2CEA-4931-B05D-987794BD97DA";
paths = (
{
closed = 1;
nodes = (
"545 0 LINE",
"545 48 LINE",
"81 48 LINE",
"79 7 LINE",
"535 665 LINE",
"535 705 LINE",
"43 705 LINE",
"43 657 LINE",
"497 657 LINE",
"499 698 LINE",
"43 40 LINE",
"43 0 LINE"
);
}
);
width = 582;
}
);
leftKerningGroup = Z;
rightKerningGroup = Z;
unicode = 005A;
userData = {
anchors = (
);
b = {
};
com.typemytype.robofont.layerData = {
b = {
anchors = (
);
components = (
);
contours = (
{
points = (
{
segmentType = curve;
smooth = 1;
x = 266;
y = 0;
},
{
segmentType = line;
smooth = 1;
x = 1035;
y = 0;
},
{
smooth = 0;
x = 1084;
y = 0;
},
{
smooth = 0;
x = 1108;
y = 34;
},
{
segmentType = curve;
smooth = 1;
x = 1108;
y = 71;
},
{
smooth = 0;
x = 1108;
y = 107;
},
{
smooth = 0;
x = 1084;
y = 141;
},
{
segmentType = curve;
smooth = 1;
x = 1035;
y = 141;
},
{
segmentType = line;
smooth = 0;
x = 356;
y = 141;
},
{
segmentType = line;
smooth = 0;
x = 356;
y = 665;
},
{
segmentType = line;
smooth = 1;
x = 975;
y = 665;
},
{
smooth = 0;
x = 1024;
y = 665;
},
{
smooth = 0;
x = 1049;
y = 698;
},
{
segmentType = curve;
smooth = 1;
x = 1049;
y = 734;
},
{
smooth = 0;
x = 1049;
y = 770;
},
{
smooth = 0;
x = 1026;
y = 803;
},
{
segmentType = curve;
smooth = 1;
x = 975;
y = 803;
},
{
segmentType = line;
smooth = 0;
x = 356;
y = 803;
},
{
segmentType = line;
smooth = 0;
x = 356;
y = 1285;
},
{
segmentType = line;
smooth = 1;
x = 1007;
y = 1285;
},
{
smooth = 0;
x = 1056;
y = 1285;
},
{
smooth = 0;
x = 1080;
y = 1319;
},
{
segmentType = curve;
smooth = 1;
x = 1080;
y = 1356;
},
{
smooth = 0;
x = 1080;
y = 1392;
},
{
smooth = 0;
x = 1056;
y = 1426;
},
{
segmentType = curve;
smooth = 1;
x = 1007;
y = 1426;
},
{
segmentType = line;
smooth = 1;
x = 261;
y = 1426;
},
{
smooth = 0;
x = 213;
y = 1426;
},
{
smooth = 0;
x = 178;
y = 1383;
},
{
segmentType = curve;
smooth = 1;
x = 178;
y = 1340;
},
{
segmentType = line;
smooth = 1;
x = 178;
y = 86;
},
{
smooth = 0;
x = 178;
y = 41;
},
{
smooth = 0;
x = 222;
y = 0;
}
);
}
);
lib = {
};
name = Z;
unicodes = (
);
width = 1165;
};
};
components = (
);
contours = (
);
lib = {
};
name = Z;
unicodes = (
);
width = 1222;
};
},
{
glyphname = a;
lastChange = "2017-11-14 17:21:06 +0000";
layers = (
{
anchors = (
{
name = bottom;
position = "{269, 0}";
},
{
name = ogonek;
position = "{440, 10}";
},
{
name = top;
position = "{272, 490}";
}
);
background = {
anchors = (
{
name = bottom;
position = "{269, 0}";
},
{
name = ogonek;
position = "{440, 10}";
},
{
name = top;
position = "{272, 490}";
}
);
paths = (
{
closed = 1;
nodes = (
"317 -7 OFFCURVE",
"381 39 OFFCURVE",
"402 123 CURVE",
"390 129 LINE",
"390 24 LINE SMOOTH",
"390 7 OFFCURVE",
"401 -4 OFFCURVE",
"417 -4 CURVE SMOOTH",
"434 -4 OFFCURVE",
"444 7 OFFCURVE",
"444 24 CURVE SMOOTH",
"444 314 LINE SMOOTH",
"444 436 OFFCURVE",
"387 497 OFFCURVE",
"272 497 CURVE SMOOTH",
"217 497 OFFCURVE",
"157 482 OFFCURVE",
"110 454 CURVE SMOOTH",
"85 439 OFFCURVE",
"75 427 OFFCURVE",
"75 412 CURVE SMOOTH",
"75 399 OFFCURVE",
"85 389 OFFCURVE",
"96 389 CURVE SMOOTH",
"106 389 OFFCURVE",
"118 398 OFFCURVE",
"133 408 CURVE",
"160 425 OFFCURVE",
"209 448 OFFCURVE",
"276 448 CURVE SMOOTH",
"355 448 OFFCURVE",
"390 408 OFFCURVE",
"390 318 CURVE SMOOTH",
"390 202 LINE SMOOTH",
"390 109 OFFCURVE",
"327 42 OFFCURVE",
"238 42 CURVE SMOOTH",
"173 42 OFFCURVE",
"124 84 OFFCURVE",
"124 142 CURVE SMOOTH",
"124 216 OFFCURVE",
"177 236 OFFCURVE",
"371 236 CURVE SMOOTH",
"401 236 LINE",
"401 279 LINE",
"369 279 LINE SMOOTH",
"138 279 OFFCURVE",
"65 245 OFFCURVE",
"66 137 CURVE SMOOTH",
"67 55 OFFCURVE",
"141 -7 OFFCURVE",
"235 -7 CURVE SMOOTH"
);
}
);
};
layerId = "9E718F8A-2CEA-4931-B05D-987794BD97DA";
paths = (
{
closed = 1;
nodes = (
"317 -7 OFFCURVE",
"381 39 OFFCURVE",
"402 123 CURVE",
"390 100 LINE",
"390 0 LINE",
"444 0 LINE",
"444 314 LINE SMOOTH",
"444 436 OFFCURVE",
"387 497 OFFCURVE",
"272 497 CURVE SMOOTH",
"207 497 OFFCURVE",
"135 474 OFFCURVE",
"86 438 CURVE",
"108 395 LINE",
"165 432 OFFCURVE",
"216 448 OFFCURVE",
"276 448 CURVE SMOOTH",
"355 448 OFFCURVE",
"390 408 OFFCURVE",
"390 318 CURVE SMOOTH",
"390 202 LINE SMOOTH",
"390 109 OFFCURVE",
"327 42 OFFCURVE",
"238 42 CURVE SMOOTH",
"173 42 OFFCURVE",
"124 84 OFFCURVE",
"124 142 CURVE SMOOTH",
"124 216 OFFCURVE",
"177 236 OFFCURVE",
"371 236 CURVE SMOOTH",
"401 236 LINE",
"401 279 LINE",
"369 279 LINE SMOOTH",
"138 279 OFFCURVE",
"65 245 OFFCURVE",
"66 137 CURVE SMOOTH",
"67 55 OFFCURVE",
"141 -7 OFFCURVE",
"235 -7 CURVE SMOOTH"
);
}
);
width = 524;
}
);
leftKerningGroup = a;
rightKerningGroup = n;
unicode = 0061;
userData = {
anchors = (
);
b = {
};
com.typemytype.robofont.layerData = {
b = {
anchors = (
);
components = (
);
contours = (
);
lib = {
};
name = a;
unicodes = (
);
width = 1040;
};
};
components = (
);
contours = (
);
lib = {
};
name = a;
unicodes = (
);
width = 1101;
};
},
{
glyphname = aogonek;
lastChange = "2017-11-14 17:21:06 +0000";
layers = (
{
background = {
paths = (
{
closed = 1;
nodes = (
"317 -7 OFFCURVE",
"381 39 OFFCURVE",
"402 123 CURVE",
"390 100 LINE",
"390 0 LINE",
"444 0 LINE",
"444 314 LINE SMOOTH",
"444 436 OFFCURVE",
"387 497 OFFCURVE",
"272 497 CURVE SMOOTH",
"207 497 OFFCURVE",
"135 474 OFFCURVE",
"86 438 CURVE",
"108 395 LINE",
"165 432 OFFCURVE",
"216 448 OFFCURVE",
"276 448 CURVE SMOOTH",
"355 448 OFFCURVE",
"390 408 OFFCURVE",
"390 318 CURVE SMOOTH",
"390 202 LINE SMOOTH",
"390 109 OFFCURVE",
"327 42 OFFCURVE",
"238 42 CURVE SMOOTH",
"173 42 OFFCURVE",
"124 84 OFFCURVE",
"124 142 CURVE SMOOTH",
"124 216 OFFCURVE",
"177 236 OFFCURVE",
"371 236 CURVE SMOOTH",
"401 236 LINE",
"401 279 LINE",
"369 279 LINE SMOOTH",
"138 279 OFFCURVE",
"65 245 OFFCURVE",
"66 137 CURVE SMOOTH",
"67 55 OFFCURVE",
"141 -7 OFFCURVE",
"235 -7 CURVE SMOOTH"
);
}
);
};
layerId = "9E718F8A-2CEA-4931-B05D-987794BD97DA";
paths = (
{
closed = 1;
nodes = (
"442 -191 OFFCURVE",
"470 -183 OFFCURVE",
"491 -168 CURVE",
"475 -130 LINE",
"454 -141 OFFCURVE",
"433 -148 OFFCURVE",
"416 -148 CURVE SMOOTH",
"374 -148 OFFCURVE",
"348 -123 OFFCURVE",
"348 -82 CURVE SMOOTH",
"348 -34 OFFCURVE",
"387 0 OFFCURVE",
"440 0 CURVE SMOOTH",
"444 0 LINE",
"444 314 LINE SMOOTH",
"444 436 OFFCURVE",
"387 497 OFFCURVE",
"272 497 CURVE SMOOTH",
"207 497 OFFCURVE",
"135 474 OFFCURVE",
"86 438 CURVE",
"108 395 LINE",
"165 432 OFFCURVE",
"216 448 OFFCURVE",
"276 448 CURVE SMOOTH",
"355 448 OFFCURVE",
"390 408 OFFCURVE",
"390 318 CURVE SMOOTH",
"390 202 LINE SMOOTH",
"390 109 OFFCURVE",
"327 42 OFFCURVE",
"238 42 CURVE SMOOTH",
"173 42 OFFCURVE",
"124 84 OFFCURVE",
"124 142 CURVE SMOOTH",
"124 216 OFFCURVE",
"177 236 OFFCURVE",
"371 236 CURVE SMOOTH",
"401 236 LINE",
"401 279 LINE",
"369 279 LINE SMOOTH",
"138 279 OFFCURVE",
"65 245 OFFCURVE",
"66 137 CURVE SMOOTH",
"67 55 OFFCURVE",
"141 -7 OFFCURVE",
"235 -7 CURVE SMOOTH",
"317 -7 OFFCURVE",
"381 39 OFFCURVE",
"402 123 CURVE",
"390 100 LINE",
"390 0 LINE",
"407 0 LINE",
"427 38 LINE",
"347 25 OFFCURVE",
"298 -23 OFFCURVE",
"298 -88 CURVE SMOOTH",
"298 -149 OFFCURVE",
"344 -191 OFFCURVE",
"411 -191 CURVE SMOOTH"
);
}
);
width = 524;
}
);
leftKerningGroup = a;
rightKerningGroup = n;
unicode = 0105;
userData = {
com.typemytype.robofont.layerData = {
b = {
anchors = (
);
components = (
);
contours = (
);
lib = {
};
name = aogonek;
unicodes = (
);
width = 1040;
};
};
};
},
{
glyphname = aringacute;
lastChange = "2017-11-14 17:21:06 +0000";
layers = (
{
background = {
paths = (
{
closed = 1;
nodes = (
"317 -7 OFFCURVE",
"381 39 OFFCURVE",
"402 123 CURVE",
"390 129 LINE",
"390 24 LINE SMOOTH",
"390 7 OFFCURVE",
"401 -4 OFFCURVE",
"417 -4 CURVE SMOOTH",
"434 -4 OFFCURVE",
"444 7 OFFCURVE",
"444 24 CURVE SMOOTH",
"444 314 LINE SMOOTH",
"444 436 OFFCURVE",
"387 497 OFFCURVE",
"272 497 CURVE SMOOTH",
"217 497 OFFCURVE",
"157 482 OFFCURVE",
"110 454 CURVE SMOOTH",
"85 439 OFFCURVE",
"75 427 OFFCURVE",
"75 412 CURVE SMOOTH",
"75 399 OFFCURVE",
"85 389 OFFCURVE",
"96 389 CURVE SMOOTH",
"106 389 OFFCURVE",
"118 398 OFFCURVE",
"133 408 CURVE",
"160 425 OFFCURVE",
"209 448 OFFCURVE",
"276 448 CURVE SMOOTH",
"355 448 OFFCURVE",
"390 408 OFFCURVE",
"390 318 CURVE SMOOTH",
"390 202 LINE SMOOTH",
"390 109 OFFCURVE",
"327 42 OFFCURVE",
"238 42 CURVE SMOOTH",
"173 42 OFFCURVE",
"124 84 OFFCURVE",
"124 142 CURVE SMOOTH",
"124 216 OFFCURVE",
"177 236 OFFCURVE",
"371 236 CURVE SMOOTH",
"401 236 LINE",
"401 279 LINE",
"369 279 LINE SMOOTH",
"138 279 OFFCURVE",
"65 245 OFFCURVE",
"66 137 CURVE SMOOTH",
"67 55 OFFCURVE",
"141 -7 OFFCURVE",
"235 -7 CURVE SMOOTH"
);
},
{
closed = 1;
nodes = (
"326 555 OFFCURVE",
"370 597 OFFCURVE",
"370 651 CURVE SMOOTH",
"370 705 OFFCURVE",
"326 747 OFFCURVE",
"272 747 CURVE SMOOTH",
"218 747 OFFCURVE",
"174 705 OFFCURVE",
"174 651 CURVE SMOOTH",
"174 597 OFFCURVE",
"218 555 OFFCURVE",
"272 555 CURVE SMOOTH"
);
},
{
closed = 1;
nodes = (
"243 599 OFFCURVE",
"222 622 OFFCURVE",
"222 651 CURVE SMOOTH",
"222 680 OFFCURVE",
"243 703 OFFCURVE",
"272 703 CURVE SMOOTH",
"301 703 OFFCURVE",
"322 680 OFFCURVE",
"322 651 CURVE SMOOTH",
"322 622 OFFCURVE",
"301 599 OFFCURVE",
"272 599 CURVE SMOOTH"
);
},
{
closed = 1;
nodes = (
"466 791 LINE SMOOTH",
"510 825 OFFCURVE",
"455 880 OFFCURVE",
"421 839 CURVE SMOOTH",
"322 722 LINE SMOOTH",
"308 705 OFFCURVE",
"328 685 OFFCURVE",
"345 698 CURVE SMOOTH"
);
}
);
};
layerId = "9E718F8A-2CEA-4931-B05D-987794BD97DA";
paths = (
{
closed = 1;
nodes = (
"317 -7 OFFCURVE",
"381 39 OFFCURVE",
"402 123 CURVE",
"390 100 LINE",
"390 0 LINE",
"444 0 LINE",
"444 314 LINE SMOOTH",
"444 436 OFFCURVE",
"387 497 OFFCURVE",
"272 497 CURVE SMOOTH",
"207 497 OFFCURVE",
"135 474 OFFCURVE",
"86 438 CURVE",
"108 395 LINE",
"165 432 OFFCURVE",
"216 448 OFFCURVE",
"276 448 CURVE SMOOTH",
"355 448 OFFCURVE",
"390 408 OFFCURVE",
"390 318 CURVE SMOOTH",
"390 202 LINE SMOOTH",
"390 109 OFFCURVE",
"327 42 OFFCURVE",
"238 42 CURVE SMOOTH",
"173 42 OFFCURVE",
"124 84 OFFCURVE",
"124 142 CURVE SMOOTH",
"124 216 OFFCURVE",
"177 236 OFFCURVE",
"371 236 CURVE SMOOTH",
"401 236 LINE",
"401 279 LINE",
"369 279 LINE SMOOTH",
"138 279 OFFCURVE",
"65 245 OFFCURVE",
"66 137 CURVE SMOOTH",
"67 55 OFFCURVE",
"141 -7 OFFCURVE",
"235 -7 CURVE SMOOTH"
);
},
{
closed = 1;
nodes = (
"326 555 OFFCURVE",
"370 597 OFFCURVE",
"370 651 CURVE SMOOTH",
"370 705 OFFCURVE",
"326 747 OFFCURVE",
"272 747 CURVE SMOOTH",
"218 747 OFFCURVE",
"174 705 OFFCURVE",
"174 651 CURVE SMOOTH",
"174 597 OFFCURVE",
"218 555 OFFCURVE",
"272 555 CURVE SMOOTH"
);
},
{
closed = 1;
nodes = (
"243 599 OFFCURVE",
"222 622 OFFCURVE",
"222 651 CURVE SMOOTH",
"222 680 OFFCURVE",
"243 703 OFFCURVE",
"272 703 CURVE SMOOTH",
"301 703 OFFCURVE",
"322 680 OFFCURVE",
"322 651 CURVE SMOOTH",
"322 622 OFFCURVE",
"301 599 OFFCURVE",
"272 599 CURVE SMOOTH"
);
},
{
closed = 1;
nodes = (
"348 698 LINE",
"475 848 LINE",
"406 848 LINE",
"306 698 LINE"
);
}
);
width = 524;
}
);
leftKerningGroup = a;
rightKerningGroup = n;
unicode = 01FB;
},
{
glyphname = ae;
lastChange = "2017-11-14 17:21:06 +0000";
layers = (
{
anchors = (
{
name = bottom;
position = "{422, 0}";
},
{
name = top;
position = "{422, 490}";
}
);
background = {
anchors = (
{
name = bottom;
position = "{422, 0}";
},
{
name = top;
position = "{422, 490}";
}
);
paths = (
{
closed = 1;
nodes = (
"675 -7 OFFCURVE",
"726 8 OFFCURVE",
"773 36 CURVE SMOOTH",
"797 50 OFFCURVE",
"807 63 OFFCURVE",
"807 78 CURVE SMOOTH",
"807 91 OFFCURVE",
"798 101 OFFCURVE",
"787 101 CURVE SMOOTH",
"764 101 OFFCURVE",
"722 42 OFFCURVE",
"625 42 CURVE SMOOTH",
"512 42 OFFCURVE",
"449 114 OFFCURVE",
"449 246 CURVE SMOOTH",
"449 373 OFFCURVE",
"512 451 OFFCURVE",
"614 451 CURVE SMOOTH",
"711 451 OFFCURVE",
"765 381 OFFCURVE",
"761 256 CURVE",
"781 279 LINE",
"429 279 LINE",
"430 236 LINE",
"778 236 LINE SMOOTH",
"801 236 OFFCURVE",
"811 246 OFFCURVE",
"811 271 CURVE SMOOTH",
"811 410 OFFCURVE",
"734 497 OFFCURVE",
"614 497 CURVE SMOOTH",
"484 497 OFFCURVE",
"395 392 OFFCURVE",
"400 241 CURVE SMOOTH",
"405 84 OFFCURVE",
"488 -7 OFFCURVE",
"626 -7 CURVE SMOOTH"
);
},
{
closed = 1;
nodes = (
"346 -7 OFFCURVE",
"416 62 OFFCURVE",
"428 171 CURVE",
"447 171 LINE",
"447 319 LINE",
"447 437 OFFCURVE",
"389 497 OFFCURVE",
"274 497 CURVE SMOOTH",
"212 497 OFFCURVE",
"159 483 OFFCURVE",
"110 454 CURVE SMOOTH",
"86 440 OFFCURVE",
"75 427 OFFCURVE",
"75 412 CURVE SMOOTH",
"75 399 OFFCURVE",
"84 389 OFFCURVE",
"95 389 CURVE SMOOTH",
"118 389 OFFCURVE",
"160 448 OFFCURVE",
"279 448 CURVE SMOOTH",
"360 448 OFFCURVE",
"394 408 OFFCURVE",
"394 314 CURVE SMOOTH",
"394 206 LINE SMOOTH",
"394 110 OFFCURVE",
"331 42 OFFCURVE",
"243 42 CURVE SMOOTH",
"174 42 OFFCURVE",
"124 83 OFFCURVE",
"124 142 CURVE SMOOTH",
"124 216 OFFCURVE",
"178 236 OFFCURVE",
"375 236 CURVE SMOOTH",
"405 236 LINE",
"405 279 LINE",
"373 279 LINE SMOOTH",
"139 279 OFFCURVE",
"65 245 OFFCURVE",
"66 137 CURVE SMOOTH",
"67 54 OFFCURVE",
"142 -7 OFFCURVE",
"240 -7 CURVE SMOOTH"
);
}
);
};
layerId = "9E718F8A-2CEA-4931-B05D-987794BD97DA";
paths = (
{
closed = 1;
nodes = (
"691 -7 OFFCURVE",
"762 20 OFFCURVE",
"803 60 CURVE",
"781 103 LINE",
"731 62 OFFCURVE",
"679 42 OFFCURVE",
"625 42 CURVE SMOOTH",
"512 42 OFFCURVE",
"449 114 OFFCURVE",
"449 246 CURVE SMOOTH",
"449 373 OFFCURVE",
"512 451 OFFCURVE",
"614 451 CURVE SMOOTH",
"711 451 OFFCURVE",
"764 381 OFFCURVE",
"761 256 CURVE",
"781 279 LINE",
"429 279 LINE",
"430 236 LINE",
"811 236 LINE",
"811 261 LINE SMOOTH",
"811 409 OFFCURVE",
"738 497 OFFCURVE",
"614 497 CURVE SMOOTH",
"484 497 OFFCURVE",
"395 392 OFFCURVE",
"400 241 CURVE SMOOTH",
"405 84 OFFCURVE",
"488 -7 OFFCURVE",
"626 -7 CURVE SMOOTH"
);
},
{
closed = 1;
nodes = (
"346 -7 OFFCURVE",
"416 62 OFFCURVE",
"428 171 CURVE",
"447 171 LINE",
"447 319 LINE",
"447 437 OFFCURVE",
"389 497 OFFCURVE",
"274 497 CURVE SMOOTH",
"208 497 OFFCURVE",
"135 474 OFFCURVE",
"86 438 CURVE",
"108 395 LINE",
"166 431 OFFCURVE",
"219 448 OFFCURVE",
"278 448 CURVE SMOOTH",
"360 448 OFFCURVE",
"394 408 OFFCURVE",
"394 314 CURVE SMOOTH",
"394 208 LINE SMOOTH",
"394 110 OFFCURVE",
"331 42 OFFCURVE",
"243 42 CURVE SMOOTH",
"174 42 OFFCURVE",
"124 83 OFFCURVE",
"124 142 CURVE SMOOTH",
"124 216 OFFCURVE",
"178 236 OFFCURVE",
"375 236 CURVE SMOOTH",
"405 236 LINE",
"405 279 LINE",
"373 279 LINE SMOOTH",
"139 279 OFFCURVE",
"65 245 OFFCURVE",
"66 137 CURVE SMOOTH",
"67 54 OFFCURVE",
"142 -7 OFFCURVE",
"240 -7 CURVE SMOOTH"
);
}
);
width = 859;
}
);
leftKerningGroup = a;
rightKerningGroup = e;
unicode = 00E6;
userData = {
com.typemytype.robofont.layerData = {
b = {
anchors = (
);
components = (
);
contours = (
);
lib = {
};
name = ae;
unicodes = (
);
width = 1734;
};
};
};
},
{
glyphname = b;
lastChange = "2017-11-14 17:21:06 +0000";
layers = (
{
anchors = (
{
name = bottom;
position = "{301, 0}";
},
{
name = top;
position = "{304, 490}";
}
);
background = {
anchors = (
{
name = bottom;
position = "{301, 0}";
},
{
name = top;
position = "{304, 490}";
}
);
paths = (
{
closed = 1;
nodes = (
"432 -7 OFFCURVE",
"520 92 OFFCURVE",
"520 245 CURVE SMOOTH",
"520 398 OFFCURVE",
"432 497 OFFCURVE",
"299 497 CURVE SMOOTH",
"166 497 OFFCURVE",
"78 398 OFFCURVE",
"78 245 CURVE SMOOTH",
"78 92 OFFCURVE",
"166 -7 OFFCURVE",
"299 -7 CURVE SMOOTH"
);
},
{
closed = 1;
nodes = (
"194 42 OFFCURVE",
"135 114 OFFCURVE",
"135 245 CURVE SMOOTH",
"135 373 OFFCURVE",
"196 448 OFFCURVE",
"299 448 CURVE SMOOTH",
"402 448 OFFCURVE",
"463 373 OFFCURVE",
"463 245 CURVE SMOOTH",
"463 114 OFFCURVE",
"404 42 OFFCURVE",
"298 42 CURVE SMOOTH"
);
}
);
};
layerId = "9E718F8A-2CEA-4931-B05D-987794BD97DA";
paths = (
{
closed = 1;
nodes = (
"136 0 LINE",
"136 135 LINE",
"125 127 LINE",
"147 41 OFFCURVE",
"212 -7 OFFCURVE",
"304 -7 CURVE SMOOTH",
"433 -7 OFFCURVE",
"520 94 OFFCURVE",
"520 247 CURVE SMOOTH",
"520 399 OFFCURVE",
"434 497 OFFCURVE",
"304 497 CURVE SMOOTH",
"212 497 OFFCURVE",
"147 449 OFFCURVE",
"125 363 CURVE",
"136 355 LINE",
"136 705 LINE",
"82 705 LINE",
"82 0 LINE"
);
},
{
closed = 1;
nodes = (
"194 42 OFFCURVE",
"136 116 OFFCURVE",
"136 245 CURVE SMOOTH",
"136 374 OFFCURVE",
"194 448 OFFCURVE",
"298 448 CURVE SMOOTH",
"402 448 OFFCURVE",
"463 375 OFFCURVE",
"463 247 CURVE SMOOTH",
"463 118 OFFCURVE",
"402 42 OFFCURVE",
"299 42 CURVE SMOOTH"
);
}
);
width = 570;
}
);
leftKerningGroup = h;
rightKerningGroup = o;
unicode = 0062;
userData = {
anchors = (
);
b = {
};
com.typemytype.robofont.layerData = {
b = {
anchors = (
);
components = (
);
contours = (
{
points = (
{
segmentType = curve;
smooth = 1;
x = 238;
y = 1425;
},
{
smooth = 0;
x = 198;
y = 1425;
},
{
smooth = 0;
x = 158;
y = 1400;
},
{
segmentType = curve;
smooth = 1;
x = 158;
y = 1351;
},
{
segmentType = line;
smooth = 1;
x = 158;
y = 76;
},
{
smooth = 0;
x = 158;
y = 27;
},
{
smooth = 0;
x = 197;
y = 3;
},
{
segmentType = curve;
smooth = 1;
x = 237;
y = 3;
},
{
smooth = 0;
x = 297;
y = 3;
},
{
smooth = 0;
x = 318;
y = 38;
},
{
segmentType = curve;
smooth = 1;
x = 318;
y = 76;
},
{
segmentType = line;
smooth = 0;
x = 318;
y = 183;
},
{
smooth = 0;
x = 384;
y = 46;
},
{
smooth = 0;
x = 516;
y = "-20";
},
{
segmentType = curve;
smooth = 1;
x = 666;
y = "-20";
},
{
smooth = 0;
x = 957;
y = "-20";
},
{
smooth = 0;
x = 1095;
y = 225;
},
{
segmentType = curve;
smooth = 1;
x = 1095;
y = 502;
},
{
smooth = 0;
x = 1095;
y = 777;
},
{
smooth = 0;
x = 939;
y = 1013;
},
{
segmentType = curve;
smooth = 1;
x = 650;
y = 1013;
},
{
smooth = 0;
x = 503;
y = 1013;
},
{
smooth = 0;
x = 376;
y = 942;
},
{
segmentType = curve;
smooth = 0;
x = 318;
y = 814;
},
{
segmentType = line;
smooth = 1;
x = 318;
y = 1351;
},
{
smooth = 0;
x = 318;
y = 1400;
},
{
smooth = 0;
x = 278;
y = 1425;
}
);
},
{
points = (
{
segmentType = curve;
smooth = 1;
x = 632;
y = 903;
},
{
smooth = 0;
x = 859;
y = 903;
},
{
smooth = 0;
x = 935;
y = 685;
},
{
segmentType = curve;
smooth = 1;
x = 935;
y = 496;
},
{
smooth = 0;
x = 935;
y = 316;
},
{
smooth = 0;
x = 869;
y = 93;
},
{
segmentType = curve;
smooth = 0;
x = 645;
y = 90;
},
{
smooth = 0;
x = 395;
y = 90;
},
{
smooth = 0;
x = 319;
y = 279;
},
{
segmentType = curve;
smooth = 1;
x = 319;
y = 501;
},
{
smooth = 0;
x = 319;
y = 701;
},
{
smooth = 0;
x = 407;
y = 903;
}
);
}
);
lib = {
};
name = b;
unicodes = (
);
width = 1181;
};
};
components = (
);
contours = (
);
lib = {
};
name = b;
unicodes = (
);
width = 1203;
};
},
{
glyphname = c;
lastChange = "2017-11-14 17:21:06 +0000";
layers = (
{
anchors = (
{
name = bottom;
position = "{273, 0}";
},
{
name = top;
position = "{275, 490}";
}
);
background = {
anchors = (
{
name = bottom;
position = "{773, 0}";
},
{
name = top;
position = "{775, 490}";
}
);
paths = (
{
closed = 1;
nodes = (
"323 -7 OFFCURVE",
"378 10 OFFCURVE",
"414 36 CURVE SMOOTH",
"440 55 OFFCURVE",
"448 64 OFFCURVE",
"448 79 CURVE SMOOTH",
"448 91 OFFCURVE",
"439 101 OFFCURVE",
"428 101 CURVE SMOOTH",
"405 101 OFFCURVE",
"366 42 OFFCURVE",
"276 42 CURVE SMOOTH",
"170 42 OFFCURVE",
"107 116 OFFCURVE",
"107 243 CURVE SMOOTH",
"107 371 OFFCURVE",
"171 448 OFFCURVE",
"277 448 CURVE SMOOTH",
"367 448 OFFCURVE",
"401 389 OFFCURVE",
"425 389 CURVE SMOOTH",
"436 389 OFFCURVE",
"445 399 OFFCURVE",
"445 411 CURVE SMOOTH",
"445 426 OFFCURVE",
"437 438 OFFCURVE",
"411 457 CURVE SMOOTH",
"374 484 OFFCURVE",
"323 497 OFFCURVE",
"275 497 CURVE SMOOTH",
"141 497 OFFCURVE",
"50 395 OFFCURVE",
"50 243 CURVE SMOOTH",
"50 93 OFFCURVE",
"140 -7 OFFCURVE",
"273 -7 CURVE SMOOTH"
);
}
);
};
layerId = "9E718F8A-2CEA-4931-B05D-987794BD97DA";
paths = (
{
closed = 1;
nodes = (
"340 -7 OFFCURVE",
"405 18 OFFCURVE",
"445 58 CURVE",
"423 101 LINE",
"373 60 OFFCURVE",
"329 42 OFFCURVE",
"279 42 CURVE SMOOTH",
"172 42 OFFCURVE",
"107 116 OFFCURVE",
"107 243 CURVE SMOOTH",
"107 371 OFFCURVE",
"173 448 OFFCURVE",
"280 448 CURVE SMOOTH",
"329 448 OFFCURVE",
"373 430 OFFCURVE",
"423 389 CURVE",
"445 432 LINE",
"407 472 OFFCURVE",
"343 497 OFFCURVE",
"278 497 CURVE SMOOTH",
"139 497 OFFCURVE",
"50 395 OFFCURVE",
"50 243 CURVE SMOOTH",
"50 93 OFFCURVE",
"138 -7 OFFCURVE",
"276 -7 CURVE SMOOTH"
);
}
);
width = 473;
}
);
leftKerningGroup = o;
rightKerningGroup = c;
unicode = 0063;
userData = {
anchors = (
);
b = {
};
com.typemytype.robofont.layerData = {
b = {
anchors = (
);
components = (
);
contours = (
);
lib = {
};
name = c;
unicodes = (
);
width = 956.14099;
};
};
components = (
);
contours = (
);
lib = {
};
name = c;
unicodes = (
);
width = 992;
};
},
{
glyphname = d;
lastChange = "2017-11-14 17:21:06 +0000";
layers = (
{
anchors = (
{
name = bottom;
position = "{287, 0}";
},
{
name = center;
position = "{287, 245}";
},
{
name = top;
position = "{287, 490}";
},
{
name = topright;
position = "{528, 705}";
}
);
background = {
anchors = (
{
name = bottom;
position = "{287, 0}";
},
{
name = center;
position = "{287, 245}";
},
{
name = top;
position = "{287, 490}";
},
{
name = topright;
position = "{528, 705}";
}
);
paths = (
{
closed = 1;
nodes = (
"358 -7 OFFCURVE",
"423 41 OFFCURVE",
"445 127 CURVE",
"434 135 LINE",
"434 24 LINE SMOOTH",
"434 7 OFFCURVE",
"444 -4 OFFCURVE",
"461 -4 CURVE SMOOTH",
"478 -4 OFFCURVE",
"488 7 OFFCURVE",
"488 24 CURVE SMOOTH",
"488 682 LINE SMOOTH",
"488 699 OFFCURVE",
"478 710 OFFCURVE",
"461 710 CURVE SMOOTH",
"444 710 OFFCURVE",
"434 699 OFFCURVE",
"434 682 CURVE SMOOTH",
"434 355 LINE",
"445 363 LINE",
"423 449 OFFCURVE",
"358 497 OFFCURVE",
"266 497 CURVE SMOOTH",
"136 497 OFFCURVE",
"50 399 OFFCURVE",
"50 247 CURVE SMOOTH",
"50 94 OFFCURVE",
"137 -7 OFFCURVE",
"266 -7 CURVE SMOOTH"
);
},
{
closed = 1;
nodes = (
"168 42 OFFCURVE",
"107 118 OFFCURVE",
"107 247 CURVE SMOOTH",
"107 375 OFFCURVE",
"168 448 OFFCURVE",
"272 448 CURVE SMOOTH",
"376 448 OFFCURVE",
"434 374 OFFCURVE",
"434 245 CURVE SMOOTH",
"434 115 OFFCURVE",
"375 42 OFFCURVE",
"271 42 CURVE SMOOTH"
);
}
);
};
layerId = "9E718F8A-2CEA-4931-B05D-987794BD97DA";
paths = (
{
closed = 1;
nodes = (
"488 705 LINE",
"434 705 LINE",
"434 355 LINE",
"445 363 LINE",
"423 449 OFFCURVE",
"358 497 OFFCURVE",
"266 497 CURVE SMOOTH",
"136 497 OFFCURVE",
"50 399 OFFCURVE",
"50 247 CURVE SMOOTH",
"50 94 OFFCURVE",
"137 -7 OFFCURVE",
"266 -7 CURVE SMOOTH",
"358 -7 OFFCURVE",
"423 41 OFFCURVE",
"445 127 CURVE",
"434 135 LINE",
"434 0 LINE",
"488 0 LINE"
);
},
{
closed = 1;
nodes = (
"168 42 OFFCURVE",
"107 118 OFFCURVE",
"107 247 CURVE SMOOTH",
"107 375 OFFCURVE",
"168 448 OFFCURVE",
"272 448 CURVE SMOOTH",
"376 448 OFFCURVE",
"434 374 OFFCURVE",
"434 245 CURVE SMOOTH",
"434 116 OFFCURVE",
"376 42 OFFCURVE",
"271 42 CURVE SMOOTH"
);
}
);
width = 570;
}
);
leftKerningGroup = o;
rightKerningGroup = l;
unicode = 0064;
userData = {
anchors = (
);
b = {
};
com.typemytype.robofont.layerData = {
b = {
anchors = (
);
components = (
);
contours = (
);
lib = {
};
name = d;
unicodes = (
);
width = 1181;
};
};
components = (
);
contours = (
);
lib = {
};
name = d;
unicodes = (
);
width = 1207;
};
},
{
glyphname = eth;
lastChange = "2017-11-14 17:21:06 +0000";
layers = (
{
background = {
paths = (
{
closed = 1;
nodes = (
"417 -7 OFFCURVE",
"495 91 OFFCURVE",
"495 279 CURVE SMOOTH",
"495 516 OFFCURVE",
"356 645 OFFCURVE",
"213 704 CURVE SMOOTH",
"167 723 OFFCURVE",
"147 676 OFFCURVE",
"191 658 CURVE SMOOTH",
"328 602 OFFCURVE",
"442 482 OFFCURVE",
"442 291 CURVE",
"468 289 LINE",
"449 383 OFFCURVE",
"392 455 OFFCURVE",
"271 455 CURVE SMOOTH",
"138 455 OFFCURVE",
"50 364 OFFCURVE",
"50 224 CURVE SMOOTH",
"50 84 OFFCURVE",
"137 -7 OFFCURVE",
"270 -7 CURVE SMOOTH"
);
},
{
closed = 1;
nodes = (
"166 42 OFFCURVE",
"107 107 OFFCURVE",
"107 224 CURVE SMOOTH",
"107 339 OFFCURVE",
"168 406 OFFCURVE",
"271 406 CURVE SMOOTH",
"377 406 OFFCURVE",
"435 336 OFFCURVE",
"435 225 CURVE SMOOTH",
"435 110 OFFCURVE",
"373 42 OFFCURVE",
"270 42 CURVE SMOOTH"
);
},
{
closed = 1;
nodes = (
"477 625 LINE SMOOTH",
"506 637 OFFCURVE",
"489 676 OFFCURVE",
"461 665 CURVE SMOOTH",
"182 554 LINE SMOOTH",
"154 543 OFFCURVE",
"171 502 OFFCURVE",
"198 513 CURVE SMOOTH"
);
}
);
};
guideLines = (
{
angle = 90;
position = "{167, 496}";
},
{
angle = 90;
position = "{495, 496}";
}
);
layerId = "9E718F8A-2CEA-4931-B05D-987794BD97DA";
paths = (
{
closed = 1;
nodes = (
"418 -7 OFFCURVE",
"495 92 OFFCURVE",
"495 284 CURVE SMOOTH",
"495 502 OFFCURVE",
"385 648 OFFCURVE",
"175 711 CURVE",
"160 668 LINE",
"345 613 OFFCURVE",
"444 481 OFFCURVE",
"442 291 CURVE",
"468 289 LINE",
"446 397 OFFCURVE",
"378 455 OFFCURVE",
"271 455 CURVE SMOOTH",
"138 455 OFFCURVE",
"50 364 OFFCURVE",
"50 224 CURVE SMOOTH",
"50 84 OFFCURVE",
"137 -7 OFFCURVE",
"270 -7 CURVE SMOOTH"
);
},
{
closed = 1;
nodes = (
"166 42 OFFCURVE",
"107 107 OFFCURVE",
"107 224 CURVE SMOOTH",
"107 339 OFFCURVE",
"168 406 OFFCURVE",
"271 406 CURVE SMOOTH",
"374 406 OFFCURVE",
"435 339 OFFCURVE",
"435 224 CURVE SMOOTH",
"435 110 OFFCURVE",
"373 42 OFFCURVE",
"270 42 CURVE SMOOTH"
);
},
{
closed = 1;
nodes = (
"493 631 LINE",
"478 672 LINE",
"167 548 LINE",
"182 507 LINE"
);
}
);
width = 545;
}
);
leftKerningGroup = o;
rightKerningGroup = o;
unicode = 00F0;
userData = {
com.typemytype.robofont.layerData = {
b = {
anchors = (
);
components = (
);
contours = (
);
lib = {
};
name = eth;
unicodes = (
);
width = 1230;
};
};
};
},
{
glyphname = dcaron;
lastChange = "2017-11-14 17:21:06 +0000";
layers = (
{
background = {
components = (
{
name = d;
}
);
paths = (
{
closed = 1;
nodes = (
"581 673 LINE SMOOTH",
"588 720 OFFCURVE",
"524 725 OFFCURVE",
"524 678 CURVE SMOOTH",
"524 530 LINE SMOOTH",
"524 508 OFFCURVE",
"556 505 OFFCURVE",
"559 527 CURVE SMOOTH"
);
}
);
};
components = (
{
name = d;
}
);
layerId = "9E718F8A-2CEA-4931-B05D-987794BD97DA";
paths = (
{
closed = 1;
nodes = (
"583 705 LINE",
"524 705 LINE",
"524 516 LINE",
"557 516 LINE"
);
}
);
width = 570;
}
);
leftKerningGroup = o;
rightKerningGroup = lcaron;
unicode = 010F;
},
{
glyphname = dcroat;
lastChange = "2017-11-14 17:21:06 +0000";
layers = (
{
background = {
paths = (
{
closed = 1;
nodes = (
"358 -7 OFFCURVE",
"423 41 OFFCURVE",
"445 127 CURVE",
"434 135 LINE",
"434 24 LINE SMOOTH",
"434 7 OFFCURVE",
"444 -4 OFFCURVE",
"461 -4 CURVE SMOOTH",
"478 -4 OFFCURVE",
"488 7 OFFCURVE",
"488 24 CURVE SMOOTH",
"488 682 LINE SMOOTH",
"488 699 OFFCURVE",
"478 710 OFFCURVE",
"461 710 CURVE SMOOTH",
"444 710 OFFCURVE",
"434 699 OFFCURVE",
"434 682 CURVE SMOOTH",
"434 355 LINE",
"445 363 LINE",
"423 449 OFFCURVE",
"358 497 OFFCURVE",
"266 497 CURVE SMOOTH",
"136 497 OFFCURVE",
"50 399 OFFCURVE",
"50 247 CURVE SMOOTH",
"50 94 OFFCURVE",
"137 -7 OFFCURVE",
"266 -7 CURVE SMOOTH"
);
},
{
closed = 1;
nodes = (
"168 42 OFFCURVE",
"107 118 OFFCURVE",
"107 247 CURVE SMOOTH",
"107 375 OFFCURVE",
"168 448 OFFCURVE",
"272 448 CURVE SMOOTH",
"376 448 OFFCURVE",
"434 374 OFFCURVE",
"434 245 CURVE SMOOTH",
"434 115 OFFCURVE",
"375 42 OFFCURVE",
"271 42 CURVE SMOOTH"
);
},
{
closed = 1;
nodes = (
"565 563 LINE SMOOTH",
"579 563 OFFCURVE",
"588 572 OFFCURVE",
"588 585 CURVE SMOOTH",
"588 598 OFFCURVE",
"579 608 OFFCURVE",
"565 608 CURVE SMOOTH",
"257 608 LINE SMOOTH",
"243 608 OFFCURVE",
"234 598 OFFCURVE",
"234 585 CURVE SMOOTH",
"234 572 OFFCURVE",
"243 563 OFFCURVE",
"257 563 CURVE SMOOTH"
);
}
);
};
layerId = "9E718F8A-2CEA-4931-B05D-987794BD97DA";
paths = (
{
closed = 1;
nodes = (
"583 563 LINE",
"583 608 LINE",
"239 608 LINE",
"239 563 LINE"
);
},
{
closed = 1;
nodes = (
"488 705 LINE",
"434 705 LINE",
"434 355 LINE",
"445 363 LINE",
"423 449 OFFCURVE",
"358 497 OFFCURVE",
"266 497 CURVE SMOOTH",
"136 497 OFFCURVE",
"50 399 OFFCURVE",
"50 247 CURVE SMOOTH",
"50 94 OFFCURVE",
"137 -7 OFFCURVE",
"266 -7 CURVE SMOOTH",
"358 -7 OFFCURVE",
"423 41 OFFCURVE",
"445 127 CURVE",
"434 135 LINE",
"434 0 LINE",
"488 0 LINE"
);
},
{
closed = 1;
nodes = (
"168 42 OFFCURVE",
"107 118 OFFCURVE",
"107 247 CURVE SMOOTH",
"107 375 OFFCURVE",
"168 448 OFFCURVE",
"272 448 CURVE SMOOTH",
"376 448 OFFCURVE",
"434 374 OFFCURVE",
"434 245 CURVE SMOOTH",
"434 116 OFFCURVE",
"376 42 OFFCURVE",
"271 42 CURVE SMOOTH"
);
}
);
width = 570;
}
);
leftKerningGroup = o;
rightKerningGroup = l;
unicode = 0111;
userData = {
com.typemytype.robofont.layerData = {
b = {
anchors = (
);
components = (
);
contours = (
);
lib = {
};
name = dcroat;
unicodes = (
);
width = 1181;
};
};
};
},
{
glyphname = e;
lastChange = "2017-11-14 17:21:06 +0000";
layers = (
{
anchors = (
{
name = bottom;
position = "{287, 0}";
},
{
name = ogonek;
position = "{377, 10}";
},
{
name = top;
position = "{276, 490}";
}
);
background = {
anchors = (
{
name = bottom;
position = "{987, 0}";
},
{
name = ogonek;
position = "{1077, 10}";
},
{
name = top;
position = "{976, 490}";
}
);
paths = (
{
closed = 1;
nodes = (
"404 -7 OFFCURVE",
"492 92 OFFCURVE",
"492 245 CURVE SMOOTH",
"492 398 OFFCURVE",
"404 497 OFFCURVE",
"271 497 CURVE SMOOTH",
"138 497 OFFCURVE",
"50 398 OFFCURVE",
"50 245 CURVE SMOOTH",
"50 92 OFFCURVE",
"138 -7 OFFCURVE",
"271 -7 CURVE SMOOTH"
);
},
{
closed = 1;
nodes = (
"166 42 OFFCURVE",
"107 114 OFFCURVE",
"107 245 CURVE SMOOTH",
"107 373 OFFCURVE",
"168 448 OFFCURVE",
"271 448 CURVE SMOOTH",
"374 448 OFFCURVE",
"435 373 OFFCURVE",
"435 245 CURVE SMOOTH",
"435 114 OFFCURVE",
"376 42 OFFCURVE",
"270 42 CURVE SMOOTH"
);
}
);
};
guideLines = (
{
angle = 90;
position = "{477, 186}";
}
);
layerId = "9E718F8A-2CEA-4931-B05D-987794BD97DA";
paths = (
{
closed = 1;
nodes = (
"447 103 LINE",
"396 61 OFFCURVE",
"345 42 OFFCURVE",
"286 42 CURVE SMOOTH",
"170 42 OFFCURVE",
"107 114 OFFCURVE",
"107 246 CURVE SMOOTH",
"107 374 OFFCURVE",
"171 451 OFFCURVE",
"276 451 CURVE SMOOTH",
"377 451 OFFCURVE",
"431 381 OFFCURVE",
"427 256 CURVE",
"447 279 LINE",
"97 279 LINE",
"98 236 LINE",
"477 236 LINE",
"477 263 LINE SMOOTH",
"477 410 OFFCURVE",
"402 497 OFFCURVE",
"276 497 CURVE SMOOTH",
"142 497 OFFCURVE",
"50 395 OFFCURVE",
"50 244 CURVE SMOOTH",
"50 87 OFFCURVE",
"140 -7 OFFCURVE",
"287 -7 CURVE SMOOTH",
"356 -7 OFFCURVE",
"427 19 OFFCURVE",
"469 60 CURVE"
);
}
);
width = 525;
}
);
leftKerningGroup = o;
rightKerningGroup = e;
unicode = 0065;
userData = {
anchors = (
);
b = {
};
com.typemytype.robofont.layerData = {
b = {
anchors = (
);
components = (
);
contours = (
);
lib = {
};
name = e;
unicodes = (
);
width = 1132;
};
};
components = (
);
contours = (
);
lib = {
};
name = e;
unicodes = (
);
width = 1132;
};
},
{
glyphname = eogonek;
lastChange = "2017-11-14 17:21:06 +0000";
layers = (
{
anchors = (
{
name = top;
position = "{276, 490}";
}
);
background = {
anchors = (
{
name = top;
position = "{276, 490}";
}
);
paths = (
{
closed = 1;
nodes = (
"414 -191 OFFCURVE",
"437 -186 OFFCURVE",
"458 -174 CURVE SMOOTH",
"482 -160 OFFCURVE",
"473 -119 OFFCURVE",
"442 -135 CURVE SMOOTH",
"424 -144 OFFCURVE",
"406 -148 OFFCURVE",
"394 -148 CURVE SMOOTH",
"354 -148 OFFCURVE",
"326 -125 OFFCURVE",
"326 -82 CURVE SMOOTH",
"326 -40 OFFCURVE",
"352 -11 OFFCURVE",
"436 36 CURVE SMOOTH",
"461 50 OFFCURVE",
"472 62 OFFCURVE",
"472 78 CURVE SMOOTH",
"472 91 OFFCURVE",
"463 101 OFFCURVE",
"452 101 CURVE SMOOTH",
"429 101 OFFCURVE",
"387 42 OFFCURVE",
"286 42 CURVE SMOOTH",
"170 42 OFFCURVE",
"107 114 OFFCURVE",
"107 246 CURVE SMOOTH",
"107 374 OFFCURVE",
"171 451 OFFCURVE",
"276 451 CURVE SMOOTH",
"377 451 OFFCURVE",
"431 381 OFFCURVE",
"427 256 CURVE",
"447 279 LINE",
"97 279 LINE",
"98 236 LINE",
"444 236 LINE SMOOTH",
"468 236 OFFCURVE",
"477 247 OFFCURVE",
"477 271 CURVE SMOOTH",
"477 411 OFFCURVE",
"400 497 OFFCURVE",
"276 497 CURVE SMOOTH",
"142 497 OFFCURVE",
"50 395 OFFCURVE",
"50 244 CURVE SMOOTH",
"50 87 OFFCURVE",
"140 -7 OFFCURVE",
"287 -7 CURVE SMOOTH",
"305 -7 OFFCURVE",
"319 -7 OFFCURVE",
"351 5 CURVE",
"338 13 LINE",
"296 -12 OFFCURVE",
"276 -46 OFFCURVE",
"276 -88 CURVE SMOOTH",
"276 -148 OFFCURVE",
"321 -191 OFFCURVE",
"389 -191 CURVE SMOOTH"
);
}
);
};
layerId = "9E718F8A-2CEA-4931-B05D-987794BD97DA";
paths = (
{
closed = 1;
nodes = (
"420 -191 OFFCURVE",
"448 -183 OFFCURVE",
"469 -168 CURVE",
"453 -130 LINE",
"432 -141 OFFCURVE",
"411 -148 OFFCURVE",
"394 -148 CURVE SMOOTH",
"352 -148 OFFCURVE",
"326 -123 OFFCURVE",
"326 -82 CURVE SMOOTH",
"326 -42 OFFCURVE",
"351 -12 OFFCURVE",
"420 27 CURVE SMOOTH",
"452 45 OFFCURVE",
"460 51 OFFCURVE",
"469 61 CURVE",
"447 103 LINE",
"396 61 OFFCURVE",
"345 42 OFFCURVE",
"286 42 CURVE SMOOTH",
"170 42 OFFCURVE",
"107 114 OFFCURVE",
"107 246 CURVE SMOOTH",
"107 374 OFFCURVE",
"171 451 OFFCURVE",
"276 451 CURVE SMOOTH",
"377 451 OFFCURVE",
"431 381 OFFCURVE",
"427 256 CURVE",
"447 279 LINE",
"97 279 LINE",
"98 236 LINE",
"477 236 LINE",
"477 263 LINE SMOOTH",
"477 410 OFFCURVE",
"402 497 OFFCURVE",
"276 497 CURVE SMOOTH",
"142 497 OFFCURVE",
"50 395 OFFCURVE",
"50 244 CURVE SMOOTH",
"50 87 OFFCURVE",
"140 -7 OFFCURVE",
"287 -7 CURVE SMOOTH",
"311 -7 OFFCURVE",
"325 -4 OFFCURVE",
"351 5 CURVE",
"338 13 LINE",
"298 -11 OFFCURVE",
"276 -46 OFFCURVE",
"276 -88 CURVE SMOOTH",
"276 -149 OFFCURVE",
"322 -191 OFFCURVE",
"389 -191 CURVE SMOOTH"
);
}
);
width = 525;
}
);
leftKerningGroup = o;
rightKerningGroup = e;
unicode = 0119;
},
{
glyphname = schwa;
lastChange = "2017-11-14 17:21:06 +0000";
layers = (
{
background = {
paths = (
{
closed = 1;
nodes = (
"387 -7 OFFCURVE",
"475 92 OFFCURVE",
"475 246 CURVE SMOOTH",
"475 402 OFFCURVE",
"386 497 OFFCURVE",
"242 497 CURVE SMOOTH",
"193 497 OFFCURVE",
"141 484 OFFCURVE",
"91 454 CURVE SMOOTH",
"66 439 OFFCURVE",
"57 426 OFFCURVE",
"57 412 CURVE SMOOTH",
"57 399 OFFCURVE",
"66 389 OFFCURVE",
"77 389 CURVE SMOOTH",
"100 389 OFFCURVE",
"140 448 OFFCURVE",
"243 448 CURVE SMOOTH",
"355 448 OFFCURVE",
"419 375 OFFCURVE",
"419 244 CURVE SMOOTH",
"419 113 OFFCURVE",
"358 39 OFFCURVE",
"253 39 CURVE SMOOTH",
"151 39 OFFCURVE",
"97 107 OFFCURVE",
"101 234 CURVE",
"78 211 LINE",
"428 211 LINE",
"427 254 LINE",
"81 254 LINE SMOOTH",
"58 254 OFFCURVE",
"48 244 OFFCURVE",
"48 219 CURVE SMOOTH",
"48 79 OFFCURVE",
"126 -7 OFFCURVE",
"252 -7 CURVE SMOOTH"
);
}
);
};
layerId = "9E718F8A-2CEA-4931-B05D-987794BD97DA";
paths = (
{
closed = 1;
nodes = (
"78 387 LINE",
"135 429 OFFCURVE",
"187 448 OFFCURVE",
"243 448 CURVE SMOOTH",
"355 448 OFFCURVE",
"419 375 OFFCURVE",
"419 244 CURVE SMOOTH",
"419 114 OFFCURVE",
"359 39 OFFCURVE",
"255 39 CURVE SMOOTH",
"153 39 OFFCURVE",
"97 109 OFFCURVE",
"101 234 CURVE",
"78 211 LINE",
"428 211 LINE",
"427 254 LINE",
"48 254 LINE",
"48 229 LINE SMOOTH",
"48 80 OFFCURVE",
"125 -7 OFFCURVE",
"255 -7 CURVE SMOOTH",
"389 -7 OFFCURVE",
"475 91 OFFCURVE",
"475 246 CURVE SMOOTH",
"475 402 OFFCURVE",
"386 497 OFFCURVE",
"242 497 CURVE SMOOTH",
"176 497 OFFCURVE",
"103 471 OFFCURVE",
"56 430 CURVE"
);
}
);
width = 525;
}
);
leftKerningGroup = o;
rightKerningGroup = o;
unicode = 0259;
},
{
glyphname = f;
lastChange = "2017-11-14 17:21:06 +0000";
layers = (
{
anchors = (
{
name = bottom;
position = "{131, 0}";
},
{
name = top;
position = "{131, 490}";
}
);
background = {
anchors = (
{
name = bottom;
position = "{131, 0}";
},
{
name = top;
position = "{131, 490}";
}
);
paths = (
{
closed = 1;
nodes = (
"146 -5 OFFCURVE",
"158 5 OFFCURVE",
"158 23 CURVE SMOOTH",
"158 523 LINE SMOOTH",
"158 614 OFFCURVE",
"201 653 OFFCURVE",
"276 659 CURVE SMOOTH",
"302 661 LINE SMOOTH",
"323 663 OFFCURVE",
"329 672 OFFCURVE",
"329 685 CURVE SMOOTH",
"329 702 OFFCURVE",
"317 708 OFFCURVE",
"294 706 CURVE SMOOTH",
"268 704 LINE SMOOTH",
"160 696 OFFCURVE",
"104 626 OFFCURVE",
"104 511 CURVE SMOOTH",
"104 23 LINE SMOOTH",
"104 5 OFFCURVE",
"115 -5 OFFCURVE",
"131 -5 CURVE SMOOTH"
);
},
{
closed = 1;
nodes = (
"284 440 LINE SMOOTH",
"298 440 OFFCURVE",
"307 449 OFFCURVE",
"307 462 CURVE SMOOTH",
"307 475 OFFCURVE",
"298 485 OFFCURVE",
"284 485 CURVE SMOOTH",
"26 485 LINE SMOOTH",
"12 485 OFFCURVE",
"3 475 OFFCURVE",
"3 462 CURVE SMOOTH",
"3 449 OFFCURVE",
"12 440 OFFCURVE",
"26 440 CURVE SMOOTH"
);
}
);
};
layerId = "9E718F8A-2CEA-4931-B05D-987794BD97DA";
paths = (
{
closed = 1;
nodes = (
"158 0 LINE",
"158 515 LINE SMOOTH",
"158 607 OFFCURVE",
"196 654 OFFCURVE",
"279 659 CURVE SMOOTH",
"325 662 LINE",
"320 707 LINE",
"286 705 LINE SMOOTH",
"163 698 OFFCURVE",
"104 635 OFFCURVE",
"104 511 CURVE SMOOTH",
"104 0 LINE"
);
},
{
closed = 1;
nodes = (
"302 440 LINE",
"302 485 LINE",
"8 485 LINE",
"8 440 LINE"
);
}
);
width = 310;
}
);
leftKerningGroup = f;
rightKerningGroup = f;
unicode = 0066;
userData = {
anchors = (
);
b = {
};
com.typemytype.robofont.layerData = {
b = {
anchors = (
);
components = (
);
contours = (
);
lib = {
};
name = f;
unicodes = (
);
width = 696;
};
};
components = (
);
contours = (
);
lib = {
};
name = f;
unicodes = (
);
width = 723;
};
},
{
glyphname = g;
lastChange = "2017-11-14 17:21:06 +0000";
layers = (
{
anchors = (
{
name = bottom;
position = "{289, 0}";
},
{
name = top;
position = "{289, 490}";
}
);
background = {
anchors = (
{
name = bottom;
position = "{289, 0}";
},
{
name = top;
position = "{289, 490}";
}
);
paths = (
{
closed = 1;
nodes = (
"423 -187 OFFCURVE",
"492 -115 OFFCURVE",
"492 26 CURVE SMOOTH",
"492 467 LINE SMOOTH",
"492 484 OFFCURVE",
"481 495 OFFCURVE",
"465 495 CURVE SMOOTH",
"448 495 OFFCURVE",
"438 484 OFFCURVE",
"438 467 CURVE SMOOTH",
"438 380 LINE",
"449 363 LINE",
"427 449 OFFCURVE",
"362 497 OFFCURVE",
"268 497 CURVE SMOOTH",
"138 497 OFFCURVE",
"50 400 OFFCURVE",
"50 256 CURVE SMOOTH",
"50 112 OFFCURVE",
"138 15 OFFCURVE",
"268 15 CURVE SMOOTH",
"362 15 OFFCURVE",
"427 63 OFFCURVE",
"449 149 CURVE",
"439 133 LINE",
"439 20 LINE SMOOTH",
"439 -83 OFFCURVE",
"388 -138 OFFCURVE",
"290 -138 CURVE SMOOTH",
"170 -138 OFFCURVE",
"122 -79 OFFCURVE",
"99 -79 CURVE SMOOTH",
"87 -79 OFFCURVE",
"78 -89 OFFCURVE",
"78 -102 CURVE SMOOTH",
"78 -116 OFFCURVE",
"89 -129 OFFCURVE",
"114 -144 CURVE SMOOTH",
"164 -174 OFFCURVE",
"217 -187 OFFCURVE",
"289 -187 CURVE SMOOTH"
);
},
{
closed = 1;
nodes = (
"170 64 OFFCURVE",
"107 136 OFFCURVE",
"107 256 CURVE SMOOTH",
"107 376 OFFCURVE",
"170 448 OFFCURVE",
"273 448 CURVE SMOOTH",
"377 448 OFFCURVE",
"438 375 OFFCURVE",
"438 256 CURVE SMOOTH",
"438 137 OFFCURVE",
"377 64 OFFCURVE",
"273 64 CURVE SMOOTH"
);
}
);
};
layerId = "9E718F8A-2CEA-4931-B05D-987794BD97DA";
paths = (
{
closed = 1;
nodes = (
"423 -187 OFFCURVE",
"492 -115 OFFCURVE",
"492 26 CURVE SMOOTH",
"492 485 LINE",
"438 485 LINE",
"438 380 LINE",
"449 363 LINE",
"427 449 OFFCURVE",
"362 497 OFFCURVE",
"268 497 CURVE SMOOTH",
"138 497 OFFCURVE",
"50 400 OFFCURVE",
"50 256 CURVE SMOOTH",
"50 112 OFFCURVE",
"138 15 OFFCURVE",
"268 15 CURVE SMOOTH",
"362 15 OFFCURVE",
"427 63 OFFCURVE",
"449 149 CURVE",
"439 130 LINE",
"439 20 LINE SMOOTH",
"439 -83 OFFCURVE",
"388 -138 OFFCURVE",
"290 -138 CURVE SMOOTH",
"216 -138 OFFCURVE",
"169 -122 OFFCURVE",
"103 -76 CURVE",
"81 -119 LINE",
"138 -164 OFFCURVE",
"208 -187 OFFCURVE",
"289 -187 CURVE SMOOTH"
);
},
{
closed = 1;
nodes = (
"170 64 OFFCURVE",
"107 136 OFFCURVE",
"107 256 CURVE SMOOTH",
"107 376 OFFCURVE",
"170 448 OFFCURVE",
"273 448 CURVE SMOOTH",
"377 448 OFFCURVE",
"438 375 OFFCURVE",
"438 256 CURVE SMOOTH",
"438 137 OFFCURVE",
"377 64 OFFCURVE",
"273 64 CURVE SMOOTH"
);
}
);
width = 574;
}
);
leftKerningGroup = o;
rightKerningGroup = u;
unicode = 0067;
userData = {
anchors = (
);
b = {
};
com.typemytype.robofont.layerData = {
b = {
anchors = (
);
components = (
);
contours = (
);
lib = {
};
name = g;
unicodes = (
);
width = 1167;
};
};
components = (
);
contours = (
);
lib = {
};
name = g;
unicodes = (
);
width = 1207;
};
},
{
glyphname = h;
lastChange = "2017-11-14 17:21:06 +0000";
layers = (
{
anchors = (
{
name = bottom;
position = "{279, 0}";
},
{
name = center;
position = "{279, 245}";
},
{
name = top;
position = "{109, 705}";
}
);
background = {
anchors = (
{
name = bottom;
position = "{279, 0}";
},
{
name = center;
position = "{279, 245}";
},
{
name = top;
position = "{109, 705}";
}
);
paths = (
{
closed = 1;
nodes = (
"126 -5 OFFCURVE",
"136 6 OFFCURVE",
"136 23 CURVE SMOOTH",
"136 281 LINE SMOOTH",
"136 383 OFFCURVE",
"200 448 OFFCURVE",
"299 448 CURVE SMOOTH",
"386 448 OFFCURVE",
"424 404 OFFCURVE",
"424 306 CURVE SMOOTH",
"424 23 LINE SMOOTH",
"424 6 OFFCURVE",
"434 -5 OFFCURVE",
"451 -5 CURVE SMOOTH",
"467 -5 OFFCURVE",
"478 6 OFFCURVE",
"478 23 CURVE SMOOTH",
"478 310 LINE SMOOTH",
"478 434 OFFCURVE",
"418 497 OFFCURVE",
"302 497 CURVE SMOOTH",
"218 497 OFFCURVE",
"149 454 OFFCURVE",
"124 373 CURVE",
"136 382 LINE",
"136 682 LINE SMOOTH",
"136 699 OFFCURVE",
"126 710 OFFCURVE",
"109 710 CURVE SMOOTH",
"93 710 OFFCURVE",
"82 699 OFFCURVE",
"82 682 CURVE SMOOTH",
"82 23 LINE SMOOTH",
"82 6 OFFCURVE",
"93 -5 OFFCURVE",
"109 -5 CURVE SMOOTH"
);
}
);
};
layerId = "9E718F8A-2CEA-4931-B05D-987794BD97DA";
paths = (
{
closed = 1;
nodes = (
"136 0 LINE",
"136 281 LINE SMOOTH",
"136 383 OFFCURVE",
"200 448 OFFCURVE",
"299 448 CURVE SMOOTH",
"386 448 OFFCURVE",
"424 404 OFFCURVE",
"424 306 CURVE SMOOTH",
"424 0 LINE",
"478 0 LINE",
"478 310 LINE SMOOTH",
"478 434 OFFCURVE",
"419 497 OFFCURVE",
"302 497 CURVE SMOOTH",
"218 497 OFFCURVE",
"149 454 OFFCURVE",
"124 373 CURVE",
"136 387 LINE",
"136 705 LINE",
"82 705 LINE",
"82 0 LINE"
);
}
);
width = 558;
}
);
leftKerningGroup = h;
rightKerningGroup = n;
unicode = 0068;
userData = {
anchors = (
);
b = {
};
com.typemytype.robofont.layerData = {
b = {
anchors = (
);
components = (
);
contours = (
);
lib = {
};
name = h;
unicodes = (
);
width = 1148;
};
};
components = (
);
contours = {
};
lib = {
};
name = h;
points = {
};
segmentType = curve;
unicodes = (
);
width = 1195;
x = 137;
y = 113;
};
},
{
glyphname = hbar;
lastChange = "2017-11-14 17:21:06 +0000";
layers = (
{
background = {
paths = (
{
closed = 1;
nodes = (
"126 -5 OFFCURVE",
"136 6 OFFCURVE",
"136 23 CURVE SMOOTH",
"136 281 LINE SMOOTH",
"136 383 OFFCURVE",
"200 448 OFFCURVE",
"299 448 CURVE SMOOTH",
"386 448 OFFCURVE",
"424 404 OFFCURVE",
"424 306 CURVE SMOOTH",
"424 23 LINE SMOOTH",
"424 6 OFFCURVE",
"434 -5 OFFCURVE",
"451 -5 CURVE SMOOTH",
"467 -5 OFFCURVE",
"478 6 OFFCURVE",
"478 23 CURVE SMOOTH",
"478 310 LINE SMOOTH",
"478 434 OFFCURVE",
"418 497 OFFCURVE",
"302 497 CURVE SMOOTH",
"218 497 OFFCURVE",
"149 454 OFFCURVE",
"124 373 CURVE",
"136 382 LINE",
"136 682 LINE SMOOTH",
"136 699 OFFCURVE",
"126 710 OFFCURVE",
"109 710 CURVE SMOOTH",
"93 710 OFFCURVE",
"82 699 OFFCURVE",
"82 682 CURVE SMOOTH",
"82 23 LINE SMOOTH",
"82 6 OFFCURVE",
"93 -5 OFFCURVE",
"109 -5 CURVE SMOOTH"
);
},
{
closed = 1;
nodes = (
"313 563 LINE SMOOTH",
"327 563 OFFCURVE",
"336 572 OFFCURVE",
"336 585 CURVE SMOOTH",
"336 598 OFFCURVE",
"327 608 OFFCURVE",
"313 608 CURVE SMOOTH",
"5 608 LINE SMOOTH",
"-9 608 OFFCURVE",
"-18 598 OFFCURVE",
"-18 585 CURVE SMOOTH",
"-18 572 OFFCURVE",
"-9 563 OFFCURVE",
"5 563 CURVE SMOOTH"
);
}
);
};
layerId = "9E718F8A-2CEA-4931-B05D-987794BD97DA";
paths = (
{
closed = 1;
nodes = (
"136 0 LINE",
"136 281 LINE SMOOTH",
"136 383 OFFCURVE",
"200 448 OFFCURVE",
"299 448 CURVE SMOOTH",
"386 448 OFFCURVE",
"424 404 OFFCURVE",
"424 306 CURVE SMOOTH",
"424 0 LINE",
"478 0 LINE",
"478 310 LINE SMOOTH",
"478 434 OFFCURVE",
"419 497 OFFCURVE",
"302 497 CURVE SMOOTH",
"218 497 OFFCURVE",
"149 454 OFFCURVE",
"124 373 CURVE",
"136 387 LINE",
"136 705 LINE",
"82 705 LINE",
"82 0 LINE"
);
},
{
closed = 1;
nodes = (
"331 563 LINE",
"331 608 LINE",
"-13 608 LINE",
"-13 563 LINE"
);
}
);
width = 558;
}
);
leftKerningGroup = h;
rightKerningGroup = n;
unicode = 0127;
},
{
glyphname = idotless;
lastChange = "2017-11-14 17:21:06 +0000";
layers = (
{
anchors = (
{
name = bottom;
position = "{109, 0}";
},
{
name = ogonek;
position = "{133, 10}";
},
{
name = top;
position = "{109, 490}";
}
);
background = {
anchors = (
{
name = bottom;
position = "{109, 0}";
},
{
name = ogonek;
position = "{133, 10}";
},
{
name = top;
position = "{109, 490}";
}
);
paths = (
{
closed = 1;
nodes = (
"125 -5 OFFCURVE",
"136 5 OFFCURVE",
"136 23 CURVE SMOOTH",
"136 467 LINE SMOOTH",
"136 485 OFFCURVE",
"125 495 OFFCURVE",
"109 495 CURVE SMOOTH",
"93 495 OFFCURVE",
"82 485 OFFCURVE",
"82 467 CURVE SMOOTH",
"82 23 LINE SMOOTH",
"82 5 OFFCURVE",
"93 -5 OFFCURVE",
"109 -5 CURVE SMOOTH"
);
}
);
};
layerId = "9E718F8A-2CEA-4931-B05D-987794BD97DA";
paths = (
{
closed = 1;
nodes = (
"136 0 LINE",
"136 485 LINE",
"82 485 LINE",
"82 0 LINE"
);
}
);
width = 218;
}
);
leftKerningGroup = n;
rightKerningGroup = u;
unicode = 0131;
},
{
glyphname = iogonek;
lastChange = "2017-11-14 17:21:06 +0000";
layers = (
{
background = {
paths = (
{
closed = 1;
nodes = (
"128 -191 OFFCURVE",
"151 -186 OFFCURVE",
"172 -174 CURVE SMOOTH",
"196 -160 OFFCURVE",
"187 -119 OFFCURVE",
"156 -135 CURVE SMOOTH",
"138 -144 OFFCURVE",
"120 -148 OFFCURVE",
"108 -148 CURVE SMOOTH",
"68 -148 OFFCURVE",
"40 -125 OFFCURVE",
"40 -82 CURVE SMOOTH",
"40 -41 OFFCURVE",
"66 -10 OFFCURVE",
"116 -2 CURVE SMOOTH",
"128 0 OFFCURVE",
"136 10 OFFCURVE",
"136 24 CURVE SMOOTH",
"136 467 LINE SMOOTH",
"136 485 OFFCURVE",
"125 495 OFFCURVE",
"109 495 CURVE SMOOTH",
"93 495 OFFCURVE",
"82 485 OFFCURVE",
"82 467 CURVE SMOOTH",
"82 24 LINE SMOOTH",
"82 12 OFFCURVE",
"88 5 OFFCURVE",
"92 2 CURVE",
"119 38 LINE",
"35 24 OFFCURVE",
"-10 -27 OFFCURVE",
"-10 -88 CURVE SMOOTH",
"-10 -148 OFFCURVE",
"35 -191 OFFCURVE",
"103 -191 CURVE SMOOTH"
);
},
{
closed = 1;
nodes = (
"133 610 OFFCURVE",
"151 626 OFFCURVE",
"151 651 CURVE SMOOTH",
"151 676 OFFCURVE",
"133 692 OFFCURVE",
"109 692 CURVE SMOOTH",
"85 692 OFFCURVE",
"67 676 OFFCURVE",
"67 651 CURVE SMOOTH",
"67 626 OFFCURVE",
"85 610 OFFCURVE",
"109 610 CURVE SMOOTH"
);
}
);
};
layerId = "9E718F8A-2CEA-4931-B05D-987794BD97DA";
paths = (
{
closed = 1;
nodes = (
"136 -191 OFFCURVE",
"164 -181 OFFCURVE",
"183 -168 CURVE",
"167 -130 LINE",
"146 -142 OFFCURVE",
"124 -148 OFFCURVE",
"108 -148 CURVE SMOOTH",
"68 -148 OFFCURVE",
"40 -125 OFFCURVE",
"40 -82 CURVE SMOOTH",
"40 -38 OFFCURVE",
"73 0 OFFCURVE",
"132 0 CURVE SMOOTH",
"136 0 LINE",
"136 485 LINE",
"82 485 LINE",
"82 0 LINE",
"99 0 LINE",
"119 38 LINE",
"35 24 OFFCURVE",
"-10 -27 OFFCURVE",
"-10 -88 CURVE SMOOTH",
"-10 -148 OFFCURVE",
"35 -191 OFFCURVE",
"103 -191 CURVE SMOOTH"
);
},
{
closed = 1;
nodes = (
"72 615 LINE",
"146 615 LINE",
"146 687 LINE",
"72 687 LINE"
);
}
);
width = 218;
}
);
leftKerningGroup = h;
rightKerningGroup = l;
unicode = 012F;
},
{
glyphname = jdotless;
lastChange = "2017-11-14 17:21:06 +0000";
layers = (
{
anchors = (
{
name = bottom;
position = "{109, 0}";
},
{
name = top;
position = "{109, 490}";
}
);
background = {
anchors = (
{
name = bottom;
position = "{109, 0}";
},
{
name = top;
position = "{109, 490}";
}
);
paths = (
{
closed = 1;
nodes = (
"-11 -180 LINE SMOOTH",
"89 -173 OFFCURVE",
"136 -124 OFFCURVE",
"136 -10 CURVE SMOOTH",
"136 467 LINE SMOOTH",
"136 485 OFFCURVE",
"125 495 OFFCURVE",
"109 495 CURVE SMOOTH",
"93 495 OFFCURVE",
"82 485 OFFCURVE",
"82 467 CURVE SMOOTH",
"82 -12 LINE SMOOTH",
"82 -101 OFFCURVE",
"47 -130 OFFCURVE",
"-20 -135 CURVE SMOOTH",
"-47 -137 LINE SMOOTH",
"-68 -139 OFFCURVE",
"-73 -149 OFFCURVE",
"-73 -160 CURVE SMOOTH",
"-73 -174 OFFCURVE",
"-64 -184 OFFCURVE",
"-38 -182 CURVE SMOOTH"
);
}
);
};
layerId = "9E718F8A-2CEA-4931-B05D-987794BD97DA";
paths = (
{
closed = 1;
nodes = (
"82 485 LINE",
"82 -10 LINE SMOOTH",
"82 -87 OFFCURVE",
"43 -130 OFFCURVE",
"-33 -135 CURVE SMOOTH",
"-76 -138 LINE",
"-71 -183 LINE",
"-27 -180 LINE SMOOTH",
"80 -173 OFFCURVE",
"136 -114 OFFCURVE",
"136 -6 CURVE SMOOTH",
"136 485 LINE"
);
}
);
width = 218;
}
);
leftKerningGroup = n;
rightKerningGroup = l;
unicode = 0237;
},
{
glyphname = k;
lastChange = "2017-11-14 17:21:06 +0000";
layers = (
{
anchors = (
{
name = bottom;
position = "{239, 0}";
},
{
name = top;
position = "{239, 490}";
}
);
background = {
paths = (
{
closed = 1;
nodes = (
"441 -22 OFFCURVE",
"473 17 OFFCURVE",
"442 43 CURVE SMOOTH",
"175 271 LINE",
"176 229 LINE",
"422 446 LINE SMOOTH",
"451 471 OFFCURVE",
"417 510 OFFCURVE",
"389 485 CURVE SMOOTH",
"123 248 LINE",
"412 3 LINE SMOOTH"
);
},
{
closed = 1;
nodes = (
"124 -5 OFFCURVE",
"136 5 OFFCURVE",
"136 23 CURVE SMOOTH",
"136 682 LINE SMOOTH",
"136 700 OFFCURVE",
"124 710 OFFCURVE",
"109 710 CURVE SMOOTH",
"93 710 OFFCURVE",
"82 700 OFFCURVE",
"82 682 CURVE SMOOTH",
"82 23 LINE SMOOTH",
"82 5 OFFCURVE",
"93 -5 OFFCURVE",
"109 -5 CURVE SMOOTH"
);
}
);
};
guideLines = (
{
position = "{170, 240}";
}
);
layerId = "9E718F8A-2CEA-4931-B05D-987794BD97DA";
paths = (
{
closed = 1;
nodes = (
"481 0 LINE",
"173 272 LINE",
"172 229 LINE",
"453 485 LINE",
"381 485 LINE",
"123 248 LINE",
"407 0 LINE"
);
},
{
closed = 1;
nodes = (
"136 0 LINE",
"136 705 LINE",
"82 705 LINE",
"82 0 LINE"
);
}
);
width = 478;
}
);
leftKerningGroup = h;
rightKerningGroup = k;
unicode = 006B;
userData = {
com.typemytype.robofont.layerData = {
b = {
anchors = (
);
components = (
);
contours = (
{
points = (
{
segmentType = line;
smooth = 0;
x = 318;
y = 536;
},
{
segmentType = line;
smooth = 1;
x = 793;
y = 27;
},
{
smooth = 0;
x = 809;
y = 9;
},
{
smooth = 0;
x = 828;
y = 1;
},
{
segmentType = curve;
smooth = 1;
x = 845;
y = 1;
},
{
smooth = 0;
x = 883;
y = 1;
},
{
smooth = 0;
x = 922;
y = 33;
},
{
segmentType = curve;
smooth = 1;
x = 922;
y = 71;
},
{
smooth = 0;
x = 922;
y = 84;
},
{
smooth = 0;
x = 918;
y = 99;
},
{
segmentType = curve;
smooth = 1;
x = 906;
y = 112;
},
{
segmentType = line;
smooth = 0;
x = 492;
y = 554;
},
{
segmentType = line;
smooth = 1;
x = 873;
y = 889;
},
{
smooth = 0;
x = 888;
y = 902;
},
{
smooth = 0;
x = 894;
y = 918;
},
{
segmentType = curve;
smooth = 1;
x = 894;
y = 933;
},
{
smooth = 0;
x = 894;
y = 968;
},
{
smooth = 0;
x = 858;
y = 1002;
},
{
segmentType = curve;
smooth = 1;
x = 821;
y = 1002;
},
{
smooth = 0;
x = 802;
y = 1002;
},
{
smooth = 0;
x = 785;
y = 994;
},
{
segmentType = curve;
smooth = 0;
x = 770;
y = 979;
},
{
segmentType = line;
smooth = 0;
x = 318;
y = 574;
}
);
}
);
lib = {
};
name = k;
unicodes = (
);
width = 984;
};
};
};
},
{
glyphname = kgreenlandic;
lastChange = "2017-11-14 17:21:06 +0000";
layers = (
{
anchors = (
{
name = bottom;
position = "{239, 0}";
},
{
name = top;
position = "{239, 490}";
}
);
background = {
paths = (
{
closed = 1;
nodes = (
"441 -22 OFFCURVE",
"473 17 OFFCURVE",
"442 43 CURVE SMOOTH",
"175 271 LINE",
"176 229 LINE",
"422 446 LINE SMOOTH",
"451 471 OFFCURVE",
"417 510 OFFCURVE",
"389 485 CURVE SMOOTH",
"123 248 LINE",
"412 3 LINE SMOOTH"
);
},
{
closed = 1;
nodes = (
"124 -5 OFFCURVE",
"136 5 OFFCURVE",
"136 23 CURVE SMOOTH",
"136 467 LINE SMOOTH",
"136 485 OFFCURVE",
"124 495 OFFCURVE",
"109 495 CURVE SMOOTH",
"93 495 OFFCURVE",
"82 485 OFFCURVE",
"82 467 CURVE SMOOTH",
"82 23 LINE SMOOTH",
"82 5 OFFCURVE",
"93 -5 OFFCURVE",
"109 -5 CURVE SMOOTH"
);
}
);
};
layerId = "9E718F8A-2CEA-4931-B05D-987794BD97DA";
paths = (
{
closed = 1;
nodes = (
"481 0 LINE",
"173 272 LINE",
"172 229 LINE",
"453 485 LINE",
"381 485 LINE",
"123 248 LINE",
"407 0 LINE"
);
},
{
closed = 1;
nodes = (
"136 0 LINE",
"136 485 LINE",
"82 485 LINE",
"82 0 LINE"
);
}
);
width = 478;
}
);
leftKerningGroup = n;
rightKerningGroup = k;
unicode = 0138;
userData = {
com.typemytype.robofont.layerData = {
b = {
anchors = (
);
components = (
);
contours = (
);
lib = {
};
name = kgreenlandic;
unicodes = (
);
width = 1047;
};
};
};
},
{
glyphname = l;
lastChange = "2017-11-14 17:21:06 +0000";
layers = (
{
anchors = (
{
name = bottom;
position = "{109, 0}";
},
{
name = center;
position = "{109, 245}";
},
{
name = top;
position = "{109, 705}";
},
{
name = topright;
position = "{176, 705}";
}
);
background = {
anchors = (
{
name = bottom;
position = "{109, 0}";
},
{
name = center;
position = "{109, 245}";
},
{
name = top;
position = "{109, 705}";
},
{
name = topright;
position = "{176, 705}";
}
);
paths = (
{
closed = 1;
nodes = (
"124 -5 OFFCURVE",
"136 5 OFFCURVE",
"136 23 CURVE SMOOTH",
"136 682 LINE SMOOTH",
"136 700 OFFCURVE",
"124 710 OFFCURVE",
"109 710 CURVE SMOOTH",
"93 710 OFFCURVE",
"82 700 OFFCURVE",
"82 682 CURVE SMOOTH",
"82 23 LINE SMOOTH",
"82 5 OFFCURVE",
"93 -5 OFFCURVE",
"109 -5 CURVE SMOOTH"
);
}
);
};
layerId = "9E718F8A-2CEA-4931-B05D-987794BD97DA";
paths = (
{
closed = 1;
nodes = (
"136 0 LINE",
"136 705 LINE",
"82 705 LINE",
"82 0 LINE"
);
}
);
width = 218;
}
);
leftKerningGroup = h;
rightKerningGroup = l;
unicode = 006C;
userData = {
com.typemytype.robofont.layerData = {
b = {
anchors = (
);
components = (
);
contours = (
);
lib = {
};
name = l;
unicodes = (
);
width = 511;
};
};
};
},
{
glyphname = lcaron;
lastChange = "2017-11-14 17:21:06 +0000";
layers = (
{
background = {
components = (
{
name = l;
}
);
paths = (
{
closed = 1;
nodes = (
"232 673 LINE SMOOTH",
"239 720 OFFCURVE",
"175 725 OFFCURVE",
"175 678 CURVE SMOOTH",
"175 530 LINE SMOOTH",
"175 508 OFFCURVE",
"207 505 OFFCURVE",
"210 527 CURVE SMOOTH"
);
}
);
};
components = (
{
name = l;
}
);
layerId = "9E718F8A-2CEA-4931-B05D-987794BD97DA";
paths = (
{
closed = 1;
nodes = (
"234 705 LINE",
"175 705 LINE",
"175 516 LINE",
"208 516 LINE"
);
}
);
width = 218;
}
);
leftKerningGroup = h;
rightKerningGroup = lcaron;
unicode = 013E;
},
{
glyphname = lslash;
lastChange = "2017-11-14 17:21:06 +0000";
layers = (
{
background = {
paths = (
{
closed = 1;
nodes = (
"242 396 LINE SMOOTH",
"271 413 OFFCURVE",
"248 454 OFFCURVE",
"218 437 CURVE SMOOTH",
"14 319 LINE SMOOTH",
"-14 303 OFFCURVE",
"8 260 OFFCURVE",
"38 278 CURVE SMOOTH"
);
},
{
closed = 1;
nodes = (
"143 -5 OFFCURVE",
"155 5 OFFCURVE",
"155 23 CURVE SMOOTH",
"155 682 LINE SMOOTH",
"155 700 OFFCURVE",
"143 710 OFFCURVE",
"128 710 CURVE SMOOTH",
"112 710 OFFCURVE",
"101 700 OFFCURVE",
"101 682 CURVE SMOOTH",
"101 23 LINE SMOOTH",
"101 5 OFFCURVE",
"112 -5 OFFCURVE",
"128 -5 CURVE SMOOTH"
);
}
);
};
layerId = "9E718F8A-2CEA-4931-B05D-987794BD97DA";
paths = (
{
closed = 1;
nodes = (
"260 406 LINE",
"236 447 LINE",
"-4 308 LINE",
"20 267 LINE"
);
},
{
closed = 1;
nodes = (
"155 0 LINE",
"155 705 LINE",
"101 705 LINE",
"101 0 LINE"
);
}
);
width = 256;
}
);
leftKerningGroup = l;
rightKerningGroup = l;
unicode = 0142;
},
{
glyphname = m;
lastChange = "2017-11-14 17:21:06 +0000";
layers = (
{
anchors = (
{
name = bottom;
position = "{421, 0}";
},
{
name = top;
position = "{421, 490}";
}
);
background = {
anchors = (
{
name = bottom;
position = "{421, 0}";
},
{
name = top;
position = "{421, 490}";
}
);
paths = (
{
closed = 1;
nodes = (
"126 -5 OFFCURVE",
"136 6 OFFCURVE",
"136 23 CURVE SMOOTH",
"136 281 LINE SMOOTH",
"136 383 OFFCURVE",
"192 448 OFFCURVE",
"282 448 CURVE SMOOTH",
"360 448 OFFCURVE",
"394 405 OFFCURVE",
"394 306 CURVE SMOOTH",
"394 23 LINE SMOOTH",
"394 6 OFFCURVE",
"404 -5 OFFCURVE",
"421 -5 CURVE SMOOTH",
"438 -5 OFFCURVE",
"448 6 OFFCURVE",
"448 23 CURVE SMOOTH",
"448 281 LINE SMOOTH",
"448 383 OFFCURVE",
"504 448 OFFCURVE",
"594 448 CURVE SMOOTH",
"672 448 OFFCURVE",
"706 405 OFFCURVE",
"706 306 CURVE SMOOTH",
"706 23 LINE SMOOTH",
"706 6 OFFCURVE",
"716 -5 OFFCURVE",
"733 -5 CURVE SMOOTH",
"750 -5 OFFCURVE",
"760 6 OFFCURVE",
"760 23 CURVE SMOOTH",
"760 310 LINE SMOOTH",
"760 435 OFFCURVE",
"706 497 OFFCURVE",
"599 497 CURVE SMOOTH",
"510 497 OFFCURVE",
"441 444 OFFCURVE",
"424 363 CURVE",
"447 354 LINE",
"434 450 OFFCURVE",
"382 497 OFFCURVE",
"287 497 CURVE SMOOTH",
"207 497 OFFCURVE",
"146 453 OFFCURVE",
"124 373 CURVE",
"135 382 LINE",
"135 467 LINE SMOOTH",
"135 484 OFFCURVE",
"125 495 OFFCURVE",
"109 495 CURVE SMOOTH",
"92 495 OFFCURVE",
"82 484 OFFCURVE",
"82 467 CURVE SMOOTH",
"82 23 LINE SMOOTH",
"82 6 OFFCURVE",
"92 -5 OFFCURVE",
"109 -5 CURVE SMOOTH"
);
}
);
};
layerId = "9E718F8A-2CEA-4931-B05D-987794BD97DA";
paths = (
{
closed = 1;
nodes = (
"136 0 LINE",
"136 281 LINE SMOOTH",
"136 383 OFFCURVE",
"192 448 OFFCURVE",
"282 448 CURVE SMOOTH",
"360 448 OFFCURVE",
"394 405 OFFCURVE",
"394 306 CURVE SMOOTH",
"394 0 LINE",
"448 0 LINE",
"448 281 LINE SMOOTH",
"448 383 OFFCURVE",
"504 448 OFFCURVE",
"594 448 CURVE SMOOTH",
"672 448 OFFCURVE",
"706 405 OFFCURVE",
"706 306 CURVE SMOOTH",
"706 0 LINE",
"760 0 LINE",
"760 310 LINE SMOOTH",
"760 435 OFFCURVE",
"706 497 OFFCURVE",
"599 497 CURVE SMOOTH",
"510 497 OFFCURVE",
"441 444 OFFCURVE",
"424 363 CURVE",
"447 354 LINE",
"434 450 OFFCURVE",
"382 497 OFFCURVE",
"287 497 CURVE SMOOTH",
"207 497 OFFCURVE",
"146 453 OFFCURVE",
"124 373 CURVE",
"135 382 LINE",
"135 485 LINE",
"82 485 LINE",
"82 0 LINE"
);
}
);
width = 840;
}
);
leftKerningGroup = n;
rightKerningGroup = n;
unicode = 006D;
userData = {
anchors = (
);
b = {
};
com.typemytype.robofont.layerData = {
b = {
anchors = (
);
components = (
);
contours = (
);
lib = {
};
name = m;
unicodes = (
);
width = 1838;
};
};
components = (
);
contours = (
);
lib = {
};
name = m;
unicodes = (
);
width = 1877;
};
},
{
glyphname = n;
lastChange = "2017-11-14 17:21:06 +0000";
layers = (
{
anchors = (
{
name = bottom;
position = "{279, 0}";
},
{
name = top;
position = "{279, 490}";
}
);
background = {
anchors = (
{
name = bottom;
position = "{279, 0}";
},
{
name = top;
position = "{279, 490}";
}
);
paths = (
{
closed = 1;
nodes = (
"126 -5 OFFCURVE",
"136 6 OFFCURVE",
"136 23 CURVE SMOOTH",
"136 281 LINE SMOOTH",
"136 383 OFFCURVE",
"200 448 OFFCURVE",
"299 448 CURVE SMOOTH",
"386 448 OFFCURVE",
"424 404 OFFCURVE",
"424 306 CURVE SMOOTH",
"424 23 LINE SMOOTH",
"424 6 OFFCURVE",
"434 -5 OFFCURVE",
"451 -5 CURVE SMOOTH",
"468 -5 OFFCURVE",
"478 6 OFFCURVE",
"478 23 CURVE SMOOTH",
"478 310 LINE SMOOTH",
"478 434 OFFCURVE",
"419 497 OFFCURVE",
"302 497 CURVE SMOOTH",
"218 497 OFFCURVE",
"149 454 OFFCURVE",
"124 373 CURVE",
"135 382 LINE",
"135 467 LINE SMOOTH",
"135 484 OFFCURVE",
"125 495 OFFCURVE",
"109 495 CURVE SMOOTH",
"92 495 OFFCURVE",
"82 484 OFFCURVE",
"82 467 CURVE SMOOTH",
"82 23 LINE SMOOTH",
"82 6 OFFCURVE",
"92 -5 OFFCURVE",
"109 -5 CURVE SMOOTH"
);
}
);
};
layerId = "9E718F8A-2CEA-4931-B05D-987794BD97DA";
paths = (
{
closed = 1;
nodes = (
"136 0 LINE",
"136 281 LINE SMOOTH",
"136 383 OFFCURVE",
"200 448 OFFCURVE",
"299 448 CURVE SMOOTH",
"386 448 OFFCURVE",
"424 404 OFFCURVE",
"424 306 CURVE SMOOTH",
"424 0 LINE",
"478 0 LINE",
"478 310 LINE SMOOTH",
"478 434 OFFCURVE",
"419 497 OFFCURVE",
"302 497 CURVE SMOOTH",
"218 497 OFFCURVE",
"149 454 OFFCURVE",
"124 373 CURVE",
"135 385 LINE",
"135 485 LINE",
"82 485 LINE",
"82 0 LINE"
);
}
);
width = 558;
}
);
leftKerningGroup = n;
rightKerningGroup = n;
unicode = 006E;
userData = {
anchors = (
);
b = {
};
com.typemytype.robofont.layerData = {
b = {
anchors = (
);
components = (
);
contours = (
);
lib = {
};
name = n;
unicodes = (
);
width = 1152;
};
};
components = (
);
contours = {
};
lib = {
};
name = n;
points = {
};
segmentType = curve;
unicodes = (
);
width = 1195;
x = 137;
y = 113;
};
},
{
glyphname = eng;
lastChange = "2017-11-14 17:21:06 +0000";
layers = (
{
background = {
paths = (
{
closed = 1;
nodes = (
"331 -180 LINE SMOOTH",
"433 -173 OFFCURVE",
"478 -122 OFFCURVE",
"478 -10 CURVE SMOOTH",
"478 310 LINE SMOOTH",
"478 434 OFFCURVE",
"419 497 OFFCURVE",
"302 497 CURVE SMOOTH",
"217 497 OFFCURVE",
"149 454 OFFCURVE",
"124 373 CURVE",
"135 382 LINE",
"135 467 LINE SMOOTH",
"135 484 OFFCURVE",
"125 495 OFFCURVE",
"109 495 CURVE SMOOTH",
"92 495 OFFCURVE",
"82 484 OFFCURVE",
"82 467 CURVE SMOOTH",
"82 23 LINE SMOOTH",
"82 6 OFFCURVE",
"92 -5 OFFCURVE",
"109 -5 CURVE SMOOTH",
"126 -5 OFFCURVE",
"136 6 OFFCURVE",
"136 23 CURVE SMOOTH",
"136 281 LINE SMOOTH",
"136 383 OFFCURVE",
"200 448 OFFCURVE",
"299 448 CURVE SMOOTH",
"386 448 OFFCURVE",
"424 404 OFFCURVE",
"424 306 CURVE SMOOTH",
"424 -12 LINE SMOOTH",
"424 -95 OFFCURVE",
"395 -130 OFFCURVE",
"322 -135 CURVE SMOOTH",
"295 -137 LINE SMOOTH",
"277 -138 OFFCURVE",
"269 -146 OFFCURVE",
"269 -160 CURVE SMOOTH",
"269 -177 OFFCURVE",
"281 -184 OFFCURVE",
"304 -182 CURVE SMOOTH"
);
}
);
};
layerId = "9E718F8A-2CEA-4931-B05D-987794BD97DA";
paths = (
{
closed = 1;
nodes = (
"217 497 OFFCURVE",
"149 454 OFFCURVE",
"124 373 CURVE",
"135 385 LINE",
"135 485 LINE",
"82 485 LINE",
"82 0 LINE",
"136 0 LINE",
"136 281 LINE SMOOTH",
"136 390 OFFCURVE",
"207 448 OFFCURVE",
"299 448 CURVE SMOOTH",
"378 448 OFFCURVE",
"424 413 OFFCURVE",
"424 306 CURVE SMOOTH",
"424 -10 LINE SMOOTH",
"424 -87 OFFCURVE",
"385 -130 OFFCURVE",
"309 -135 CURVE SMOOTH",
"266 -138 LINE",
"271 -183 LINE",
"315 -180 LINE SMOOTH",
"431 -172 OFFCURVE",
"478 -105 OFFCURVE",
"478 -6 CURVE SMOOTH",
"478 310 LINE SMOOTH",
"478 445 OFFCURVE",
"408 497 OFFCURVE",
"302 497 CURVE SMOOTH"
);
}
);
width = 558;
}
);
leftKerningGroup = n;
rightKerningGroup = n;
unicode = 014B;
},
{
glyphname = o;
lastChange = "2017-11-14 17:21:06 +0000";
layers = (
{
anchors = (
{
name = bottom;
position = "{271, 0}";
},
{
name = center;
position = "{271, 245}";
},
{
name = ogonek;
position = "{354, 10}";
},
{
name = top;
position = "{271, 490}";
},
{
name = topright;
position = "{320, 490}";
}
);
background = {
anchors = (
{
name = bottom;
position = "{271, 0}";
},
{
name = center;
position = "{271, 245}";
},
{
name = ogonek;
position = "{354, 10}";
},
{
name = top;
position = "{271, 490}";
},
{
name = topright;
position = "{320, 490}";
}
);
paths = (
{
closed = 1;
nodes = (
"404 -7 OFFCURVE",
"492 92 OFFCURVE",
"492 245 CURVE SMOOTH",
"492 398 OFFCURVE",
"404 497 OFFCURVE",
"271 497 CURVE SMOOTH",
"138 497 OFFCURVE",
"50 398 OFFCURVE",
"50 245 CURVE SMOOTH",
"50 92 OFFCURVE",
"138 -7 OFFCURVE",
"271 -7 CURVE SMOOTH"
);
},
{
closed = 1;
nodes = (
"166 42 OFFCURVE",
"107 114 OFFCURVE",
"107 245 CURVE SMOOTH",
"107 373 OFFCURVE",
"168 448 OFFCURVE",
"271 448 CURVE SMOOTH",
"374 448 OFFCURVE",
"435 373 OFFCURVE",
"435 245 CURVE SMOOTH",
"435 114 OFFCURVE",
"376 42 OFFCURVE",
"270 42 CURVE SMOOTH"
);
}
);
};
layerId = "9E718F8A-2CEA-4931-B05D-987794BD97DA";
paths = (
{
closed = 1;
nodes = (
"404 -7 OFFCURVE",
"492 92 OFFCURVE",
"492 245 CURVE SMOOTH",
"492 398 OFFCURVE",
"404 497 OFFCURVE",
"271 497 CURVE SMOOTH",
"138 497 OFFCURVE",
"50 398 OFFCURVE",
"50 245 CURVE SMOOTH",
"50 92 OFFCURVE",
"138 -7 OFFCURVE",
"271 -7 CURVE SMOOTH"
);
},
{
closed = 1;
nodes = (
"166 42 OFFCURVE",
"107 114 OFFCURVE",
"107 245 CURVE SMOOTH",
"107 373 OFFCURVE",
"168 448 OFFCURVE",
"271 448 CURVE SMOOTH",
"374 448 OFFCURVE",
"435 373 OFFCURVE",
"435 245 CURVE SMOOTH",
"435 114 OFFCURVE",
"376 42 OFFCURVE",
"270 42 CURVE SMOOTH"
);
}
);
width = 542;
}
);
leftKerningGroup = o;
rightKerningGroup = o;
unicode = 006F;
userData = {
anchors = (
);
b = {
};
com.typemytype.robofont.guides = (
);
com.typemytype.robofont.layerData = {
b = {
anchors = (
);
components = (
);
contours = (
);
lib = {
};
name = o;
unicodes = (
);
width = 1144;
};
};
components = (
);
contours = (
);
lib = {
};
name = o;
unicodes = (
);
width = 1199;
};
},
{
glyphname = ohorn;
lastChange = "2017-11-14 17:21:06 +0000";
layers = (
{
anchors = (
{
name = bottom;
position = "{271, 0}";
},
{
name = top;
position = "{271, 490}";
}
);
background = {
anchors = (
{
name = bottom;
position = "{271, 0}";
},
{
name = top;
position = "{271, 490}";
}
);
paths = (
{
closed = 1;
nodes = (
"404 -7 OFFCURVE",
"492 92 OFFCURVE",
"492 245 CURVE SMOOTH",
"492 352 OFFCURVE",
"448 435 OFFCURVE",
"373 474 CURVE",
"342 450 LINE",
"434 455 OFFCURVE",
"487 506 OFFCURVE",
"487 588 CURVE SMOOTH",
"487 610 OFFCURVE",
"479 620 OFFCURVE",
"462 620 CURVE SMOOTH",
"446 620 OFFCURVE",
"437 611 OFFCURVE",
"436 593 CURVE SMOOTH",
"433 522 OFFCURVE",
"405 493 OFFCURVE",
"339 493 CURVE SMOOTH",
"323 493 OFFCURVE",
"295 497 OFFCURVE",
"271 497 CURVE SMOOTH",
"138 497 OFFCURVE",
"50 398 OFFCURVE",
"50 245 CURVE SMOOTH",
"50 92 OFFCURVE",
"138 -7 OFFCURVE",
"271 -7 CURVE SMOOTH"
);
},
{
closed = 1;
nodes = (
"166 42 OFFCURVE",
"107 114 OFFCURVE",
"107 245 CURVE SMOOTH",
"107 373 OFFCURVE",
"168 448 OFFCURVE",
"271 448 CURVE SMOOTH",
"374 448 OFFCURVE",
"435 373 OFFCURVE",
"435 245 CURVE SMOOTH",
"435 114 OFFCURVE",
"376 42 OFFCURVE",
"270 42 CURVE SMOOTH"
);
}
);
};
layerId = "9E718F8A-2CEA-4931-B05D-987794BD97DA";
paths = (
{
closed = 1;
nodes = (
"404 -7 OFFCURVE",
"492 92 OFFCURVE",
"492 245 CURVE SMOOTH",
"492 354 OFFCURVE",
"448 433 OFFCURVE",
"373 472 CURVE",
"342 448 LINE",
"435 453 OFFCURVE",
"487 505 OFFCURVE",
"487 594 CURVE SMOOTH",
"487 616 LINE",
"437 616 LINE",
"437 603 LINE SMOOTH",
"437 524 OFFCURVE",
"408 491 OFFCURVE",
"339 491 CURVE SMOOTH",
"323 491 OFFCURVE",
"295 497 OFFCURVE",
"271 497 CURVE SMOOTH",
"138 497 OFFCURVE",
"50 398 OFFCURVE",
"50 245 CURVE SMOOTH",
"50 92 OFFCURVE",
"138 -7 OFFCURVE",
"271 -7 CURVE SMOOTH"
);
},
{
closed = 1;
nodes = (
"166 42 OFFCURVE",
"107 114 OFFCURVE",
"107 245 CURVE SMOOTH",
"107 373 OFFCURVE",
"168 448 OFFCURVE",
"271 448 CURVE SMOOTH",
"374 448 OFFCURVE",
"435 373 OFFCURVE",
"435 245 CURVE SMOOTH",
"435 114 OFFCURVE",
"376 42 OFFCURVE",
"270 42 CURVE SMOOTH"
);
}
);
width = 542;
}
);
leftKerningGroup = o;
rightKerningGroup = o;
unicode = 01A1;
},
{
glyphname = oogonek;
lastChange = "2017-11-14 17:21:06 +0000";
layers = (
{
anchors = (
{
name = top;
position = "{271, 490}";
}
);
background = {
anchors = (
{
name = top;
position = "{271, 490}";
}
);
paths = (
{
closed = 1;
nodes = (
"350 -191 OFFCURVE",
"373 -185 OFFCURVE",
"394 -174 CURVE SMOOTH",
"421 -158 OFFCURVE",
"406 -121 OFFCURVE",
"378 -135 CURVE SMOOTH",
"362 -143 OFFCURVE",
"344 -148 OFFCURVE",
"330 -148 CURVE SMOOTH",
"288 -148 OFFCURVE",
"262 -123 OFFCURVE",
"262 -82 CURVE SMOOTH",
"262 -38 OFFCURVE",
"286 -13 OFFCURVE",
"351 8 CURVE SMOOTH",
"439 37 OFFCURVE",
"492 125 OFFCURVE",
"492 245 CURVE SMOOTH",
"492 398 OFFCURVE",
"404 497 OFFCURVE",
"271 497 CURVE SMOOTH",
"138 497 OFFCURVE",
"50 398 OFFCURVE",
"50 245 CURVE SMOOTH",
"50 89 OFFCURVE",
"140 -10 OFFCURVE",
"276 -7 CURVE",
"274 13 LINE",
"234 -7 OFFCURVE",
"212 -44 OFFCURVE",
"212 -88 CURVE SMOOTH",
"212 -149 OFFCURVE",
"258 -191 OFFCURVE",
"325 -191 CURVE SMOOTH"
);
},
{
closed = 1;
nodes = (
"166 42 OFFCURVE",
"107 114 OFFCURVE",
"107 245 CURVE SMOOTH",
"107 373 OFFCURVE",
"168 448 OFFCURVE",
"271 448 CURVE SMOOTH",
"374 448 OFFCURVE",
"435 373 OFFCURVE",
"435 245 CURVE SMOOTH",
"435 114 OFFCURVE",
"376 42 OFFCURVE",
"270 42 CURVE SMOOTH"
);
}
);
};
layerId = "9E718F8A-2CEA-4931-B05D-987794BD97DA";
paths = (
{
closed = 1;
nodes = (
"356 -191 OFFCURVE",
"384 -183 OFFCURVE",
"405 -168 CURVE",
"389 -130 LINE",
"368 -141 OFFCURVE",
"347 -148 OFFCURVE",
"330 -148 CURVE SMOOTH",
"288 -148 OFFCURVE",
"262 -123 OFFCURVE",
"262 -82 CURVE SMOOTH",
"262 -38 OFFCURVE",
"286 -13 OFFCURVE",
"351 8 CURVE SMOOTH",
"439 36 OFFCURVE",
"492 125 OFFCURVE",
"492 245 CURVE SMOOTH",
"492 398 OFFCURVE",
"404 497 OFFCURVE",
"271 497 CURVE SMOOTH",
"138 497 OFFCURVE",
"50 398 OFFCURVE",
"50 245 CURVE SMOOTH",
"50 89 OFFCURVE",
"140 -10 OFFCURVE",
"276 -7 CURVE",
"274 13 LINE",
"234 -7 OFFCURVE",
"212 -44 OFFCURVE",
"212 -88 CURVE SMOOTH",
"212 -149 OFFCURVE",
"258 -191 OFFCURVE",
"325 -191 CURVE SMOOTH"
);
},
{
closed = 1;
nodes = (
"166 42 OFFCURVE",
"107 114 OFFCURVE",
"107 245 CURVE SMOOTH",
"107 373 OFFCURVE",
"168 448 OFFCURVE",
"271 448 CURVE SMOOTH",
"374 448 OFFCURVE",
"435 373 OFFCURVE",
"435 245 CURVE SMOOTH",
"435 114 OFFCURVE",
"376 42 OFFCURVE",
"270 42 CURVE SMOOTH"
);
}
);
width = 542;
}
);
leftKerningGroup = o;
rightKerningGroup = o;
unicode = 01EB;
},
{
glyphname = oslash;
lastChange = "2017-11-14 17:21:06 +0000";
layers = (
{
anchors = (
{
name = top;
position = "{271, 490}";
}
);
background = {
anchors = (
{
name = top;
position = "{271, 490}";
}
);
paths = (
{
closed = 1;
nodes = (
"404 -7 OFFCURVE",
"492 92 OFFCURVE",
"492 245 CURVE SMOOTH",
"492 398 OFFCURVE",
"404 497 OFFCURVE",
"271 497 CURVE SMOOTH",
"138 497 OFFCURVE",
"50 398 OFFCURVE",
"50 245 CURVE SMOOTH",
"50 92 OFFCURVE",
"138 -7 OFFCURVE",
"271 -7 CURVE SMOOTH"
);
},
{
closed = 1;
nodes = (
"440 488 LINE SMOOTH",
"456 515 OFFCURVE",
"416 538 OFFCURVE",
"400 511 CURVE SMOOTH",
"103 2 LINE SMOOTH",
"87 -25 OFFCURVE",
"127 -48 OFFCURVE",
"143 -21 CURVE SMOOTH"
);
},
{
closed = 1;
nodes = (
"166 42 OFFCURVE",
"107 114 OFFCURVE",
"107 245 CURVE SMOOTH",
"107 373 OFFCURVE",
"168 448 OFFCURVE",
"271 448 CURVE SMOOTH",
"374 448 OFFCURVE",
"435 373 OFFCURVE",
"435 245 CURVE SMOOTH",
"435 114 OFFCURVE",
"376 42 OFFCURVE",
"270 42 CURVE SMOOTH"
);
}
);
};
layerId = "9E718F8A-2CEA-4931-B05D-987794BD97DA";
paths = (
{
closed = 1;
nodes = (
"404 -7 OFFCURVE",
"492 92 OFFCURVE",
"492 245 CURVE SMOOTH",
"492 398 OFFCURVE",
"404 497 OFFCURVE",
"271 497 CURVE SMOOTH",
"138 497 OFFCURVE",
"50 398 OFFCURVE",
"50 245 CURVE SMOOTH",
"50 92 OFFCURVE",
"138 -7 OFFCURVE",
"271 -7 CURVE SMOOTH"
);
},
{
closed = 1;
nodes = (
"449 506 LINE",
"409 529 LINE",
"93 -16 LINE",
"133 -39 LINE"
);
},
{
closed = 1;
nodes = (
"166 42 OFFCURVE",
"107 114 OFFCURVE",
"107 245 CURVE SMOOTH",
"107 373 OFFCURVE",
"168 448 OFFCURVE",
"271 448 CURVE SMOOTH",
"374 448 OFFCURVE",
"435 373 OFFCURVE",
"435 245 CURVE SMOOTH",
"435 114 OFFCURVE",
"376 42 OFFCURVE",
"270 42 CURVE SMOOTH"
);
}
);
width = 542;
}
);
leftKerningGroup = o;
rightKerningGroup = o;
unicode = 00F8;
},
{
glyphname = oe;
lastChange = "2017-11-14 17:21:06 +0000";
layers = (
{
anchors = (
{
name = bottom;
position = "{464, 0}";
},
{
name = top;
position = "{464, 490}";
}
);
background = {
anchors = (
{
name = bottom;
position = "{464, 0}";
},
{
name = top;
position = "{464, 490}";
}
);
paths = (
{
closed = 1;
nodes = (
"401 -7 OFFCURVE",
"484 91 OFFCURVE",
"484 245 CURVE SMOOTH",
"484 399 OFFCURVE",
"401 497 OFFCURVE",
"271 497 CURVE SMOOTH",
"138 497 OFFCURVE",
"50 398 OFFCURVE",
"50 245 CURVE SMOOTH",
"50 92 OFFCURVE",
"138 -7 OFFCURVE",
"271 -7 CURVE SMOOTH"
);
},
{
closed = 1;
nodes = (
"166 42 OFFCURVE",
"107 114 OFFCURVE",
"107 245 CURVE SMOOTH",
"107 373 OFFCURVE",
"168 448 OFFCURVE",
"271 448 CURVE SMOOTH",
"374 448 OFFCURVE",
"435 373 OFFCURVE",
"435 245 CURVE SMOOTH",
"435 114 OFFCURVE",
"376 42 OFFCURVE",
"270 42 CURVE SMOOTH"
);
},
{
closed = 1;
nodes = (
"717 -7 OFFCURVE",
"770 7 OFFCURVE",
"820 36 CURVE SMOOTH",
"844 50 OFFCURVE",
"854 63 OFFCURVE",
"854 78 CURVE SMOOTH",
"854 91 OFFCURVE",
"845 101 OFFCURVE",
"834 101 CURVE SMOOTH",
"811 101 OFFCURVE",
"769 42 OFFCURVE",
"670 42 CURVE SMOOTH",
"555 42 OFFCURVE",
"492 114 OFFCURVE",
"492 246 CURVE SMOOTH",
"492 374 OFFCURVE",
"555 451 OFFCURVE",
"659 451 CURVE SMOOTH",
"758 451 OFFCURVE",
"812 381 OFFCURVE",
"808 256 CURVE",
"828 279 LINE",
"472 279 LINE",
"473 236 LINE",
"825 236 LINE SMOOTH",
"848 236 OFFCURVE",
"858 246 OFFCURVE",
"858 271 CURVE SMOOTH",
"858 410 OFFCURVE",
"781 497 OFFCURVE",
"659 497 CURVE SMOOTH",
"527 497 OFFCURVE",
"438 392 OFFCURVE",
"443 241 CURVE SMOOTH",
"448 84 OFFCURVE",
"532 -7 OFFCURVE",
"671 -7 CURVE SMOOTH"
);
}
);
};
layerId = "9E718F8A-2CEA-4931-B05D-987794BD97DA";
paths = (
{
closed = 1;
nodes = (
"401 -7 OFFCURVE",
"484 91 OFFCURVE",
"484 245 CURVE SMOOTH",
"484 399 OFFCURVE",
"401 497 OFFCURVE",
"271 497 CURVE SMOOTH",
"138 497 OFFCURVE",
"50 398 OFFCURVE",
"50 245 CURVE SMOOTH",
"50 92 OFFCURVE",
"138 -7 OFFCURVE",
"271 -7 CURVE SMOOTH"
);
},
{
closed = 1;
nodes = (
"166 42 OFFCURVE",
"107 114 OFFCURVE",
"107 245 CURVE SMOOTH",
"107 373 OFFCURVE",
"168 448 OFFCURVE",
"271 448 CURVE SMOOTH",
"374 448 OFFCURVE",
"435 373 OFFCURVE",
"435 245 CURVE SMOOTH",
"435 114 OFFCURVE",
"376 42 OFFCURVE",
"270 42 CURVE SMOOTH"
);
},
{
closed = 1;
nodes = (
"737 -7 OFFCURVE",
"809 20 OFFCURVE",
"850 60 CURVE",
"828 103 LINE",
"777 62 OFFCURVE",
"726 42 OFFCURVE",
"670 42 CURVE SMOOTH",
"555 42 OFFCURVE",
"492 114 OFFCURVE",
"492 246 CURVE SMOOTH",
"492 374 OFFCURVE",
"555 451 OFFCURVE",
"659 451 CURVE SMOOTH",
"758 451 OFFCURVE",
"812 381 OFFCURVE",
"808 256 CURVE",
"828 279 LINE",
"472 279 LINE",
"473 236 LINE",
"858 236 LINE",
"858 263 LINE SMOOTH",
"858 410 OFFCURVE",
"783 497 OFFCURVE",
"659 497 CURVE SMOOTH",
"527 497 OFFCURVE",
"438 392 OFFCURVE",
"443 241 CURVE SMOOTH",
"448 84 OFFCURVE",
"532 -7 OFFCURVE",
"671 -7 CURVE SMOOTH"
);
}
);
width = 906;
}
);
leftKerningGroup = o;
rightKerningGroup = e;
unicode = 0153;
},
{
glyphname = p;
lastChange = "2017-11-14 17:21:06 +0000";
layers = (
{
anchors = (
{
name = bottom;
position = "{284, 0}";
},
{
name = top;
position = "{284, 490}";
}
);
background = {
anchors = (
{
name = bottom;
position = "{284, 0}";
},
{
name = top;
position = "{284, 490}";
}
);
paths = (
{
closed = 1;
nodes = (
"126 -185 OFFCURVE",
"136 -174 OFFCURVE",
"136 -157 CURVE SMOOTH",
"136 135 LINE",
"125 127 LINE",
"147 41 OFFCURVE",
"212 -7 OFFCURVE",
"304 -7 CURVE SMOOTH",
"434 -7 OFFCURVE",
"520 91 OFFCURVE",
"520 243 CURVE SMOOTH",
"520 396 OFFCURVE",
"433 497 OFFCURVE",
"304 497 CURVE SMOOTH",
"212 497 OFFCURVE",
"147 449 OFFCURVE",
"125 364 CURVE",
"136 355 LINE",
"136 467 LINE SMOOTH",
"136 484 OFFCURVE",
"126 495 OFFCURVE",
"109 495 CURVE SMOOTH",
"92 495 OFFCURVE",
"82 484 OFFCURVE",
"82 467 CURVE SMOOTH",
"82 -157 LINE SMOOTH",
"82 -174 OFFCURVE",
"92 -185 OFFCURVE",
"109 -185 CURVE SMOOTH"
);
},
{
closed = 1;
nodes = (
"194 42 OFFCURVE",
"136 116 OFFCURVE",
"136 245 CURVE SMOOTH",
"136 375 OFFCURVE",
"194 448 OFFCURVE",
"299 448 CURVE SMOOTH",
"402 448 OFFCURVE",
"463 372 OFFCURVE",
"463 243 CURVE SMOOTH",
"463 115 OFFCURVE",
"402 42 OFFCURVE",
"298 42 CURVE SMOOTH"
);
}
);
};
layerId = "9E718F8A-2CEA-4931-B05D-987794BD97DA";
paths = (
{
closed = 1;
nodes = (
"136 -180 LINE",
"136 135 LINE",
"125 127 LINE",
"147 41 OFFCURVE",
"212 -7 OFFCURVE",
"304 -7 CURVE SMOOTH",
"434 -7 OFFCURVE",
"520 91 OFFCURVE",
"520 243 CURVE SMOOTH",
"520 396 OFFCURVE",
"433 497 OFFCURVE",
"304 497 CURVE SMOOTH",
"212 497 OFFCURVE",
"147 449 OFFCURVE",
"125 364 CURVE",
"136 355 LINE",
"136 485 LINE",
"82 485 LINE",
"82 -180 LINE"
);
},
{
closed = 1;
nodes = (
"194 42 OFFCURVE",
"136 116 OFFCURVE",
"136 245 CURVE SMOOTH",
"136 375 OFFCURVE",
"194 448 OFFCURVE",
"299 448 CURVE SMOOTH",
"402 448 OFFCURVE",
"463 372 OFFCURVE",
"463 243 CURVE SMOOTH",
"463 115 OFFCURVE",
"402 42 OFFCURVE",
"298 42 CURVE SMOOTH"
);
}
);
width = 570;
}
);
leftKerningGroup = n;
rightKerningGroup = o;
unicode = 0070;
userData = {
anchors = (
);
b = {
};
com.typemytype.robofont.layerData = {
b = {
anchors = (
);
components = (
);
contours = (
);
lib = {
};
name = p;
unicodes = (
);
width = 1181;
};
};
components = (
);
contours = (
);
lib = {
};
name = p;
unicodes = (
);
width = 1207;
};
},
{
glyphname = thorn;
lastChange = "2017-11-14 17:21:06 +0000";
layers = (
{
anchors = (
{
name = bottom;
position = "{284, 0}";
},
{
name = top;
position = "{284, 490}";
}
);
background = {
anchors = (
{
name = bottom;
position = "{284, 0}";
},
{
name = top;
position = "{284, 490}";
}
);
paths = (
{
closed = 1;
nodes = (
"125 -185 OFFCURVE",
"136 -175 OFFCURVE",
"136 -157 CURVE SMOOTH",
"136 135 LINE",
"125 127 LINE",
"147 41 OFFCURVE",
"212 -7 OFFCURVE",
"304 -7 CURVE SMOOTH",
"428 -7 OFFCURVE",
"520 84 OFFCURVE",
"520 243 CURVE SMOOTH",
"520 402 OFFCURVE",
"428 497 OFFCURVE",
"304 497 CURVE SMOOTH",
"212 497 OFFCURVE",
"147 449 OFFCURVE",
"125 364 CURVE",
"136 355 LINE",
"136 682 LINE SMOOTH",
"136 700 OFFCURVE",
"125 710 OFFCURVE",
"109 710 CURVE SMOOTH",
"93 710 OFFCURVE",
"82 700 OFFCURVE",
"82 682 CURVE SMOOTH",
"82 -157 LINE SMOOTH",
"82 -175 OFFCURVE",
"93 -185 OFFCURVE",
"109 -185 CURVE SMOOTH"
);
},
{
closed = 1;
nodes = (
"194 42 OFFCURVE",
"136 116 OFFCURVE",
"136 245 CURVE SMOOTH",
"136 375 OFFCURVE",
"194 448 OFFCURVE",
"299 448 CURVE SMOOTH",
"405 448 OFFCURVE",
"463 368 OFFCURVE",
"463 243 CURVE SMOOTH",
"463 118 OFFCURVE",
"405 42 OFFCURVE",
"298 42 CURVE SMOOTH"
);
}
);
};
layerId = "9E718F8A-2CEA-4931-B05D-987794BD97DA";
paths = (
{
closed = 1;
nodes = (
"136 -180 LINE",
"136 135 LINE",
"125 127 LINE",
"147 41 OFFCURVE",
"212 -7 OFFCURVE",
"304 -7 CURVE SMOOTH",
"428 -7 OFFCURVE",
"520 84 OFFCURVE",
"520 243 CURVE SMOOTH",
"520 402 OFFCURVE",
"428 497 OFFCURVE",
"304 497 CURVE SMOOTH",
"212 497 OFFCURVE",
"147 449 OFFCURVE",
"125 364 CURVE",
"136 355 LINE",
"136 705 LINE",
"82 705 LINE",
"82 -180 LINE"
);
},
{
closed = 1;
nodes = (
"194 42 OFFCURVE",
"136 116 OFFCURVE",
"136 245 CURVE SMOOTH",
"136 375 OFFCURVE",
"194 448 OFFCURVE",
"299 448 CURVE SMOOTH",
"405 448 OFFCURVE",
"463 368 OFFCURVE",
"463 243 CURVE SMOOTH",
"463 118 OFFCURVE",
"405 42 OFFCURVE",
"298 42 CURVE SMOOTH"
);
}
);
width = 570;
}
);
leftKerningGroup = h;
rightKerningGroup = o;
unicode = 00FE;
},
{
glyphname = q;
lastChange = "2017-11-14 17:21:06 +0000";
layers = (
{
anchors = (
{
name = bottom;
position = "{283, 0}";
},
{
name = top;
position = "{283, 490}";
}
);
background = {
anchors = (
{
name = bottom;
position = "{283, 0}";
},
{
name = top;
position = "{283, 490}";
}
);
paths = (
{
closed = 1;
nodes = (
"478 -185 OFFCURVE",
"488 -174 OFFCURVE",
"488 -157 CURVE SMOOTH",
"488 467 LINE SMOOTH",
"488 484 OFFCURVE",
"478 495 OFFCURVE",
"461 495 CURVE SMOOTH",
"444 495 OFFCURVE",
"434 484 OFFCURVE",
"434 467 CURVE SMOOTH",
"434 355 LINE",
"445 364 LINE",
"423 449 OFFCURVE",
"358 497 OFFCURVE",
"266 497 CURVE SMOOTH",
"137 497 OFFCURVE",
"50 396 OFFCURVE",
"50 243 CURVE SMOOTH",
"50 91 OFFCURVE",
"136 -7 OFFCURVE",
"266 -7 CURVE SMOOTH",
"358 -7 OFFCURVE",
"423 41 OFFCURVE",
"445 127 CURVE",
"434 135 LINE",
"434 -157 LINE SMOOTH",
"434 -174 OFFCURVE",
"444 -185 OFFCURVE",
"461 -185 CURVE SMOOTH"
);
},
{
closed = 1;
nodes = (
"168 42 OFFCURVE",
"107 115 OFFCURVE",
"107 243 CURVE SMOOTH",
"107 372 OFFCURVE",
"168 448 OFFCURVE",
"271 448 CURVE SMOOTH",
"376 448 OFFCURVE",
"434 375 OFFCURVE",
"434 245 CURVE SMOOTH",
"434 116 OFFCURVE",
"376 42 OFFCURVE",
"272 42 CURVE SMOOTH"
);
}
);
};
layerId = "9E718F8A-2CEA-4931-B05D-987794BD97DA";
paths = (
{
closed = 1;
nodes = (
"488 -180 LINE",
"488 485 LINE",
"434 485 LINE",
"434 355 LINE",
"445 364 LINE",
"423 449 OFFCURVE",
"358 497 OFFCURVE",
"266 497 CURVE SMOOTH",
"137 497 OFFCURVE",
"50 396 OFFCURVE",
"50 243 CURVE SMOOTH",
"50 91 OFFCURVE",
"136 -7 OFFCURVE",
"266 -7 CURVE SMOOTH",
"358 -7 OFFCURVE",
"423 41 OFFCURVE",
"445 127 CURVE",
"434 135 LINE",
"434 -180 LINE"
);
},
{
closed = 1;
nodes = (
"168 42 OFFCURVE",
"107 115 OFFCURVE",
"107 243 CURVE SMOOTH",
"107 372 OFFCURVE",
"168 448 OFFCURVE",
"271 448 CURVE SMOOTH",
"376 448 OFFCURVE",
"434 375 OFFCURVE",
"434 245 CURVE SMOOTH",
"434 116 OFFCURVE",
"376 42 OFFCURVE",
"272 42 CURVE SMOOTH"
);
}
);
width = 570;
}
);
leftKerningGroup = o;
rightKerningGroup = q;
unicode = 0071;
userData = {
anchors = (
);
b = {
};
com.typemytype.robofont.layerData = {
b = {
anchors = (
);
components = (
);
contours = (
);
lib = {
};
name = p;
unicodes = (
);
width = 1181;
};
};
components = (
);
contours = (
);
lib = {
};
name = p;
unicodes = (
);
width = 1207;
};
},
{
glyphname = r;
lastChange = "2017-11-14 17:21:06 +0000";
layers = (
{
anchors = (
{
name = bottom;
position = "{109, 0}";
},
{
name = top;
position = "{207, 490}";
}
);
background = {
anchors = (
{
name = bottom;
position = "{109, 0}";
},
{
name = top;
position = "{207, 490}";
}
);
paths = (
{
closed = 1;
nodes = (
"125 -5 OFFCURVE",
"136 5 OFFCURVE",
"136 23 CURVE SMOOTH",
"136 287 LINE SMOOTH",
"136 358 OFFCURVE",
"176 434 OFFCURVE",
"278 444 CURVE SMOOTH",
"308 447 LINE SMOOTH",
"329 449 OFFCURVE",
"335 459 OFFCURVE",
"335 472 CURVE SMOOTH",
"335 489 OFFCURVE",
"326 497 OFFCURVE",
"303 495 CURVE SMOOTH",
"289 494 LINE SMOOTH",
"211 488 OFFCURVE",
"152 454 OFFCURVE",
"124 373 CURVE",
"135 353 LINE",
"135 467 LINE SMOOTH",
"135 485 OFFCURVE",
"123 495 OFFCURVE",
"109 495 CURVE SMOOTH",
"93 495 OFFCURVE",
"82 485 OFFCURVE",
"82 467 CURVE SMOOTH",
"82 23 LINE SMOOTH",
"82 5 OFFCURVE",
"93 -5 OFFCURVE",
"109 -5 CURVE SMOOTH"
);
}
);
};
layerId = "9E718F8A-2CEA-4931-B05D-987794BD97DA";
paths = (
{
closed = 1;
nodes = (
"136 0 LINE",
"136 286 LINE SMOOTH",
"136 361 OFFCURVE",
"174 434 OFFCURVE",
"288 445 CURVE SMOOTH",
"328 449 LINE",
"323 497 LINE",
"299 495 LINE SMOOTH",
"211 488 OFFCURVE",
"152 454 OFFCURVE",
"124 373 CURVE",
"135 353 LINE",
"135 485 LINE",
"82 485 LINE",
"82 0 LINE"
);
}
);
width = 334;
}
);
leftKerningGroup = n;
rightKerningGroup = r;
unicode = 0072;
userData = {
anchors = (
);
b = {
};
com.typemytype.robofont.layerData = {
b = {
anchors = (
);
components = (
);
contours = (
);
lib = {
};
name = r;
unicodes = (
);
width = 715;
};
};
components = (
);
contours = (
);
lib = {
};
name = r;
unicodes = (
);
width = 763;
};
},
{
glyphname = s;
lastChange = "2017-11-14 17:21:06 +0000";
layers = (
{
anchors = (
{
name = bottom;
position = "{237, 0}";
},
{
name = top;
position = "{247, 490}";
}
);
background = {
paths = (
{
closed = 1;
nodes = (
"348 -7 OFFCURVE",
"422 47 OFFCURVE",
"422 128 CURVE SMOOTH",
"422 204 OFFCURVE",
"382 236 OFFCURVE",
"247 268 CURVE SMOOTH",
"153 290 OFFCURVE",
"126 310 OFFCURVE",
"126 358 CURVE SMOOTH",
"126 413 OFFCURVE",
"173 448 OFFCURVE",
"244 448 CURVE SMOOTH",
"339 448 OFFCURVE",
"372 389 OFFCURVE",
"396 389 CURVE SMOOTH",
"407 389 OFFCURVE",
"416 399 OFFCURVE",
"416 411 CURVE SMOOTH",
"416 426 OFFCURVE",
"406 440 OFFCURVE",
"381 458 CURVE SMOOTH",
"346 483 OFFCURVE",
"298 497 OFFCURVE",
"247 497 CURVE SMOOTH",
"142 497 OFFCURVE",
"69 439 OFFCURVE",
"69 355 CURVE SMOOTH",
"69 285 OFFCURVE",
"115 247 OFFCURVE",
"233 220 CURVE SMOOTH",
"335 197 OFFCURVE",
"366 176 OFFCURVE",
"366 128 CURVE SMOOTH",
"366 73 OFFCURVE",
"319 42 OFFCURVE",
"237 42 CURVE SMOOTH",
"133 42 OFFCURVE",
"94 101 OFFCURVE",
"71 101 CURVE SMOOTH",
"60 101 OFFCURVE",
"51 91 OFFCURVE",
"51 79 CURVE SMOOTH",
"51 63 OFFCURVE",
"59 53 OFFCURVE",
"85 36 CURVE SMOOTH",
"126 9 OFFCURVE",
"182 -7 OFFCURVE",
"237 -7 CURVE SMOOTH"
);
}
);
};
layerId = "9E718F8A-2CEA-4931-B05D-987794BD97DA";
paths = (
{
closed = 1;
nodes = (
"351 -7 OFFCURVE",
"422 47 OFFCURVE",
"422 128 CURVE SMOOTH",
"422 194 OFFCURVE",
"379 237 OFFCURVE",
"291 257 CURVE SMOOTH",
"208 277 LINE SMOOTH",
"152 290 OFFCURVE",
"126 317 OFFCURVE",
"126 362 CURVE SMOOTH",
"126 415 OFFCURVE",
"170 448 OFFCURVE",
"247 448 CURVE SMOOTH",
"302 448 OFFCURVE",
"348 429 OFFCURVE",
"392 389 CURVE",
"414 432 LINE",
"376 474 OFFCURVE",
"314 497 OFFCURVE",
"247 497 CURVE SMOOTH",
"138 497 OFFCURVE",
"69 440 OFFCURVE",
"69 357 CURVE SMOOTH",
"69 295 OFFCURVE",
"116 246 OFFCURVE",
"194 228 CURVE SMOOTH",
"276 209 LINE SMOOTH",
"339 194 OFFCURVE",
"366 169 OFFCURVE",
"366 125 CURVE SMOOTH",
"366 72 OFFCURVE",
"322 42 OFFCURVE",
"240 42 CURVE SMOOTH",
"172 42 OFFCURVE",
"126 58 OFFCURVE",
"74 101 CURVE",
"52 58 LINE",
"99 15 OFFCURVE",
"162 -7 OFFCURVE",
"237 -7 CURVE SMOOTH"
);
}
);
width = 477;
}
);
leftKerningGroup = s;
rightKerningGroup = s;
unicode = 0073;
userData = {
anchors = (
);
b = {
};
com.typemytype.robofont.layerData = {
b = {
anchors = (
);
components = (
);
contours = (
);
lib = {
};
name = s;
unicodes = (
);
width = 1007;
};
};
components = (
);
contours = (
);
lib = {
};
name = s;
unicodes = (
);
width = 1006.76001;
};
},
{
glyphname = germandbls;
lastChange = "2017-11-14 17:21:06 +0000";
layers = (
{
background = {
paths = (
{
closed = 1;
nodes = (
"486 -7 OFFCURVE",
"558 48 OFFCURVE",
"558 128 CURVE SMOOTH",
"558 294 OFFCURVE",
"299 247 OFFCURVE",
"299 366 CURVE SMOOTH",
"299 441 OFFCURVE",
"442 470 OFFCURVE",
"442 585 CURVE SMOOTH",
"442 662 OFFCURVE",
"384 709 OFFCURVE",
"289 709 CURVE SMOOTH",
"159 709 OFFCURVE",
"82 627 OFFCURVE",
"82 489 CURVE SMOOTH",
"82 23 LINE SMOOTH",
"82 6 OFFCURVE",
"92 -5 OFFCURVE",
"109 -5 CURVE SMOOTH",
"126 -5 OFFCURVE",
"136 6 OFFCURVE",
"136 23 CURVE SMOOTH",
"136 493 LINE SMOOTH",
"136 601 OFFCURVE",
"191 661 OFFCURVE",
"290 661 CURVE SMOOTH",
"352 661 OFFCURVE",
"389 633 OFFCURVE",
"389 585 CURVE SMOOTH",
"389 491 OFFCURVE",
"243 468 OFFCURVE",
"243 361 CURVE SMOOTH",
"243 200 OFFCURVE",
"502 252 OFFCURVE",
"502 128 CURVE SMOOTH",
"502 74 OFFCURVE",
"457 42 OFFCURVE",
"383 42 CURVE SMOOTH",
"289 42 OFFCURVE",
"250 101 OFFCURVE",
"227 101 CURVE SMOOTH",
"216 101 OFFCURVE",
"207 91 OFFCURVE",
"207 79 CURVE SMOOTH",
"207 64 OFFCURVE",
"214 54 OFFCURVE",
"241 36 CURVE SMOOTH",
"280 10 OFFCURVE",
"336 -7 OFFCURVE",
"383 -7 CURVE SMOOTH"
);
}
);
};
layerId = "9E718F8A-2CEA-4931-B05D-987794BD97DA";
paths = (
{
closed = 1;
nodes = (
"136 0 LINE",
"136 493 LINE SMOOTH",
"136 601 OFFCURVE",
"191 661 OFFCURVE",
"290 661 CURVE SMOOTH",
"352 661 OFFCURVE",
"389 633 OFFCURVE",
"389 585 CURVE SMOOTH",
"389 491 OFFCURVE",
"243 466 OFFCURVE",
"243 361 CURVE SMOOTH",
"243 200 OFFCURVE",
"502 252 OFFCURVE",
"502 128 CURVE SMOOTH",
"502 74 OFFCURVE",
"457 42 OFFCURVE",
"383 42 CURVE SMOOTH",
"330 42 OFFCURVE",
"285 59 OFFCURVE",
"229 101 CURVE",
"207 58 LINE",
"250 17 OFFCURVE",
"315 -7 OFFCURVE",
"383 -7 CURVE SMOOTH",
"486 -7 OFFCURVE",
"558 48 OFFCURVE",
"558 128 CURVE SMOOTH",
"558 294 OFFCURVE",
"299 247 OFFCURVE",
"299 366 CURVE SMOOTH",
"299 441 OFFCURVE",
"442 470 OFFCURVE",
"442 585 CURVE SMOOTH",
"442 662 OFFCURVE",
"384 709 OFFCURVE",
"289 709 CURVE SMOOTH",
"159 709 OFFCURVE",
"82 627 OFFCURVE",
"82 489 CURVE SMOOTH",
"82 0 LINE"
);
}
);
width = 592;
}
);
leftKerningGroup = h;
rightKerningGroup = germandbls;
unicode = 00DF;
},
{
glyphname = t;
lastChange = "2017-11-14 17:21:06 +0000";
layers = (
{
anchors = (
{
name = bottom;
position = "{209, 0}";
},
{
name = center;
position = "{160, 245}";
},
{
name = top;
position = "{131, 635}";
},
{
name = topright;
position = "{218, 705}";
}
);
background = {
anchors = (
{
name = bottom;
position = "{209, 0}";
},
{
name = center;
position = "{160, 245}";
},
{
name = top;
position = "{131, 635}";
},
{
name = topright;
position = "{218, 705}";
}
);
paths = (
{
closed = 1;
nodes = (
"305 -7 OFFCURVE",
"314 4 OFFCURVE",
"314 18 CURVE SMOOTH",
"314 30 OFFCURVE",
"309 40 OFFCURVE",
"288 42 CURVE SMOOTH",
"261 44 LINE SMOOTH",
"194 49 OFFCURVE",
"158 78 OFFCURVE",
"158 167 CURVE SMOOTH",
"158 612 LINE SMOOTH",
"158 630 OFFCURVE",
"147 640 OFFCURVE",
"131 640 CURVE SMOOTH",
"115 640 OFFCURVE",
"104 630 OFFCURVE",
"104 612 CURVE SMOOTH",
"104 169 LINE SMOOTH",
"104 55 OFFCURVE",
"152 4 OFFCURVE",
"252 -3 CURVE SMOOTH",
"279 -5 LINE SMOOTH"
);
},
{
closed = 1;
nodes = (
"284 440 LINE SMOOTH",
"298 440 OFFCURVE",
"307 449 OFFCURVE",
"307 462 CURVE SMOOTH",
"307 475 OFFCURVE",
"298 485 OFFCURVE",
"284 485 CURVE SMOOTH",
"26 485 LINE SMOOTH",
"12 485 OFFCURVE",
"3 475 OFFCURVE",
"3 462 CURVE SMOOTH",
"3 449 OFFCURVE",
"12 440 OFFCURVE",
"26 440 CURVE SMOOTH"
);
}
);
};
layerId = "9E718F8A-2CEA-4931-B05D-987794BD97DA";
paths = (
{
closed = 1;
nodes = (
"302 440 LINE",
"302 485 LINE",
"8 485 LINE",
"8 440 LINE"
);
},
{
closed = 1;
nodes = (
"104 158 LINE SMOOTH",
"104 60 OFFCURVE",
"158 -6 OFFCURVE",
"267 -6 CURVE SMOOTH",
"282 -6 OFFCURVE",
"298 -5 OFFCURVE",
"313 -3 CURVE",
"316 44 LINE",
"302 42 OFFCURVE",
"287 41 OFFCURVE",
"273 41 CURVE SMOOTH",
"197 41 OFFCURVE",
"158 84 OFFCURVE",
"158 166 CURVE SMOOTH",
"158 635 LINE",
"104 635 LINE"
);
}
);
width = 322;
}
);
leftKerningGroup = t;
rightKerningGroup = t;
unicode = 0074;
userData = {
anchors = (
);
b = {
};
com.typemytype.robofont.layerData = {
b = {
anchors = (
);
components = (
);
contours = (
{
points = (
{
segmentType = curve;
smooth = 1;
x = 317;
y = 0;
},
{
smooth = 0;
x = 358;
y = 0;
},
{
smooth = 0;
x = 398;
y = 27;
},
{
segmentType = curve;
smooth = 1;
x = 398;
y = 79;
},
{
segmentType = line;
smooth = 0;
x = 398;
y = 876;
},
{
segmentType = line;
smooth = 1;
x = 578;
y = 876;
},
{
smooth = 0;
x = 621;
y = 876;
},
{
smooth = 0;
x = 634;
y = 897;
},
{
segmentType = curve;
smooth = 1;
x = 634;
y = 928;
},
{
smooth = 0;
x = 634;
y = 957;
},
{
smooth = 0;
x = 621;
y = 981;
},
{
segmentType = curve;
smooth = 1;
x = 578;
y = 981;
},
{
segmentType = line;
smooth = 0;
x = 398;
y = 981;
},
{
segmentType = line;
smooth = 1;
x = 398;
y = 1053;
},
{
smooth = 0;
x = 398;
y = 1285;
},
{
smooth = 0;
x = 432;
y = 1318;
},
{
segmentType = curve;
smooth = 1;
x = 544;
y = 1318;
},
{
segmentType = line;
smooth = 1;
x = 629;
y = 1318;
},
{
smooth = 0;
x = 706;
y = 1318;
},
{
smooth = 0;
x = 703;
y = 1438;
},
{
segmentType = curve;
smooth = 1;
x = 630;
y = 1438;
},
{
segmentType = line;
smooth = 1;
x = 510;
y = 1438;
},
{
smooth = 0;
x = 357;
y = 1438;
},
{
smooth = 0;
x = 238;
y = 1371;
},
{
segmentType = curve;
smooth = 1;
x = 238;
y = 1112;
},
{
segmentType = line;
smooth = 0;
x = 238;
y = 981;
},
{
segmentType = line;
smooth = 1;
x = 98;
y = 981;
},
{
smooth = 0;
x = 55;
y = 981;
},
{
smooth = 0;
x = 39;
y = 957;
},
{
segmentType = curve;
smooth = 1;
x = 39;
y = 928;
},
{
smooth = 0;
x = 39;
y = 899;
},
{
smooth = 0;
x = 55;
y = 876;
},
{
segmentType = curve;
smooth = 1;
x = 98;
y = 876;
},
{
segmentType = line;
smooth = 0;
x = 238;
y = 876;
},
{
segmentType = line;
smooth = 1;
x = 238;
y = 79;
},
{
smooth = 0;
x = 238;
y = 26;
},
{
smooth = 0;
x = 278;
y = 0;
}
);
}
);
lib = {
};
name = t;
unicodes = (
);
width = 706;
};
};
components = (
);
contours = (
);
lib = {
};
name = t;
unicodes = (
);
width = 768;
};
},
{
glyphname = tbar;
lastChange = "2017-11-14 17:21:06 +0000";
layers = (
{
background = {
paths = (
{
closed = 1;
nodes = (
"310 -7 OFFCURVE",
"319 4 OFFCURVE",
"319 18 CURVE SMOOTH",
"319 30 OFFCURVE",
"314 40 OFFCURVE",
"293 42 CURVE SMOOTH",
"266 44 LINE SMOOTH",
"199 49 OFFCURVE",
"163 78 OFFCURVE",
"163 167 CURVE SMOOTH",
"163 612 LINE SMOOTH",
"163 630 OFFCURVE",
"152 640 OFFCURVE",
"136 640 CURVE SMOOTH",
"120 640 OFFCURVE",
"109 630 OFFCURVE",
"109 612 CURVE SMOOTH",
"109 169 LINE SMOOTH",
"109 55 OFFCURVE",
"157 4 OFFCURVE",
"257 -3 CURVE SMOOTH",
"284 -5 LINE SMOOTH"
);
},
{
closed = 1;
nodes = (
"269 258 LINE SMOOTH",
"283 258 OFFCURVE",
"292 267 OFFCURVE",
"292 280 CURVE SMOOTH",
"292 293 OFFCURVE",
"283 303 OFFCURVE",
"269 303 CURVE SMOOTH",
"51 303 LINE SMOOTH",
"37 303 OFFCURVE",
"28 293 OFFCURVE",
"28 280 CURVE SMOOTH",
"28 267 OFFCURVE",
"37 258 OFFCURVE",
"51 258 CURVE SMOOTH"
);
},
{
closed = 1;
nodes = (
"289 440 LINE SMOOTH",
"303 440 OFFCURVE",
"312 449 OFFCURVE",
"312 462 CURVE SMOOTH",
"312 475 OFFCURVE",
"303 485 OFFCURVE",
"289 485 CURVE SMOOTH",
"31 485 LINE SMOOTH",
"17 485 OFFCURVE",
"8 475 OFFCURVE",
"8 462 CURVE SMOOTH",
"8 449 OFFCURVE",
"17 440 OFFCURVE",
"31 440 CURVE SMOOTH"
);
}
);
};
layerId = "9E718F8A-2CEA-4931-B05D-987794BD97DA";
paths = (
{
closed = 1;
nodes = (
"287 258 LINE",
"287 303 LINE",
"33 303 LINE",
"33 258 LINE"
);
},
{
closed = 1;
nodes = (
"307 440 LINE",
"307 485 LINE",
"13 485 LINE",
"13 440 LINE"
);
},
{
closed = 1;
nodes = (
"109 158 LINE SMOOTH",
"109 60 OFFCURVE",
"163 -6 OFFCURVE",
"272 -6 CURVE SMOOTH",
"287 -6 OFFCURVE",
"303 -5 OFFCURVE",
"318 -3 CURVE",
"321 44 LINE",
"307 42 OFFCURVE",
"292 41 OFFCURVE",
"278 41 CURVE SMOOTH",
"202 41 OFFCURVE",
"163 84 OFFCURVE",
"163 166 CURVE SMOOTH",
"163 635 LINE",
"109 635 LINE"
);
}
);
width = 332;
}
);
leftKerningGroup = t;
rightKerningGroup = t;
unicode = 0167;
userData = {
com.typemytype.robofont.layerData = {
b = {
anchors = (
);
components = (
);
contours = (
);
lib = {
};
name = tbar;
unicodes = (
);
width = 706;
};
};
};
},
{
glyphname = u;
lastChange = "2017-11-14 17:21:06 +0000";
layers = (
{
anchors = (
{
name = bottom;
position = "{275, 0}";
},
{
name = ogonek;
position = "{465, 10}";
},
{
name = top;
position = "{275, 490}";
},
{
name = topright;
position = "{441, 490}";
}
);
background = {
anchors = (
{
name = bottom;
position = "{275, 0}";
},
{
name = ogonek;
position = "{465, 10}";
},
{
name = top;
position = "{275, 490}";
},
{
name = topright;
position = "{441, 490}";
}
);
paths = (
{
closed = 1;
nodes = (
"333 -7 OFFCURVE",
"401 36 OFFCURVE",
"426 117 CURVE",
"415 108 LINE",
"415 23 LINE SMOOTH",
"415 6 OFFCURVE",
"425 -5 OFFCURVE",
"441 -5 CURVE SMOOTH",
"458 -5 OFFCURVE",
"468 6 OFFCURVE",
"468 23 CURVE SMOOTH",
"468 467 LINE SMOOTH",
"468 484 OFFCURVE",
"458 495 OFFCURVE",
"441 495 CURVE SMOOTH",
"424 495 OFFCURVE",
"414 484 OFFCURVE",
"414 467 CURVE SMOOTH",
"414 209 LINE SMOOTH",
"414 108 OFFCURVE",
"351 42 OFFCURVE",
"255 42 CURVE SMOOTH",
"172 42 OFFCURVE",
"134 86 OFFCURVE",
"134 184 CURVE SMOOTH",
"134 467 LINE SMOOTH",
"134 484 OFFCURVE",
"124 495 OFFCURVE",
"107 495 CURVE SMOOTH",
"90 495 OFFCURVE",
"80 484 OFFCURVE",
"80 467 CURVE SMOOTH",
"80 180 LINE SMOOTH",
"80 57 OFFCURVE",
"139 -7 OFFCURVE",
"252 -7 CURVE SMOOTH"
);
}
);
};
layerId = "9E718F8A-2CEA-4931-B05D-987794BD97DA";
paths = (
{
closed = 1;
nodes = (
"333 -7 OFFCURVE",
"401 36 OFFCURVE",
"426 117 CURVE",
"415 108 LINE",
"415 0 LINE",
"468 0 LINE",
"468 485 LINE",
"414 485 LINE",
"414 209 LINE SMOOTH",
"414 108 OFFCURVE",
"351 42 OFFCURVE",
"255 42 CURVE SMOOTH",
"172 42 OFFCURVE",
"134 86 OFFCURVE",
"134 184 CURVE SMOOTH",
"134 485 LINE",
"80 485 LINE",
"80 180 LINE SMOOTH",
"80 57 OFFCURVE",
"139 -7 OFFCURVE",
"252 -7 CURVE SMOOTH"
);
}
);
width = 550;
}
);
leftKerningGroup = u;
rightKerningGroup = u;
unicode = 0075;
userData = {
anchors = (
);
b = {
};
com.typemytype.robofont.layerData = {
b = {
anchors = (
);
components = (
);
contours = (
{
points = (
{
segmentType = curve;
smooth = 1;
x = 915;
y = 991;
},
{
smooth = 0;
x = 875;
y = 991;
},
{
smooth = 0;
x = 834;
y = 965;
},
{
segmentType = curve;
smooth = 1;
x = 834;
y = 916;
},
{
segmentType = line;
smooth = 0;
x = 834;
y = 395;
},
{
smooth = 0;
x = 821;
y = 198;
},
{
smooth = 0;
x = 698;
y = 90;
},
{
segmentType = curve;
smooth = 1;
x = 542;
y = 90;
},
{
smooth = 0;
x = 385;
y = 90;
},
{
smooth = 0;
x = 306;
y = 187;
},
{
segmentType = curve;
smooth = 1;
x = 306;
y = 367;
},
{
segmentType = line;
smooth = 1;
x = 306;
y = 916;
},
{
smooth = 0;
x = 306;
y = 967;
},
{
smooth = 0;
x = 266;
y = 991;
},
{
segmentType = curve;
smooth = 1;
x = 226;
y = 991;
},
{
smooth = 0;
x = 186;
y = 991;
},
{
smooth = 0;
x = 146;
y = 967;
},
{
segmentType = curve;
smooth = 1;
x = 146;
y = 916;
},
{
segmentType = line;
smooth = 1;
x = 146;
y = 369;
},
{
smooth = 0;
x = 146;
y = 96;
},
{
smooth = 0;
x = 294;
y = "-20";
},
{
segmentType = curve;
smooth = 1;
x = 507;
y = "-20";
},
{
smooth = 0;
x = 656;
y = "-20";
},
{
smooth = 0;
x = 786;
y = 49;
},
{
segmentType = curve;
smooth = 0;
x = 834;
y = 179;
},
{
segmentType = line;
smooth = 1;
x = 834;
y = 73;
},
{
smooth = 0;
x = 834;
y = 24;
},
{
smooth = 0;
x = 874;
y = 0;
},
{
segmentType = curve;
smooth = 1;
x = 913;
y = 0;
},
{
smooth = 0;
x = 953;
y = 0;
},
{
smooth = 0;
x = 994;
y = 24;
},
{
segmentType = curve;
smooth = 1;
x = 994;
y = 75;
},
{
segmentType = line;
smooth = 1;
x = 994;
y = 916;
},
{
smooth = 0;
x = 994;
y = 967;
},
{
smooth = 0;
x = 955;
y = 991;
}
);
}
);
lib = {
};
name = u;
unicodes = (
);
width = 1152;
};
};
components = (
);
contours = (
);
lib = {
};
name = u;
unicodes = (
);
width = 1195;
};
},
